<svg id="Layer_1" data-name="Layer 1" xmlns="http://www.w3.org/2000/svg" viewBox="0 0 2043 1596.05"><defs><style>.cls-1{fill:#e91c11;}.cls-2{fill:#fff;}</style></defs><rect class="cls-1" x="158.28" y="866.25" width="1834.22" height="82.04" rx="7.69"/><rect class="cls-1" x="615.63" y="1020.99" width="184.94" height="82.04" rx="7.69"/><path class="cls-2" d="M81,433.81a12,12,0,0,1,1.21,5.52q0,8.54-6.12,11.09A25,25,0,0,1,66.55,452H60.68V469.3H55.44V427.47H66.58Q77.83,427.47,81,433.81Zm-20.34,14H68a9.42,9.42,0,0,0,6.38-2.07,7.67,7.67,0,0,0,2.4-6.12q0-4-2.38-6.06a9.57,9.57,0,0,0-6.4-2H60.68Z"/><path class="cls-2" d="M111.22,468.24a11.61,11.61,0,0,1-12.29,0,13,13,0,0,1-4.34-4.78q-3.28-6.09-3.29-15.12,0-11.16,4.41-17A11.24,11.24,0,0,1,99.65,428a12.53,12.53,0,0,1,10.87,0,13.29,13.29,0,0,1,6.36,7.81,37.48,37.48,0,0,1,2,12.53q0,9-3.28,15.12A12.9,12.9,0,0,1,111.22,468.24Zm-1.57-34.84a5.63,5.63,0,0,0-9.14,0,15,15,0,0,0-2.81,6.19,43.28,43.28,0,0,0,0,17.56,14.89,14.89,0,0,0,2.81,6.17,5.65,5.65,0,0,0,9.14,0,15,15,0,0,0,2.81-6.17,43.28,43.28,0,0,0,0-17.56A15.11,15.11,0,0,0,109.65,433.4Z"/><path class="cls-2" d="M131.15,462a16.37,16.37,0,0,0,10.69,3.68,6.56,6.56,0,0,0,5.19-2.06,7.77,7.77,0,0,0,1.83-5.35,6.35,6.35,0,0,0-1.9-5,15.63,15.63,0,0,0-4.58-2.79l-1.69-.67a34.41,34.41,0,0,1-6.61-3.23,12.9,12.9,0,0,1-2.67-2.41,10.12,10.12,0,0,1-2-6.37,9.92,9.92,0,0,1,3.57-8.15,14,14,0,0,1,9.17-2.9q7.07,0,11,3.11l-2,4a13.87,13.87,0,0,0-8.78-2.83,7.41,7.41,0,0,0-5.26,1.81,6.54,6.54,0,0,0-1.95,5.05q0,3.24,3.56,5.31a33.14,33.14,0,0,0,4.09,1.83,56.22,56.22,0,0,1,5.47,2.49,13.71,13.71,0,0,1,4.58,3.87,10,10,0,0,1,1.86,6.23q0,6-3.5,9.19T141.73,470q-7.54,0-12.57-3.34Z"/><path class="cls-2" d="M194.23,427.47v4.09H182.34V469.3h-5.25V431.56H165.2v-4.09Z"/><path class="cls-2" d="M299.5,424.83H305l-19.89,50.75h-5.36Z"/><path class="cls-2" d="M319.12,442.45v-3.93H333v26.85h8.81v3.93H318.14v-3.93h9.77V442.45Zm7.94-12v-2.78a2.18,2.18,0,0,1,1.14-1.78,3.7,3.7,0,0,1,4.52,0,2.17,2.17,0,0,1,1.13,1.78v2.78a2.16,2.16,0,0,1-1.13,1.78,3.7,3.7,0,0,1-4.52,0A2.17,2.17,0,0,1,327.06,430.41Z"/><path class="cls-2" d="M369.33,437.59q9.57,0,9.56,12.12V469.3h-5.1v-19a22,22,0,0,0-.34-4.66,6.17,6.17,0,0,0-1-2.3q-1.43-1.85-4.68-1.85a8.38,8.38,0,0,0-5.56,1.91,6.27,6.27,0,0,0-2.27,5.05V469.3h-5.11V438.52h4.69l.28,3.34Q362.85,437.6,369.33,437.59Z"/><path class="cls-2" d="M411.31,442.76V426l5.11-.56V469.3h-5.11v-4.77Q408.19,470,402.5,470q-6.51,0-9.47-4.66a21.43,21.43,0,0,1-3-11.7q0-8.47,4.32-12.9a10.76,10.76,0,0,1,8.14-3.15,10.13,10.13,0,0,1,5.65,1.43A8.17,8.17,0,0,1,411.31,442.76Zm0,11q0-7.19-2.13-9.7a7.52,7.52,0,0,0-6.06-2.51q-5.44,0-7,5.39a25.28,25.28,0,0,0-.87,7.1q0,12.06,7.91,12.06Q411.31,466.07,411.31,453.73Z"/><path class="cls-2" d="M435.5,467.85a12.89,12.89,0,0,1-4.78-5.78,20.6,20.6,0,0,1-1.56-8.2,22.12,22.12,0,0,1,1.45-8.21,13.52,13.52,0,0,1,4.32-5.86,10.09,10.09,0,0,1,6.33-2.23q6.51,0,9.53,4.46a19,19,0,0,1,3,11v1.71h-19.5a15.19,15.19,0,0,0,2.37,8.05,7.4,7.4,0,0,0,6.6,3.31c2-.19,4.71-1.25,8.22-3.2l1.69,3.48q-3.65,3.64-10,3.65A13.71,13.71,0,0,1,435.5,467.85ZM448.94,451q-.56-9.47-6.62-9.46-6.84,0-7.82,9.46Z"/><path class="cls-2" d="M465.82,438.52h5.83L479,450.36l7.33-11.84h5.3l-9.46,14.92,9.8,15.86h-5.67L478.75,457l-7.83,12.26h-5.61l10.1-15.71Z"/><path class="cls-2" d="M520.17,469.3h-8.44v-8.45h8.44Z"/><path class="cls-2" d="M554.44,470a10.1,10.1,0,0,1-5.28-1.38,9.4,9.4,0,0,1-3.5-3.53v16l-5.11.56V438.52h5.11v4.24a10.8,10.8,0,0,1,3.59-3.74,9.27,9.27,0,0,1,5.08-1.43c5.06,0,8.67,2.1,10.8,6.29a20.81,20.81,0,0,1,2,9.48q0,8.79-4.24,13.36C560.89,468.9,558.07,470,554.44,470Zm-8.84-16.27q0,12.34,8.64,12.34,7.77,0,7.77-12.34c0-4.57-.69-7.74-2.09-9.53a6.91,6.91,0,0,0-5.76-2.68q-7.18,0-8.31,8.31A27.11,27.11,0,0,0,545.6,453.73Z"/><path class="cls-2" d="M602.73,450.72V469.3h-5.1V451.37q0-5.78-1.55-7.8a5.44,5.44,0,0,0-4.65-2.05A7.7,7.7,0,0,0,586,443.7a6.39,6.39,0,0,0-2.32,4.67V469.3h-5.1V426l5.1-.56v16.86a11.57,11.57,0,0,1,9.63-4.66Q602.73,437.59,602.73,450.72Z"/><path class="cls-2" d="M629.14,470a10,10,0,0,1-5.27-1.38,9.5,9.5,0,0,1-3.51-3.53v16l-5.1.56V438.52h5.1v4.24A11,11,0,0,1,624,439a9.29,9.29,0,0,1,5.08-1.43q7.61,0,10.8,6.29a20.68,20.68,0,0,1,2,9.48q0,8.79-4.23,13.36C635.6,468.9,632.77,470,629.14,470Zm-8.83-16.27q0,12.34,8.64,12.34,7.77,0,7.77-12.34c0-4.57-.7-7.74-2.09-9.53a6.93,6.93,0,0,0-5.77-2.68q-7.17,0-8.3,8.31A27.11,27.11,0,0,0,620.31,453.73Z"/><path class="cls-2" d="M673,424.83h5.53l-19.89,50.75h-5.36Z"/><path class="cls-2" d="M709.32,448.09q0-6.6-5.58-6.6a30.89,30.89,0,0,0-5.82.62,24.17,24.17,0,0,0-4.48,1.18l-1.2-3.76a34.56,34.56,0,0,1,10.91-1.94,13.29,13.29,0,0,1,8.19,2.33q3.09,2.34,3.09,7.18v22.2h-4.24l-.67-3.57a14.52,14.52,0,0,1-4.62,3,13.89,13.89,0,0,1-5.51,1.22,9.28,9.28,0,0,1-6.48-2.34,8.51,8.51,0,0,1-2.58-6.63,6.77,6.77,0,0,1,3.36-6.27,15,15,0,0,1,4.84-1.92c1.72-.34,4-.69,6.69-1l4.1-.48Zm0,14.33v-7.85l-4.18.59a34,34,0,0,0-6.06,1.23q-3.76,1.42-3.76,4.8a5,5,0,0,0,1.35,3.7,4.93,4.93,0,0,0,3.7,1.38A12.08,12.08,0,0,0,709.32,462.42Z"/><path class="cls-2" d="M741.2,470a10,10,0,0,1-5.27-1.38,9.5,9.5,0,0,1-3.51-3.53v16l-5.1.56V438.52h5.1v4.24A11,11,0,0,1,736,439a9.29,9.29,0,0,1,5.08-1.43q7.6,0,10.8,6.29a20.68,20.68,0,0,1,2,9.48q0,8.79-4.23,13.36C747.66,468.9,744.83,470,741.2,470Zm-8.83-16.27q0,12.34,8.64,12.34,7.77,0,7.77-12.34c0-4.57-.7-7.74-2.09-9.53a6.94,6.94,0,0,0-5.77-2.68q-7.18,0-8.3,8.31A27.11,27.11,0,0,0,732.37,453.73Z"/><path class="cls-2" d="M767.36,442.45v-3.93h13.89v26.85h8.81v3.93H766.38v-3.93h9.76V442.45Zm7.94-12v-2.78a2.18,2.18,0,0,1,1.14-1.78,3.7,3.7,0,0,1,4.52,0,2.19,2.19,0,0,1,1.13,1.78v2.78a2.18,2.18,0,0,1-1.13,1.78,3.7,3.7,0,0,1-4.52,0A2.17,2.17,0,0,1,775.3,430.41Z"/><path class="cls-2" d="M822.45,424.83H828l-19.89,50.75h-5.36Z"/><path class="cls-2" d="M839.35,438.52h5.83l7.32,11.84,7.33-11.84h5.3l-9.46,14.92,9.8,15.86H859.8L852.28,457l-7.83,12.26h-5.61l10.1-15.71Z"/><path class="cls-2" d="M891,442.36q1.85-4.77,6.48-4.77,5.87,0,6.62,8.45c.09,1,.14,2.22.14,3.53V469.3h-4.68V450.16c0-3.68-.25-6-.73-6.86s-.93-1.4-1.34-1.55a3.75,3.75,0,0,0-1.33-.23c-1.65,0-2.81.92-3.51,2.75a18.46,18.46,0,0,0-.67,6V469.3H887.7V450.53q0-6.21-1.46-8a2.62,2.62,0,0,0-2.18-1,3,3,0,0,0-2.42,1.24,9.63,9.63,0,0,0-1.88,6.31V469.3h-4.69V438.52h4.07l.31,4.07a10.11,10.11,0,0,1,2.24-3.55,4.86,4.86,0,0,1,3.58-1.45,5.45,5.45,0,0,1,3.65,1.27A6.61,6.61,0,0,1,891,442.36Z"/><path class="cls-2" d="M938.77,469.3H934.7q-5.41,0-7.74-1.13a7,7,0,0,1-2.13-1.48q-2.08-2.16-2.16-9.54V429.32h-9.21v-3.93h14.31V456.9q0,5.58,1,6.84a3.8,3.8,0,0,0,2.56,1.45,27.2,27.2,0,0,0,3.15.18H939Z"/><path class="cls-2" d="M962.21,469.3H957.1V438.52h4.18l.42,5.69a12.85,12.85,0,0,1,4.94-4.93,14.06,14.06,0,0,1,6.93-1.69H976v4.74h-3.2a11.53,11.53,0,0,0-7.77,2.46q-2.87,2.46-2.86,7.39Z"/><path class="cls-2" d="M1002.68,470a10,10,0,0,1-5.28-1.38,9.5,9.5,0,0,1-3.51-3.53v16l-5.1.56V438.52h5.1v4.24a10.92,10.92,0,0,1,3.6-3.74,9.23,9.23,0,0,1,5.07-1.43q7.61,0,10.8,6.29a20.68,20.68,0,0,1,2,9.48q0,8.79-4.23,13.36C1009.13,468.9,1006.3,470,1002.68,470Zm-8.84-16.27q0,12.34,8.64,12.34,7.77,0,7.77-12.34c0-4.57-.7-7.74-2.09-9.53a6.93,6.93,0,0,0-5.77-2.68q-7.17,0-8.3,8.31A27.11,27.11,0,0,0,993.84,453.73Z"/><path class="cls-2" d="M1049.79,467.28q-2.94,2.72-8.39,2.72a15,15,0,0,1-6.34-1.33,13,13,0,0,1-4.68-3.58,17.36,17.36,0,0,1-3.85-11.36,18,18,0,0,1,1.76-7.94,14.49,14.49,0,0,1,5.17-5.92,14.93,14.93,0,0,1,8.45-2.28q5,0,7.8,2.67l-1.29,3.42a12.83,12.83,0,0,0-7.3-2.16,8.17,8.17,0,0,0-6.74,3.48,14.06,14.06,0,0,0-2.68,8.85,13.84,13.84,0,0,0,2.68,8.8,8.31,8.31,0,0,0,6.84,3.42,12.43,12.43,0,0,0,7.34-2.24Z"/><path class="cls-2" d="M1142.91,469.3h-5.24V427.47h5.24v17.84H1159V427.47h5.25V469.3H1159V449.6h-16.13Z"/><path class="cls-2" d="M1202.77,427.47v4.09h-11.9V469.3h-5.24V431.56h-11.9v-4.09Z"/><path class="cls-2" d="M1240.12,427.47v4.09h-11.9V469.3H1223V431.56h-11.9v-4.09Z"/><path class="cls-2" d="M1276.32,433.81a12,12,0,0,1,1.21,5.52q0,8.54-6.12,11.09a25,25,0,0,1-9.56,1.59H1256V469.3h-5.24V427.47h11.14Q1273.13,427.47,1276.32,433.81Zm-20.34,14h7.27a9.42,9.42,0,0,0,6.38-2.07,7.67,7.67,0,0,0,2.4-6.12q0-4-2.38-6.06a9.57,9.57,0,0,0-6.4-2H1256Z"/><path class="cls-2" d="M1308,424.83h5.52l-19.89,50.75h-5.36Z"/><path class="cls-2" d="M1327.15,433.19a45.71,45.71,0,0,0,9.43-5.75h5.28V465.2h8.81v4.1h-23.49v-4.1h9.43V433.1c-.53.3-1.83,1.09-3.93,2.35a37.22,37.22,0,0,1-5.53,2.82Z"/><path class="cls-2" d="M1379.29,469.3h-8.44v-8.45h8.44Z"/><path class="cls-2" d="M1401.86,433.19a46.24,46.24,0,0,0,9.43-5.75h5.27V465.2h8.81v4.1h-23.48v-4.1h9.42V433.1c-.52.3-1.83,1.09-3.92,2.35a37.71,37.71,0,0,1-5.53,2.82Z"/><path class="cls-2" d="M59.67,545.63H54.43V503.8h5.24v17.85H75.8V503.8h5.25v41.83H75.8V525.94H59.67Z"/><path class="cls-2" d="M115.12,518.42q3.34,4.49,3.34,11.73t-3.62,11.71a12,12,0,0,1-9.82,4.47,13.27,13.27,0,0,1-5.89-1.26A11,11,0,0,1,95,541.59q-3.23-4.46-3.23-11.61t3.57-11.6q3.55-4.46,10-4.45T115.12,518.42Zm-10.1,24q5.36,0,7.3-5.33a17.19,17.19,0,0,0,1-5.88,37.46,37.46,0,0,0-.23-4.7,12.47,12.47,0,0,0-2.43-6.23,6.81,6.81,0,0,0-5.68-2.41q-5.22,0-7.12,5.44a18.4,18.4,0,0,0-1,6.12,21.66,21.66,0,0,0,1.76,9.33C99.83,541.19,102,542.41,105,542.41Z"/><path class="cls-2" d="M152,531.27a9.14,9.14,0,0,1,1.84,6.16,7.83,7.83,0,0,1-3.07,6.46,12,12,0,0,1-7.7,2.44,25,25,0,0,1-6.43-.82,13.6,13.6,0,0,1-4.6-2l1.26-3.68a15.72,15.72,0,0,0,3.73,1.47,19.65,19.65,0,0,0,5.55.75,8.14,8.14,0,0,0,4.76-1.25,3.87,3.87,0,0,0,1.79-3.33,5.35,5.35,0,0,0-.89-3.26,5.81,5.81,0,0,0-3.41-1.81l-5.21-1.27q-4.53-1.11-6-3.26a9.22,9.22,0,0,1-1.49-5.35,8.36,8.36,0,0,1,2.6-5.89c1.73-1.8,4.25-2.71,7.56-2.75h.37a19.94,19.94,0,0,1,9.51,2.1l-1.13,3.6a21.06,21.06,0,0,0-8.3-1.74,6.92,6.92,0,0,0-4.28,1.3,3.89,3.89,0,0,0-1.67,3.21,4.36,4.36,0,0,0,.84,2.91,6.21,6.21,0,0,0,3.2,1.53l5.36,1.31A10.91,10.91,0,0,1,152,531.27Z"/><path class="cls-2" d="M178.92,518.78v14.45a24,24,0,0,0,.29,4.27,5.17,5.17,0,0,0,1.18,2.55,4.43,4.43,0,0,0,2.28,1.32,17.37,17.37,0,0,0,3.82.34h5.64l-.28,3.92h-5.16q-8,0-10.58-2.92c-1.14-1.27-1.84-3.31-2.11-6.14a46.2,46.2,0,0,1-.19-4.63V518.78h-8.7l.56-3.92h8.14V504.25l5.11-1.51v12.12h13v3.92Z"/><path class="cls-2" d="M222,522.35h-8.45v-8.42H222Zm0,19.24h-8.45v-8.44H222Z"/><path class="cls-2" d="M328.05,496.48h2.61v6.65a16.06,16.06,0,0,1,9.28,3.06l-2,4a13.66,13.66,0,0,0-7.32-2.78v14.34a29.39,29.39,0,0,1,6.13,3.18,14.12,14.12,0,0,1,2.73,2.57,10.32,10.32,0,0,1,2,6.45q0,5.47-2.89,8.59a12.19,12.19,0,0,1-8,3.64v5.53h-2.61v-5.42A22,22,0,0,1,315.93,543l2-4.69A16.58,16.58,0,0,0,328.05,542V526.36c-2.4-1-4-1.67-4.91-2.11a14.45,14.45,0,0,1-5.15-4,9.38,9.38,0,0,1-1.81-5.92,11.18,11.18,0,0,1,1.57-6.08q3.09-4.87,10.3-5.16Zm0,24.3V507.45a6.74,6.74,0,0,0-4.45,2.09A6.41,6.41,0,0,0,322,514a5.24,5.24,0,0,0,1.78,4.22A15.67,15.67,0,0,0,328.05,520.78Zm2.61,6.73v14.25a5.87,5.87,0,0,0,3.68-2.55,8.32,8.32,0,0,0,1.28-4.67,6.52,6.52,0,0,0-1.32-4.3A11.1,11.1,0,0,0,330.66,527.51Z"/><path class="cls-2" d="M378.61,527.06v18.57h-5.1V527.71q0-5.79-1.55-7.8a5.43,5.43,0,0,0-4.65-2,7.69,7.69,0,0,0-5.46,2.17,6.39,6.39,0,0,0-2.31,4.67v20.93h-5.11V502.29l5.11-.56v16.86a11.51,11.51,0,0,1,9.62-4.66Q378.61,513.93,378.61,527.06Z"/><path class="cls-2" d="M414,518.42q3.33,4.49,3.34,11.73t-3.62,11.71a12,12,0,0,1-9.82,4.47,13.24,13.24,0,0,1-5.89-1.26,11,11,0,0,1-4.19-3.48q-3.22-4.46-3.22-11.61t3.56-11.6q3.57-4.46,10-4.45T414,518.42Zm-10.1,24q5.36,0,7.29-5.33a17.19,17.19,0,0,0,1-5.88,39.9,39.9,0,0,0-.22-4.7,12.47,12.47,0,0,0-2.43-6.23,6.83,6.83,0,0,0-5.68-2.41q-5.22,0-7.13,5.44a18.66,18.66,0,0,0-1,6.12,21.5,21.5,0,0,0,1.77,9.33Q399.25,542.41,403.85,542.41Z"/><path class="cls-2" d="M450.84,531.27a9.19,9.19,0,0,1,1.83,6.16,7.83,7.83,0,0,1-3.07,6.46,12,12,0,0,1-7.7,2.44,24.89,24.89,0,0,1-6.42-.82,13.51,13.51,0,0,1-4.6-2l1.26-3.68a15.54,15.54,0,0,0,3.73,1.47,19.58,19.58,0,0,0,5.54.75,8.19,8.19,0,0,0,4.77-1.25,3.86,3.86,0,0,0,1.78-3.33,5.35,5.35,0,0,0-.88-3.26,5.84,5.84,0,0,0-3.41-1.81l-5.22-1.27q-4.51-1.11-6-3.26a9.22,9.22,0,0,1-1.49-5.35,8.39,8.39,0,0,1,2.59-5.89c1.74-1.8,4.26-2.71,7.57-2.75h.36A19.94,19.94,0,0,1,451,516l-1.12,3.6a21.06,21.06,0,0,0-8.3-1.74,6.92,6.92,0,0,0-4.28,1.3,3.87,3.87,0,0,0-1.67,3.21,4.36,4.36,0,0,0,.84,2.91,6.21,6.21,0,0,0,3.2,1.53l5.36,1.31A11,11,0,0,1,450.84,531.27Z"/><path class="cls-2" d="M477.74,518.78v14.45a23.88,23.88,0,0,0,.3,4.27,5.07,5.07,0,0,0,1.17,2.55,4.42,4.42,0,0,0,2.29,1.32,17.31,17.31,0,0,0,3.82.34H491l-.28,3.92h-5.16q-7.93,0-10.58-2.92c-1.14-1.27-1.84-3.31-2.1-6.14a45.84,45.84,0,0,1-.2-4.63V518.78h-8.69l.56-3.92h8.13V504.25l5.11-1.51v12.12h13v3.92Z"/><path class="cls-2" d="M83.44,688v5L54.76,679v-3.31l28.79-14.42v5l-22,11Z"/><path class="cls-2" d="M99.8,653.25q11.51,0,14.2,6.45a9.8,9.8,0,0,1,.76,3.8,9.44,9.44,0,0,1-.68,3.64,11.22,11.22,0,0,1-1.75,2.93,28.14,28.14,0,0,1-2.38,2.54c-.87.82-1.74,1.63-2.61,2.41a33,33,0,0,0-2.37,2.36,7.88,7.88,0,0,0-2.44,5.33,24.19,24.19,0,0,0,.53,4.37H98a38.22,38.22,0,0,1-.31-4.74l0,0a8.56,8.56,0,0,1,2.24-6,28.78,28.78,0,0,1,3.66-3.43,40.92,40.92,0,0,0,3.3-2.86,8.53,8.53,0,0,0,2.72-6.06q0-4.8-5.7-6.06a15.61,15.61,0,0,0-3.45-.36,16.32,16.32,0,0,0-7.82,2.07v-4.43A17.43,17.43,0,0,1,99.8,653.25Zm-2.75,45.39v-6.39h6.79v6.39Z"/><path class="cls-2" d="M129.64,667.53h5.83l7.33,11.84,7.32-11.84h5.3L146,682.46l9.79,15.85h-5.67l-7.52-12.26-7.83,12.26h-5.61l10.1-15.71Z"/><path class="cls-2" d="M181.3,671.37q1.84-4.77,6.48-4.77,5.86,0,6.62,8.45c.1,1.05.14,2.22.14,3.53v19.73h-4.68V679.17c0-3.68-.25-6-.73-6.86s-.93-1.4-1.34-1.55a3.75,3.75,0,0,0-1.33-.23q-2.46,0-3.5,2.75a18.39,18.39,0,0,0-.68,6v19.08H178V679.54q0-6.21-1.46-8a2.6,2.6,0,0,0-2.17-1,3,3,0,0,0-2.43,1.24,9.69,9.69,0,0,0-1.88,6.31v20.23h-4.69V667.53h4.07l.31,4.07a10.08,10.08,0,0,1,2.25-3.55,4.82,4.82,0,0,1,3.57-1.45,5.5,5.5,0,0,1,3.65,1.27A6.61,6.61,0,0,1,181.3,671.37Z"/><path class="cls-2" d="M229.06,698.31H225q-5.42,0-7.74-1.13a7,7,0,0,1-2.13-1.48q-2.09-2.16-2.16-9.54V658.33h-9.21V654.4h14.31v31.51q0,5.58,1,6.84a3.76,3.76,0,0,0,2.56,1.45,27.2,27.2,0,0,0,3.15.18h4.51Z"/><path class="cls-2" d="M329.31,693q2.44-6.64,9-25.47H344l-12,30.78h-5.69l-11.9-30.78h5.89Z"/><path class="cls-2" d="M360.8,696.86a12.83,12.83,0,0,1-4.78-5.78,20.6,20.6,0,0,1-1.56-8.2,22.13,22.13,0,0,1,1.44-8.21,13.68,13.68,0,0,1,4.32-5.86,10.09,10.09,0,0,1,6.33-2.23q6.51,0,9.54,4.46a19.06,19.06,0,0,1,3,11v1.71h-19.5a15.19,15.19,0,0,0,2.37,8,7.4,7.4,0,0,0,6.61,3.31c2-.19,4.7-1.25,8.22-3.2l1.68,3.48q-3.64,3.64-10,3.65A13.66,13.66,0,0,1,360.8,696.86ZM374.24,680q-.57-9.47-6.62-9.46-6.86,0-7.83,9.46Z"/><path class="cls-2" d="M401.91,698.31H396.8V667.53H401l.42,5.7a12.72,12.72,0,0,1,4.93-4.94,14.17,14.17,0,0,1,6.93-1.69h2.47v4.75h-3.2a11.53,11.53,0,0,0-7.77,2.45c-1.9,1.64-2.86,4.1-2.86,7.39Z"/><path class="cls-2" d="M450.84,683.94a9.21,9.21,0,0,1,1.83,6.16,7.84,7.84,0,0,1-3.07,6.47,12,12,0,0,1-7.7,2.44,24.9,24.9,0,0,1-6.42-.83,13.51,13.51,0,0,1-4.6-1.95l1.26-3.67a16.44,16.44,0,0,0,3.73,1.47,20,20,0,0,0,5.54.74,8.12,8.12,0,0,0,4.77-1.25A3.86,3.86,0,0,0,448,690.2a5.38,5.38,0,0,0-.88-3.27,5.9,5.9,0,0,0-3.41-1.81l-5.22-1.26q-4.51-1.12-6-3.27a9.16,9.16,0,0,1-1.49-5.34,8.39,8.39,0,0,1,2.59-5.9q2.61-2.69,7.57-2.75h.36a19.94,19.94,0,0,1,9.51,2.11l-1.12,3.59a21.06,21.06,0,0,0-8.3-1.74,7,7,0,0,0-4.28,1.3,3.9,3.9,0,0,0-1.67,3.22,4.33,4.33,0,0,0,.84,2.9,6.06,6.06,0,0,0,3.2,1.53l5.36,1.32A10.91,10.91,0,0,1,450.84,683.94Z"/><path class="cls-2" d="M468.54,671.46v-3.93h13.89v26.85h8.81v3.93H467.56v-3.93h9.76V671.46Zm7.94-12v-2.78a2.19,2.19,0,0,1,1.13-1.78,3.7,3.7,0,0,1,4.52,0,2.18,2.18,0,0,1,1.14,1.78v2.78a2.16,2.16,0,0,1-1.14,1.78,3.7,3.7,0,0,1-4.52,0A2.17,2.17,0,0,1,476.48,659.42Z"/><path class="cls-2" d="M526,671.09q3.33,4.5,3.33,11.73t-3.61,11.71a12,12,0,0,1-9.82,4.48,13.32,13.32,0,0,1-5.9-1.26,11.22,11.22,0,0,1-4.18-3.48q-3.22-4.47-3.22-11.62t3.56-11.6q3.57-4.44,10-4.45T526,671.09Zm-10.1,24q5.36,0,7.29-5.33a17.19,17.19,0,0,0,1-5.88,37.46,37.46,0,0,0-.23-4.7,12.37,12.37,0,0,0-2.42-6.23,6.85,6.85,0,0,0-5.68-2.41q-5.22,0-7.13,5.44a18.71,18.71,0,0,0-1,6.12,21.44,21.44,0,0,0,1.77,9.33Q511.31,695.08,515.91,695.08Z"/><path class="cls-2" d="M556.09,666.6q9.57,0,9.57,12.12v19.59h-5.11v-19a22.91,22.91,0,0,0-.33-4.66,6.33,6.33,0,0,0-1-2.3q-1.44-1.85-4.69-1.85a8.33,8.33,0,0,0-5.55,1.91,6.25,6.25,0,0,0-2.27,5v20.82h-5.11V667.53h4.68l.28,3.34Q549.61,666.61,556.09,666.6Z"/><path class="cls-2" d="M606.94,673.11H574.4V668.9h32.54Zm0,12.38H574.42v-4.16H607Z"/><path class="cls-2" d="M626.23,653.75l-4.77,13.42h-4.13l3.26-13.42Zm10.18,0-4.8,13.42h-4.12l3.28-13.42Z"/><path class="cls-2" d="M654.8,662.2a45.79,45.79,0,0,0,9.43-5.75h5.27v37.76h8.81v4.1H654.83v-4.1h9.42V662.12q-.78.45-3.92,2.34a37.71,37.71,0,0,1-5.53,2.82Z"/><path class="cls-2" d="M706.94,698.31h-8.45v-8.45h8.45Z"/><path class="cls-2" d="M746.23,697.25a11.61,11.61,0,0,1-12.29,0,12.9,12.9,0,0,1-4.35-4.78q-3.29-6.09-3.28-15.12,0-11.16,4.4-17a11.24,11.24,0,0,1,3.94-3.31,12.53,12.53,0,0,1,10.87,0,13.29,13.29,0,0,1,6.36,7.81,37.27,37.27,0,0,1,2,12.53q0,9-3.29,15.12A13,13,0,0,1,746.23,697.25Zm-2.36-35.7a5.85,5.85,0,0,0-4-1.48,5.5,5.5,0,0,0-4.31,2.33q-3.71,4.56-3.7,15,0,7.49,2,12.15Zm2.58,3.93-9.93,27.89a5.84,5.84,0,0,0,3.88,1.29,5.46,5.46,0,0,0,4.25-2.33q3.71-4.51,3.71-15A31.73,31.73,0,0,0,746.45,665.48Z"/><path class="cls-2" d="M775.64,653.75l-4.77,13.42h-4.12L770,653.75Zm10.18,0L781,667.17H776.9l3.28-13.42Z"/><path class="cls-2" d="M809.51,653.25q11.5,0,14.2,6.45a9.8,9.8,0,0,1,.76,3.8,9.44,9.44,0,0,1-.68,3.64,11.5,11.5,0,0,1-1.75,2.93,28.14,28.14,0,0,1-2.38,2.54c-.87.82-1.74,1.63-2.61,2.41a33,33,0,0,0-2.37,2.36,7.89,7.89,0,0,0-2.45,5.33,24.38,24.38,0,0,0,.54,4.37h-5.11a38.22,38.22,0,0,1-.31-4.74l0,0a8.56,8.56,0,0,1,2.24-6,28.78,28.78,0,0,1,3.66-3.43,40.92,40.92,0,0,0,3.3-2.86,8.53,8.53,0,0,0,2.72-6.06q0-4.8-5.7-6.06a15.61,15.61,0,0,0-3.45-.36,16.38,16.38,0,0,0-7.83,2.07v-4.43A17.5,17.5,0,0,1,809.51,653.25Zm-2.75,45.39v-6.39h6.79v6.39Z"/><path class="cls-2" d="M839.35,665.9v-4.65L868,676v2.67l-28.78,13.63v-4.68l21.91-10.47Z"/><path class="cls-2" d="M142.54,764.35v5l-28.68-14V752l28.79-14.42v5l-22,11Z"/><path class="cls-2" d="M163.34,760.92l-2.5-28.14h6.73l-2.49,28.14Zm4.23,13.72h-6.73V766.9h6.73Z"/><path class="cls-2" d="M188.68,732.81h6.87q10,0,15.11,5.42t5.12,15.55q0,10.15-5.22,15.51t-15.62,5.35h-6.26Zm6.06,37.74q10.13,0,13.47-6.34,2.07-3.93,2.07-10.52,0-8.21-3.32-12.49t-12.16-4.29h-.87v33.64Z"/><path class="cls-2" d="M245,773.59a11.66,11.66,0,0,1-12.29,0,13.06,13.06,0,0,1-4.35-4.78q-3.28-6.09-3.28-15.12,0-11.18,4.4-17a11.17,11.17,0,0,1,4-3.31,11.55,11.55,0,0,1,5.42-1.24,11.73,11.73,0,0,1,5.45,1.24,13.25,13.25,0,0,1,6.35,7.81,37.23,37.23,0,0,1,2,12.53q0,9-3.28,15.12A13.15,13.15,0,0,1,245,773.59Zm-1.57-34.84a5.63,5.63,0,0,0-9.15,0,15,15,0,0,0-2.8,6.18,43.33,43.33,0,0,0,0,17.57,14.89,14.89,0,0,0,2.8,6.17,5.66,5.66,0,0,0,9.15,0,15,15,0,0,0,2.8-6.17,43.33,43.33,0,0,0,0-17.57A15.12,15.12,0,0,0,243.46,738.75Z"/><path class="cls-2" d="M290.66,735.62l-1.85,3.67a13,13,0,0,0-8.08-2.89,10.67,10.67,0,0,0-7.19,2.44Q268,743.6,268,753.66a25.37,25.37,0,0,0,1.43,8.75,14.27,14.27,0,0,0,4.25,6.24,9.94,9.94,0,0,0,6.58,2.35,13.2,13.2,0,0,0,8.61-3l1.83,3.95q-3.93,3.42-11.09,3.42a15.05,15.05,0,0,1-9-2.81,17.81,17.81,0,0,1-6-7.75,26.54,26.54,0,0,1-2.08-10.46,31.1,31.1,0,0,1,1.32-9.6,20.43,20.43,0,0,1,3.6-6.8,16.4,16.4,0,0,1,5.43-4.28,15.26,15.26,0,0,1,6.76-1.53Q286.59,732.11,290.66,735.62Z"/><path class="cls-2" d="M328,732.81v4.1h-11.9v37.73H310.9V736.91H299v-4.1Z"/><path class="cls-2" d="M353.41,774.64h-5.24V758l-12.52-25.2h5.78l9.4,20.12,9.51-20.12h5.92L353.41,758Z"/><path class="cls-2" d="M401.6,739.15a12.17,12.17,0,0,1,1.2,5.53q0,8.54-6.11,11.08a24.85,24.85,0,0,1-9.57,1.6h-5.86v17.28H376V732.81h11.14Q398.4,732.81,401.6,739.15Zm-20.34,14h7.26a9.4,9.4,0,0,0,6.39-2.08A7.66,7.66,0,0,0,397.3,745c0-2.7-.79-4.71-2.38-6.06a9.55,9.55,0,0,0-6.4-2h-7.26Z"/><path class="cls-2" d="M419.76,755.45v15.1h19.75l-.42,4.09H414.51V732.81h24.07l-.44,4.1H419.76V751h17.45v4.46Z"/><path class="cls-2" d="M539.42,774.64h-5.1V747.79h-8.06v-3.92h8.06a33.24,33.24,0,0,1,.45-7.16,8.93,8.93,0,0,1,2.3-4.18q2.71-2.35,9.9-2.35h3l-.28,3.92h-2.8a23.62,23.62,0,0,0-3.43.2,5.55,5.55,0,0,0-2.24.84q-1.77,1.13-1.77,5v3.74h10.52v3.92H539.42Z"/><path class="cls-2" d="M585.11,747.43q3.33,4.49,3.34,11.73t-3.62,11.71a12,12,0,0,1-9.82,4.47,13.24,13.24,0,0,1-5.89-1.26,11,11,0,0,1-4.18-3.48q-3.23-4.46-3.23-11.61t3.56-11.6q3.57-4.46,10-4.45T585.11,747.43Zm-10.1,24q5.36,0,7.29-5.33a17,17,0,0,0,1-5.88,37.82,37.82,0,0,0-.22-4.7,12.47,12.47,0,0,0-2.43-6.23,6.83,6.83,0,0,0-5.68-2.41q-5.22,0-7.13,5.44a18.66,18.66,0,0,0-1,6.12,21.47,21.47,0,0,0,1.77,9.33Q570.41,771.42,575,771.42Z"/><path class="cls-2" d="M622.46,747.43q3.35,4.49,3.34,11.73t-3.62,11.71a12,12,0,0,1-9.82,4.47,13.27,13.27,0,0,1-5.89-1.26,11,11,0,0,1-4.18-3.48q-3.22-4.46-3.23-11.61t3.57-11.6q3.55-4.46,10-4.45T622.46,747.43Zm-10.1,24q5.35,0,7.3-5.33a17.19,17.19,0,0,0,1-5.88,37.46,37.46,0,0,0-.23-4.7,12.47,12.47,0,0,0-2.43-6.23,6.81,6.81,0,0,0-5.68-2.41q-5.22,0-7.12,5.44a18.4,18.4,0,0,0-1,6.12,21.63,21.63,0,0,0,1.76,9.33Q607.76,771.42,612.36,771.42Z"/><path class="cls-2" d="M718.33,778.32V726.25a.18.18,0,0,1,.14-.14h14.42a.18.18,0,0,1,.15.14V730a.18.18,0,0,1-.15.14h-9.25v44.38h9.28a.18.18,0,0,1,.14.15v3.7a.18.18,0,0,1-.14.14H718.47A.2.2,0,0,1,718.33,778.32Z"/><path class="cls-2" d="M201.63,840.68v5l-28.67-14v-3.31l28.79-14.42v5l-22,11Z"/><path class="cls-2" d="M222.44,837.26l-2.5-28.14h6.73l-2.5,28.14ZM226.67,851h-6.73v-7.74h6.73Z"/><path class="cls-2" d="M254.74,831.79v15.09h19.75l-.42,4.1H249.49V809.15h24.07l-.44,4.1H254.74v14.08h17.45v4.46Z"/><path class="cls-2" d="M294.5,846.88h16.17l-.29,4.1H289.26V809.15h5.24Z"/><path class="cls-2" d="M329.45,831.79v15.09H349.2l-.42,4.1H324.2V809.15h24.07l-.45,4.1H329.45v14.08H346.9v4.46Z"/><path class="cls-2" d="M364.86,816.47V851h-5.21V809.15h7.15l6,19.33,6-19.33h7V851h-5.08V816.47l-5,16.39h-5.86Z"/><path class="cls-2" d="M404.15,831.79v15.09H423.9l-.42,4.1H398.91V809.15H423l-.45,4.1H404.15v14.08H421.6v4.46Z"/><path class="cls-2" d="M460.42,851h-6.18l-15.09-33.84V851h-4.77V809.15h6l15.32,33.72V809.15h4.69Z"/><path class="cls-2" d="M499.2,809.15v4.1H487.3V851h-5.24V813.25h-11.9v-4.1Z"/><path class="cls-2" d="M598.33,824.05q1.84-4.77,6.48-4.77,5.87,0,6.62,8.44c.09,1,.14,2.23.14,3.54V851h-4.69V831.85c0-3.69-.24-6-.73-6.86a3.26,3.26,0,0,0-1.33-1.56,3.79,3.79,0,0,0-1.33-.22q-2.47,0-3.51,2.74a18.5,18.5,0,0,0-.67,5.95V851H595V832.21c0-4.13-.49-6.82-1.46-8.05a2.61,2.61,0,0,0-2.18-.95,3,3,0,0,0-2.42,1.23,9.65,9.65,0,0,0-1.88,6.31V851h-4.69V820.2h4.07l.31,4.07a10.29,10.29,0,0,1,2.24-3.55,4.85,4.85,0,0,1,3.58-1.44,5.49,5.49,0,0,1,3.65,1.26A6.67,6.67,0,0,1,598.33,824.05Z"/><path class="cls-2" d="M628.41,849.54a13,13,0,0,1-4.78-5.78,20.65,20.65,0,0,1-1.56-8.21,22,22,0,0,1,1.45-8.21,13.58,13.58,0,0,1,4.32-5.86,10,10,0,0,1,6.33-2.23q6.5,0,9.53,4.46a19.06,19.06,0,0,1,3,11v1.71h-19.5a15.25,15.25,0,0,0,2.38,8.05,7.39,7.39,0,0,0,6.6,3.31q3-.27,8.22-3.2l1.69,3.48c-2.44,2.44-5.75,3.65-10,3.65A13.66,13.66,0,0,1,628.41,849.54Zm13.44-16.88q-.55-9.45-6.62-9.45-6.84,0-7.83,9.45Z"/><path class="cls-2" d="M670.65,824.13v14.45a24.81,24.81,0,0,0,.29,4.26,5.2,5.2,0,0,0,1.18,2.56,4.34,4.34,0,0,0,2.29,1.31,16.62,16.62,0,0,0,3.81.34h5.64l-.28,3.93h-5.16q-7.95,0-10.58-2.92-1.71-1.9-2.1-6.14a45.84,45.84,0,0,1-.2-4.63V824.13h-8.7l.57-3.93h8.13V809.6l5.11-1.52V820.2h13v3.93Z"/><path class="cls-2" d="M720.93,832.41V851h-5.1V833.05c0-3.85-.52-6.45-1.54-7.8a5.48,5.48,0,0,0-4.66-2,7.69,7.69,0,0,0-5.46,2.17,6.39,6.39,0,0,0-2.31,4.67V851h-5.11V807.63l5.11-.56v16.86a11.53,11.53,0,0,1,9.62-4.65Q720.93,819.28,720.93,832.41Z"/><path class="cls-2" d="M756.27,823.77q3.33,4.49,3.34,11.72T756,847.21a12,12,0,0,1-9.82,4.47,13.24,13.24,0,0,1-5.89-1.26,11,11,0,0,1-4.18-3.48c-2.15-3-3.23-6.85-3.23-11.61s1.19-8.64,3.56-11.61,5.72-4.44,10-4.44S754,820.77,756.27,823.77Zm-10.1,24q5.36,0,7.29-5.33a17.14,17.14,0,0,0,1-5.88,37.75,37.75,0,0,0-.22-4.69,12.43,12.43,0,0,0-2.43-6.23,6.83,6.83,0,0,0-5.68-2.41q-5.22,0-7.13,5.44a18.6,18.6,0,0,0-1,6.11,21.44,21.44,0,0,0,1.77,9.33Q741.57,847.75,746.17,847.75Z"/><path class="cls-2" d="M791,824.44V807.63l5.11-.56V851H791v-4.77q-3.11,5.47-8.81,5.47-6.49,0-9.46-4.66a21.33,21.33,0,0,1-3-11.69q0-8.48,4.32-12.91a10.75,10.75,0,0,1,8.13-3.14,10.09,10.09,0,0,1,5.66,1.43A8.06,8.06,0,0,1,791,824.44Zm0,11q0-7.18-2.13-9.69a7.49,7.49,0,0,0-6.06-2.51q-5.44,0-7,5.38a25.32,25.32,0,0,0-.87,7.1q0,12.06,7.91,12.06Q791,847.75,791,835.41Z"/><path class="cls-2" d="M834,851h-6.17l-15.1-33.84V851h-4.77V809.15h6l15.31,33.72V809.15H834Z"/><path class="cls-2" d="M864.88,829.77q0-6.59-5.59-6.59a31,31,0,0,0-5.82.61A25.09,25.09,0,0,0,849,825l-1.21-3.76a34.59,34.59,0,0,1,10.92-1.93,13.22,13.22,0,0,1,8.19,2.33c2.06,1.55,3.08,3.94,3.08,7.18V851h-4.23l-.68-3.56a14.34,14.34,0,0,1-4.61,3,13.89,13.89,0,0,1-5.51,1.22,9.32,9.32,0,0,1-6.49-2.34,8.49,8.49,0,0,1-2.58-6.62,6.77,6.77,0,0,1,3.37-6.27,14.51,14.51,0,0,1,4.84-1.92q2.56-.53,6.69-1l4.1-.48Zm0,14.34v-7.86l-4.18.59a34,34,0,0,0-6.06,1.23q-3.76,1.44-3.76,4.8a5.12,5.12,0,0,0,1.34,3.71,5,5,0,0,0,3.71,1.37A12.1,12.1,0,0,0,864.88,844.11Z"/><path class="cls-2" d="M897.15,824.05q1.86-4.77,6.48-4.77,5.86,0,6.62,8.44c.1,1,.14,2.23.14,3.54V851h-4.68V831.85c0-3.69-.24-6-.73-6.86a3.31,3.31,0,0,0-1.33-1.56,3.81,3.81,0,0,0-1.34-.22q-2.46,0-3.5,2.74a18.43,18.43,0,0,0-.68,5.95V851h-4.29V832.21c0-4.13-.48-6.82-1.46-8.05a2.59,2.59,0,0,0-2.17-.95,3.05,3.05,0,0,0-2.43,1.23,9.71,9.71,0,0,0-1.88,6.31V851h-4.68V820.2h4.07l.3,4.07a10.32,10.32,0,0,1,2.25-3.55,4.82,4.82,0,0,1,3.58-1.44,5.46,5.46,0,0,1,3.64,1.26A6.6,6.6,0,0,1,897.15,824.05Z"/><path class="cls-2" d="M927.24,849.54a12.88,12.88,0,0,1-4.78-5.78,20.65,20.65,0,0,1-1.56-8.21,22.16,22.16,0,0,1,1.44-8.21,13.74,13.74,0,0,1,4.32-5.86,10.09,10.09,0,0,1,6.33-2.23q6.51,0,9.54,4.46a19.06,19.06,0,0,1,3,11v1.71h-19.5a15.16,15.16,0,0,0,2.37,8.05,7.4,7.4,0,0,0,6.61,3.31q2.94-.27,8.22-3.2l1.68,3.48q-3.65,3.66-10,3.65A13.65,13.65,0,0,1,927.24,849.54Zm13.44-16.88q-.57-9.45-6.62-9.45-6.85,0-7.83,9.45Z"/><path class="cls-2" d="M1048,809.15,1060.4,851h-5.53l-3.95-13.49h-11.76L1035.23,851h-5.5l12.35-41.83Zm-7.78,24.13h9.6l-4.71-18.16Z"/><path class="cls-2" d="M1095.42,851h-6.17l-15.09-33.84V851h-4.77V809.15h6l15.32,33.72V809.15h4.68Z"/><path class="cls-2" d="M1122.23,851H1117V834.34l-12.51-25.19h5.78l9.4,20.11,9.51-20.11h5.92l-12.85,25.19Z"/><path class="cls-2" d="M1219,818.58v-4.66l28.62,14.78v2.67L1218.86,845v-4.68l21.91-10.47Z"/><path class="cls-2" d="M201.63,917v5L173,908v-3.31l28.79-14.43v5l-22,11Z"/><path class="cls-2" d="M222.44,913.6l-2.5-28.14h6.73l-2.5,28.14Zm4.23,13.72h-6.73v-7.75h6.73Z"/><path class="cls-2" d="M254.74,908.13v15.09h19.75l-.42,4.1H249.49V885.49h24.07l-.44,4.09H254.74v14.09h17.45v4.46Z"/><path class="cls-2" d="M311,927.32h-6.17l-15.09-33.84v33.84H285V885.49h6l15.32,33.72V885.49H311Z"/><path class="cls-2" d="M349.79,885.49v4.09h-11.9v37.74h-5.25V889.58H320.75v-4.09Z"/><path class="cls-2" d="M360.91,889.58v-4.09H384.5v4.09h-9.28v33.64h9.28v4.1H360.91v-4.1H370V889.58Z"/><path class="cls-2" d="M424.49,885.49v4.09H412.6v37.74h-5.25V889.58H395.46v-4.09Z"/><path class="cls-2" d="M449.87,927.32h-5.25V910.68l-12.51-25.19h5.78l9.4,20.11,9.51-20.11h5.91l-12.84,25.19Z"/><path class="cls-2" d="M546.66,896.54h5.84l7.32,11.84,7.32-11.84h5.31L563,911.46l9.79,15.86h-5.66l-7.52-12.26-7.83,12.26h-5.61l10.1-15.71Z"/><path class="cls-2" d="M584,896.54h5.83l7.33,11.84,7.32-11.84h5.3l-9.45,14.92,9.79,15.86h-5.67L597,915.06l-7.83,12.26h-5.61l10.1-15.71Z"/><path class="cls-2" d="M628.41,925.87a12.89,12.89,0,0,1-4.78-5.78,20.6,20.6,0,0,1-1.56-8.2,21.92,21.92,0,0,1,1.45-8.21,13.52,13.52,0,0,1,4.32-5.86,10,10,0,0,1,6.33-2.23q6.5,0,9.53,4.46a19.06,19.06,0,0,1,3,11v1.71h-19.5a15.28,15.28,0,0,0,2.38,8,7.39,7.39,0,0,0,6.6,3.31c2-.19,4.71-1.25,8.22-3.2l1.69,3.48c-2.44,2.43-5.75,3.65-10,3.65A13.67,13.67,0,0,1,628.41,925.87ZM641.85,909q-.55-9.46-6.62-9.46-6.84,0-7.83,9.46Z"/><path class="cls-2" d="M735,920a16.32,16.32,0,0,0,10.68,3.68,6.6,6.6,0,0,0,5.2-2.06,7.81,7.81,0,0,0,1.82-5.35,6.32,6.32,0,0,0-1.9-5,15.63,15.63,0,0,0-4.58-2.79l-1.69-.67a33.94,33.94,0,0,1-6.6-3.23,12.74,12.74,0,0,1-2.68-2.41,10.11,10.11,0,0,1-2-6.37,9.91,9.91,0,0,1,3.56-8.15,14,14,0,0,1,9.17-2.9q7.08,0,11,3.11l-2,4a13.9,13.9,0,0,0-8.79-2.83,7.42,7.42,0,0,0-5.26,1.81,6.54,6.54,0,0,0-2,5.05q0,3.24,3.57,5.31a32.18,32.18,0,0,0,4.08,1.83,55.15,55.15,0,0,1,5.47,2.49,13.75,13.75,0,0,1,4.59,3.88,10,10,0,0,1,1.85,6.22q0,6-3.49,9.19T745.52,928Q738,928,733,924.68Z"/><path class="cls-2" d="M786.05,927.32H780.8V910.68l-12.51-25.19h5.78l9.4,20.11L793,885.49h5.92l-12.85,25.19Z"/><path class="cls-2" d="M809.65,920a16.37,16.37,0,0,0,10.69,3.68,6.56,6.56,0,0,0,5.19-2.06,7.77,7.77,0,0,0,1.83-5.35,6.35,6.35,0,0,0-1.9-5,15.63,15.63,0,0,0-4.58-2.79l-1.69-.67a34.41,34.41,0,0,1-6.61-3.23,12.9,12.9,0,0,1-2.67-2.41,10.12,10.12,0,0,1-2-6.37,9.92,9.92,0,0,1,3.57-8.15,14,14,0,0,1,9.17-2.9q7.07,0,11,3.11l-2,4a13.87,13.87,0,0,0-8.78-2.83,7.41,7.41,0,0,0-5.26,1.81,6.54,6.54,0,0,0-1.95,5.05q0,3.24,3.56,5.31a33.14,33.14,0,0,0,4.09,1.83,56.22,56.22,0,0,1,5.47,2.49,13.62,13.62,0,0,1,4.58,3.88,10,10,0,0,1,1.86,6.22q0,6-3.5,9.19T820.23,928q-7.54,0-12.57-3.34Z"/><path class="cls-2" d="M872.73,885.49v4.09H860.84v37.74h-5.25V889.58H843.7v-4.09Z"/><path class="cls-2" d="M889.75,908.13v15.09H909.5l-.42,4.1H884.5V885.49h24.07l-.45,4.09H889.75v14.09H907.2v4.46Z"/><path class="cls-2" d="M925.16,892.81v34.51H920V885.49h7.15l6,19.33,6-19.33h7v41.83H941V892.81l-5,16.38h-5.86Z"/><path class="cls-2" d="M1034.36,896.17l4.8-13.41h4.12L1040,896.17Zm10.86,0,4.77-13.41h4.15l-3.25,13.41Z"/><path class="cls-2" d="M1084.12,927.32H1079V900.47h-8v-3.93h8a33.13,33.13,0,0,1,.45-7.15,8.91,8.91,0,0,1,2.3-4.18c1.81-1.58,5.12-2.36,9.9-2.36h3l-.28,3.93h-2.81a23.61,23.61,0,0,0-3.42.19,5.65,5.65,0,0,0-2.25.84q-1.76,1.13-1.76,5v3.73h10.52v3.93h-10.52Z"/><path class="cls-2" d="M1109.69,900.47v-3.93h13.88v26.85h8.81v3.93H1108.7v-3.93h9.77V900.47Zm7.93-12v-2.78a2.18,2.18,0,0,1,1.14-1.78,3.7,3.7,0,0,1,4.52,0,2.18,2.18,0,0,1,1.14,1.78v2.78a2.17,2.17,0,0,1-1.14,1.78,3.7,3.7,0,0,1-4.52,0A2.17,2.17,0,0,1,1117.62,888.43Z"/><path class="cls-2" d="M1169,927.32H1165q-5.42,0-7.75-1.13a7.08,7.08,0,0,1-2.13-1.48q-2.07-2.16-2.16-9.54V887.34h-9.2v-3.93H1158v31.51q0,5.58,1,6.84a3.82,3.82,0,0,0,2.57,1.45,27,27,0,0,0,3.14.18h4.52Z"/><path class="cls-2" d="M1188.71,925.87a12.89,12.89,0,0,1-4.78-5.78,20.6,20.6,0,0,1-1.56-8.2,21.92,21.92,0,0,1,1.45-8.21,13.52,13.52,0,0,1,4.32-5.86,10,10,0,0,1,6.32-2.23q6.51,0,9.54,4.46a19.06,19.06,0,0,1,3,11v1.71h-19.5a15.28,15.28,0,0,0,2.38,8,7.39,7.39,0,0,0,6.6,3.31c2-.19,4.71-1.25,8.22-3.2l1.69,3.48c-2.44,2.43-5.75,3.65-10,3.65A13.67,13.67,0,0,1,1188.71,925.87ZM1202.15,909q-.56-9.46-6.62-9.46-6.84,0-7.83,9.46Z"/><path class="cls-2" d="M1236.7,904h-8.45v-8.42h8.45Zm0,19.25h-8.45v-8.45h8.45Z"/><path class="cls-2" d="M1276.83,882.85h5.53l-19.89,50.75h-5.36Z"/><path class="cls-2" d="M1314.18,882.85h5.53l-19.89,50.75h-5.36Z"/><path class="cls-2" d="M1351.54,882.85h5.52l-19.89,50.75h-5.36Z"/><path class="cls-2" d="M1375.48,925.87a12.83,12.83,0,0,1-4.78-5.78,20.6,20.6,0,0,1-1.56-8.2,22.13,22.13,0,0,1,1.44-8.21,13.68,13.68,0,0,1,4.32-5.86,10.09,10.09,0,0,1,6.33-2.23q6.51,0,9.54,4.46a19.06,19.06,0,0,1,3,11v1.71h-19.5a15.19,15.19,0,0,0,2.37,8,7.4,7.4,0,0,0,6.61,3.31c2-.19,4.7-1.25,8.22-3.2l1.68,3.48q-3.65,3.64-10,3.65A13.66,13.66,0,0,1,1375.48,925.87ZM1388.92,909q-.57-9.46-6.62-9.46-6.85,0-7.83,9.46Z"/><path class="cls-2" d="M1417.71,900.47v14.45a23.83,23.83,0,0,0,.3,4.26,5.13,5.13,0,0,0,1.18,2.55,4.3,4.3,0,0,0,2.28,1.32,16.78,16.78,0,0,0,3.82.34h5.64l-.28,3.93h-5.16q-8,0-10.58-2.92-1.71-1.9-2.11-6.15a46.07,46.07,0,0,1-.19-4.63V900.47h-8.7l.56-3.93h8.14V885.93l5.1-1.51v12.12h13v3.93Z"/><path class="cls-2" d="M1466.82,925.3q-2.94,2.72-8.39,2.72a15,15,0,0,1-6.34-1.33,13.08,13.08,0,0,1-4.68-3.58,17.41,17.41,0,0,1-3.84-11.36,18,18,0,0,1,1.75-7.94,14.51,14.51,0,0,1,5.18-5.92,14.87,14.87,0,0,1,8.44-2.28q5,0,7.8,2.67l-1.29,3.42a12.81,12.81,0,0,0-7.3-2.16,8.17,8.17,0,0,0-6.74,3.48,14.06,14.06,0,0,0-2.68,8.85,13.84,13.84,0,0,0,2.68,8.8,8.31,8.31,0,0,0,6.84,3.42,12.41,12.41,0,0,0,7.34-2.24Z"/><path class="cls-2" d="M1501,882.85h5.53l-19.89,50.75h-5.36Z"/><path class="cls-2" d="M1531.77,928a10.07,10.07,0,0,1-5.28-1.38,9.4,9.4,0,0,1-3.5-3.53v16l-5.11.56V896.54H1523v4.24a10.8,10.8,0,0,1,3.59-3.74,9.27,9.27,0,0,1,5.08-1.43q7.59,0,10.8,6.29a20.78,20.78,0,0,1,2,9.48q0,8.79-4.24,13.36C1538.22,926.92,1535.4,928,1531.77,928Zm-8.84-16.27q0,12.35,8.64,12.34,7.77,0,7.77-12.34c0-4.57-.69-7.74-2.09-9.53a6.88,6.88,0,0,0-5.76-2.68q-7.18,0-8.31,8.31A27.11,27.11,0,0,0,1522.93,911.75Z"/><path class="cls-2" d="M1574.59,906.11q0-6.6-5.58-6.6a30.89,30.89,0,0,0-5.82.62,23.38,23.38,0,0,0-4.48,1.18l-1.21-3.76a34.67,34.67,0,0,1,10.92-1.94,13.29,13.29,0,0,1,8.19,2.33q3.09,2.34,3.09,7.18v22.2h-4.24l-.67-3.57a14.52,14.52,0,0,1-4.62,3,13.89,13.89,0,0,1-5.51,1.22,9.24,9.24,0,0,1-6.48-2.35,8.47,8.47,0,0,1-2.58-6.62,6.77,6.77,0,0,1,3.36-6.27,15,15,0,0,1,4.84-1.92c1.71-.34,4-.69,6.69-1l4.1-.48Zm0,14.33v-7.85l-4.18.59a34,34,0,0,0-6.06,1.23c-2.51,1-3.76,2.55-3.76,4.8a5,5,0,0,0,1.35,3.7,4.92,4.92,0,0,0,3.7,1.38A12.08,12.08,0,0,0,1574.59,920.44Z"/><path class="cls-2" d="M1614.93,913a9.16,9.16,0,0,1,1.84,6.16,7.86,7.86,0,0,1-3.07,6.47A12,12,0,0,1,1606,928a25,25,0,0,1-6.43-.83,13.6,13.6,0,0,1-4.6-2l1.26-3.67A16.63,16.63,0,0,0,1600,923a20,20,0,0,0,5.55.74,8.06,8.06,0,0,0,4.76-1.25,3.87,3.87,0,0,0,1.79-3.32,5.38,5.38,0,0,0-.89-3.27,5.86,5.86,0,0,0-3.41-1.81l-5.21-1.26q-4.53-1.12-6-3.27a9.17,9.17,0,0,1-1.49-5.35,8.36,8.36,0,0,1,2.6-5.89q2.6-2.68,7.56-2.75h.37a19.94,19.94,0,0,1,9.51,2.11l-1.13,3.59a21.06,21.06,0,0,0-8.3-1.74,7,7,0,0,0-4.28,1.3,3.93,3.93,0,0,0-1.67,3.22,4.33,4.33,0,0,0,.84,2.9,6.06,6.06,0,0,0,3.2,1.53l5.36,1.32A10.84,10.84,0,0,1,1614.93,913Z"/><path class="cls-2" d="M1652.29,913a9.21,9.21,0,0,1,1.83,6.16,7.86,7.86,0,0,1-3.07,6.47,12,12,0,0,1-7.7,2.44,25,25,0,0,1-6.43-.83,13.69,13.69,0,0,1-4.6-2l1.27-3.67a16.44,16.44,0,0,0,3.73,1.47,20,20,0,0,0,5.54.74,8.12,8.12,0,0,0,4.77-1.25,3.86,3.86,0,0,0,1.78-3.32,5.38,5.38,0,0,0-.88-3.27,5.9,5.9,0,0,0-3.41-1.81l-5.22-1.26q-4.51-1.12-6-3.27a9.1,9.1,0,0,1-1.49-5.35,8.35,8.35,0,0,1,2.59-5.89q2.6-2.68,7.56-2.75h.37a19.94,19.94,0,0,1,9.51,2.11l-1.12,3.59a21.07,21.07,0,0,0-8.31-1.74,7,7,0,0,0-4.28,1.3,3.92,3.92,0,0,0-1.66,3.22,4.33,4.33,0,0,0,.84,2.9,6,6,0,0,0,3.2,1.53l5.35,1.32A10.91,10.91,0,0,1,1652.29,913Z"/><path class="cls-2" d="M1674.73,927.32h-5.22l-6-30.78h5.14l3.67,23.76,5.14-23.76h6.09l5,23.68,3.23-23.68h4.82L1691,927.32h-5.39l-5.13-26.74Z"/><path class="cls-2" d="M1724.82,900.78V884l5.1-.56v43.91h-5.1v-4.77Q1721.7,928,1716,928q-6.51,0-9.47-4.66a21.43,21.43,0,0,1-3-11.7q0-8.48,4.32-12.9a10.76,10.76,0,0,1,8.14-3.15,10.13,10.13,0,0,1,5.65,1.43A8.17,8.17,0,0,1,1724.82,900.78Zm0,11q0-7.18-2.13-9.7a7.55,7.55,0,0,0-6.06-2.51q-5.45,0-7.05,5.39a25.28,25.28,0,0,0-.87,7.1q0,12.06,7.92,12.06Q1724.82,924.09,1724.82,911.75Z"/><path class="cls-2" d="M1753,882.76l-4.77,13.41h-4.12l3.25-13.41Zm10.18,0-4.79,13.41h-4.13l3.28-13.41Z"/><path class="cls-2" d="M1854,894.91v-4.66L1882.65,905v2.67l-28.79,13.63v-4.68l21.91-10.47Z"/><path class="cls-2" d="M1908.7,931a.18.18,0,0,1-.15.14h-14.44a.16.16,0,0,1-.14-.14v-3.7a.16.16,0,0,1,.14-.14h9.28V882.76h-9.26a.17.17,0,0,1-.14-.14v-3.7a.2.2,0,0,1,.14-.14h14.42a.2.2,0,0,1,.15.14Z"/><path class="cls-2" d="M1928.74,894.91v-4.66L1957.36,905v2.67l-28.79,13.63v-4.68l21.91-10.47Z"/><path class="cls-2" d="M83.44,993.36v5l-28.68-14V981l28.79-14.42v5l-22,11Z"/><path class="cls-2" d="M106.59,976.72q1.86-4.77,6.48-4.77,5.87,0,6.63,8.45c.09,1,.14,2.22.14,3.53v19.72h-4.69V984.52c0-3.69-.24-6-.73-6.86a3.31,3.31,0,0,0-1.33-1.56,3.79,3.79,0,0,0-1.33-.22c-1.65,0-2.82.91-3.51,2.75a18.46,18.46,0,0,0-.67,6v19.07h-4.3V984.88c0-4.13-.48-6.81-1.46-8a2.62,2.62,0,0,0-2.17-1,3.07,3.07,0,0,0-2.43,1.23,9.73,9.73,0,0,0-1.88,6.31v20.23H90.66V972.88h4.07l.31,4.06a10.16,10.16,0,0,1,2.24-3.54,4.81,4.81,0,0,1,3.58-1.45,5.46,5.46,0,0,1,3.64,1.26A6.6,6.6,0,0,1,106.59,976.72Z"/><path class="cls-2" d="M136.68,1002.21a12.83,12.83,0,0,1-4.78-5.78,20.62,20.62,0,0,1-1.56-8.21,22.07,22.07,0,0,1,1.44-8.2,13.71,13.71,0,0,1,4.32-5.87,10.15,10.15,0,0,1,6.33-2.23q6.51,0,9.54,4.46a19.08,19.08,0,0,1,3,11v1.71H135.5a15.19,15.19,0,0,0,2.37,8.06,7.42,7.42,0,0,0,6.61,3.31q2.94-.28,8.22-3.2l1.68,3.48q-3.65,3.64-10,3.64A13.65,13.65,0,0,1,136.68,1002.21Zm13.44-16.88q-.57-9.45-6.62-9.45-6.85,0-7.83,9.45Z"/><path class="cls-2" d="M178.92,976.8v14.45a24,24,0,0,0,.29,4.27,5.17,5.17,0,0,0,1.18,2.55,4.36,4.36,0,0,0,2.28,1.32,17.37,17.37,0,0,0,3.82.34h5.64l-.28,3.92h-5.16q-8,0-10.58-2.91c-1.14-1.28-1.84-3.32-2.11-6.15a46.07,46.07,0,0,1-.19-4.63V976.8h-8.7l.56-3.92h8.14V962.27l5.11-1.51v12.12h13v3.92Z"/><path class="cls-2" d="M229.2,985.08v18.57h-5.11V985.73q0-5.79-1.54-7.8a5.45,5.45,0,0,0-4.66-2,7.69,7.69,0,0,0-5.45,2.17,6.37,6.37,0,0,0-2.32,4.67v20.93H205V960.31l5.1-.56v16.86a11.53,11.53,0,0,1,9.63-4.66Q229.2,972,229.2,985.08Z"/><path class="cls-2" d="M264.53,976.44q3.35,4.48,3.34,11.73t-3.62,11.71a12,12,0,0,1-9.82,4.47,13.27,13.27,0,0,1-5.89-1.26,11,11,0,0,1-4.18-3.48q-3.23-4.46-3.22-11.61t3.56-11.6q3.56-4.46,10-4.45T264.53,976.44Zm-10.1,24q5.37,0,7.3-5.33a17.19,17.19,0,0,0,1-5.88,37.46,37.46,0,0,0-.23-4.7,12.37,12.37,0,0,0-2.42-6.23,6.85,6.85,0,0,0-5.69-2.41q-5.2,0-7.12,5.44a18.4,18.4,0,0,0-1,6.12,21.44,21.44,0,0,0,1.77,9.33C249.24,999.21,251.37,1000.43,254.43,1000.43Z"/><path class="cls-2" d="M299.25,977.11v-16.8l5.11-.56v43.9h-5.11v-4.77q-3.12,5.48-8.81,5.47-6.51,0-9.47-4.65a21.48,21.48,0,0,1-3-11.7q0-8.47,4.32-12.91a10.81,10.81,0,0,1,8.14-3.14,10.13,10.13,0,0,1,5.65,1.43A8.08,8.08,0,0,1,299.25,977.11Zm0,11q0-7.19-2.13-9.69a7.52,7.52,0,0,0-6.06-2.51q-5.44,0-7,5.38a25.32,25.32,0,0,0-.87,7.1q0,12.07,7.91,12.07Q299.25,1000.43,299.25,988.08Z"/><path class="cls-2" d="M343.62,964.63l-1.85,3.67a13,13,0,0,0-8.08-2.89,10.67,10.67,0,0,0-7.19,2.44Q321,972.61,321,982.67a25.37,25.37,0,0,0,1.43,8.75,14.27,14.27,0,0,0,4.25,6.24,9.94,9.94,0,0,0,6.58,2.35,13.2,13.2,0,0,0,8.61-3l1.83,3.95q-3.93,3.42-11.09,3.42a15,15,0,0,1-9-2.81,17.81,17.81,0,0,1-6-7.75,26.54,26.54,0,0,1-2.08-10.46,31.15,31.15,0,0,1,1.32-9.6,20.43,20.43,0,0,1,3.6-6.8,16.4,16.4,0,0,1,5.43-4.28,15.26,15.26,0,0,1,6.76-1.53Q339.55,961.12,343.62,964.63Z"/><path class="cls-2" d="M373.14,982.44q0-6.59-5.58-6.59a30.89,30.89,0,0,0-5.82.62,23.6,23.6,0,0,0-4.48,1.18l-1.2-3.76A34.61,34.61,0,0,1,367,972a13.25,13.25,0,0,1,8.19,2.33c2.06,1.55,3.09,4,3.09,7.18v22.19H374l-.67-3.56a14.34,14.34,0,0,1-4.62,3,13.68,13.68,0,0,1-5.51,1.22,9.28,9.28,0,0,1-6.48-2.34,8.49,8.49,0,0,1-2.58-6.62,6.75,6.75,0,0,1,3.37-6.27,14.56,14.56,0,0,1,4.84-1.92q2.56-.53,6.69-1l4.09-.47Zm0,14.34v-7.86l-4.18.59a34,34,0,0,0-6.06,1.24c-2.5,1-3.76,2.55-3.76,4.79a5.07,5.07,0,0,0,1.35,3.71,4.93,4.93,0,0,0,3.7,1.37A12.09,12.09,0,0,0,373.14,996.78Z"/><path class="cls-2" d="M415.83,1003.65h-4.07q-5.42,0-7.75-1.12a7,7,0,0,1-2.13-1.49q-2.07-2.16-2.16-9.54V963.67h-9.2v-3.92h14.31v31.5c0,3.72.34,6,1,6.85a3.79,3.79,0,0,0,2.57,1.44,25.09,25.09,0,0,0,3.14.19h4.52Z"/><path class="cls-2" d="M453.18,1003.65h-4.07q-5.42,0-7.74-1.12a6.81,6.81,0,0,1-2.13-1.49q-2.08-2.16-2.16-9.54V963.67h-9.21v-3.92h14.31v31.5c0,3.72.34,6,1,6.85a3.75,3.75,0,0,0,2.56,1.44,25.14,25.14,0,0,0,3.15.19h4.51Z"/><path class="cls-2" d="M465.82,971.25v-4.66l28.61,14.79V984l-28.78,13.64V993l21.91-10.46Z"/><path class="cls-2" d="M201.63,1069.69v5l-28.67-14v-3.31l28.79-14.42v5l-22,11Z"/><path class="cls-2" d="M224.79,1053.06q1.86-4.77,6.48-4.77,5.86,0,6.62,8.44c.1,1,.14,2.23.14,3.54V1080h-4.68v-19.13q0-5.53-.73-6.86a3.31,3.31,0,0,0-1.33-1.56,3.85,3.85,0,0,0-1.34-.23q-2.46,0-3.5,2.75a18.39,18.39,0,0,0-.68,6V1080h-4.29v-18.77c0-4.13-.48-6.82-1.46-8a2.6,2.6,0,0,0-2.17-1,3.05,3.05,0,0,0-2.43,1.24,9.71,9.71,0,0,0-1.88,6.31V1080h-4.68v-30.78h4.06l.31,4.07a10.32,10.32,0,0,1,2.25-3.55,4.82,4.82,0,0,1,3.57-1.44,5.47,5.47,0,0,1,3.65,1.26A6.6,6.6,0,0,1,224.79,1053.06Z"/><path class="cls-2" d="M254.88,1078.54a12.78,12.78,0,0,1-4.78-5.78,20.57,20.57,0,0,1-1.56-8.2,22.13,22.13,0,0,1,1.44-8.21,13.74,13.74,0,0,1,4.32-5.86,10.09,10.09,0,0,1,6.33-2.23q6.51,0,9.54,4.46a19.06,19.06,0,0,1,3,11v1.71H253.7a15.16,15.16,0,0,0,2.37,8,7.4,7.4,0,0,0,6.61,3.31q2.94-.27,8.22-3.2l1.68,3.48q-3.65,3.64-10,3.65A13.58,13.58,0,0,1,254.88,1078.54Zm13.44-16.87q-.57-9.45-6.62-9.46-6.85,0-7.83,9.46Z"/><path class="cls-2" d="M297.11,1053.14v14.45a23.75,23.75,0,0,0,.3,4.26,5.2,5.2,0,0,0,1.18,2.56,4.35,4.35,0,0,0,2.28,1.31,16.78,16.78,0,0,0,3.82.34h5.64l-.28,3.93h-5.16q-8,0-10.58-2.92-1.71-1.9-2.11-6.14c-.13-1.26-.19-2.8-.19-4.63v-13.16h-8.7l.56-3.93H292v-10.6l5.1-1.52v12.12h13v3.93Z"/><path class="cls-2" d="M347.4,1061.42V1080h-5.11v-17.93q0-5.77-1.54-7.8a5.48,5.48,0,0,0-4.66-2,7.7,7.7,0,0,0-5.45,2.18,6.37,6.37,0,0,0-2.32,4.67V1080h-5.1v-43.35l5.1-.56v16.86a11.55,11.55,0,0,1,9.63-4.65Q347.4,1048.29,347.4,1061.42Z"/><path class="cls-2" d="M382.73,1052.78q3.34,4.48,3.34,11.72t-3.62,11.72a12,12,0,0,1-9.82,4.47,13.27,13.27,0,0,1-5.89-1.26,11,11,0,0,1-4.18-3.48q-3.22-4.46-3.22-11.62t3.56-11.6q3.56-4.44,10-4.44T382.73,1052.78Zm-10.1,24q5.37,0,7.3-5.33a17.14,17.14,0,0,0,1-5.88,37.28,37.28,0,0,0-.23-4.69,12.33,12.33,0,0,0-2.42-6.23,6.84,6.84,0,0,0-5.69-2.42q-5.2,0-7.12,5.45a18.34,18.34,0,0,0-1,6.11,21.44,21.44,0,0,0,1.77,9.33C367.44,1075.54,369.57,1076.76,372.63,1076.76Z"/><path class="cls-2" d="M417.45,1053.45v-16.81l5.11-.56V1080h-5.11v-4.77q-3.1,5.47-8.81,5.47-6.51,0-9.47-4.66a21.43,21.43,0,0,1-3-11.7c0-5.64,1.44-9.95,4.32-12.9a10.77,10.77,0,0,1,8.14-3.14,10.05,10.05,0,0,1,5.65,1.43A8.08,8.08,0,0,1,417.45,1053.45Zm0,11q0-7.18-2.13-9.69a7.5,7.5,0,0,0-6.06-2.52q-5.44,0-7,5.39a25.28,25.28,0,0,0-.87,7.1q0,12.06,7.91,12.06Q417.45,1076.76,417.45,1064.42Z"/><path class="cls-2" d="M460.42,1080h-6.18l-15.09-33.84V1080h-4.77v-41.83h6l15.32,33.72v-33.72h4.69Z"/><path class="cls-2" d="M491.34,1058.78q0-6.6-5.58-6.59a30.82,30.82,0,0,0-5.82.61,24.4,24.4,0,0,0-4.48,1.18l-1.2-3.76a34.58,34.58,0,0,1,10.91-1.93,13.18,13.18,0,0,1,8.19,2.33q3.09,2.33,3.09,7.18V1080h-4.24l-.67-3.56a14.5,14.5,0,0,1-4.62,3,13.85,13.85,0,0,1-5.51,1.22,9.28,9.28,0,0,1-6.48-2.34,8.49,8.49,0,0,1-2.58-6.62,6.75,6.75,0,0,1,3.37-6.27,14.35,14.35,0,0,1,4.84-1.92q2.56-.52,6.69-1l4.09-.48Zm0,14.34v-7.86l-4.18.59a34.46,34.46,0,0,0-6.06,1.23c-2.5,1-3.76,2.56-3.76,4.8a5,5,0,0,0,1.35,3.7,4.93,4.93,0,0,0,3.7,1.38A12.09,12.09,0,0,0,491.34,1073.12Z"/><path class="cls-2" d="M523.62,1053.06q1.85-4.77,6.48-4.77,5.86,0,6.62,8.44c.09,1,.14,2.23.14,3.54V1080h-4.68v-19.13c0-3.69-.25-6-.73-6.86s-.93-1.41-1.34-1.56a3.75,3.75,0,0,0-1.33-.23c-1.65,0-2.81.92-3.51,2.75a18.75,18.75,0,0,0-.67,6V1080h-4.29v-18.77c0-4.13-.49-6.82-1.46-8a2.62,2.62,0,0,0-2.18-1,3,3,0,0,0-2.42,1.24,9.71,9.71,0,0,0-1.88,6.31V1080h-4.69v-30.78h4.07l.31,4.07a10.29,10.29,0,0,1,2.24-3.55,4.85,4.85,0,0,1,3.58-1.44,5.49,5.49,0,0,1,3.65,1.26A6.6,6.6,0,0,1,523.62,1053.06Z"/><path class="cls-2" d="M553.71,1078.54a12.8,12.8,0,0,1-4.79-5.78,20.57,20.57,0,0,1-1.55-8.2,22.13,22.13,0,0,1,1.44-8.21,13.58,13.58,0,0,1,4.32-5.86,10.09,10.09,0,0,1,6.33-2.23q6.51,0,9.54,4.46a19.06,19.06,0,0,1,3,11v1.71h-19.5a15.16,15.16,0,0,0,2.37,8,7.4,7.4,0,0,0,6.61,3.31q2.94-.27,8.22-3.2l1.68,3.48q-3.64,3.64-10,3.65A13.58,13.58,0,0,1,553.71,1078.54Zm13.43-16.87q-.55-9.45-6.62-9.46-6.84,0-7.82,9.46Z"/><path class="cls-2" d="M584,1047.58v-4.65l28.61,14.78v2.67L583.85,1074v-4.68l21.91-10.47Z"/><path class="cls-2" d="M650.55,1064c-2,4.71-3.7,7.82-5.13,9.34l3.45,4.49-3.65,2.8-2.89-4.07a14.56,14.56,0,0,1-4.7,3,15.17,15.17,0,0,1-5.79,1.14q-6,0-9.5-3.2t-3.49-9.09q0-7.94,7.8-13.13a23.8,23.8,0,0,1-4.86-8,9.5,9.5,0,0,1-.59-3.06,8,8,0,0,1,2.91-6.62,11.34,11.34,0,0,1,7.36-2.33,11.65,11.65,0,0,1,7.46,2.37,8.12,8.12,0,0,1,3,6.79,10.15,10.15,0,0,1-2.68,7.25,25.63,25.63,0,0,1-6.22,4.8l9.51,13a22.55,22.55,0,0,0,3.54-7.1Zm-18.07,12a8.24,8.24,0,0,0,3.82-.84,13.42,13.42,0,0,0,3.2-2.42l-10-13.66a11.07,11.07,0,0,0-4.83,9.17,7.67,7.67,0,0,0,2.06,5.71A7.78,7.78,0,0,0,632.48,1076Zm-1.68-23q5.48-3.06,5.47-8a6.09,6.09,0,0,0-1.26-4.11,4.2,4.2,0,0,0-3.31-1.44,5.26,5.26,0,0,0-3.51,1.23,3.93,3.93,0,0,0-1.46,3.12Q626.73,1047.51,630.8,1053Z"/><path class="cls-2" d="M658.72,1049.21h5.84l7.32,11.84,7.32-11.84h5.31l-9.46,14.93,9.79,15.85h-5.66l-7.52-12.26L663.83,1080h-5.61l10.1-15.71Z"/><path class="cls-2" d="M696.08,1049.21h5.83l7.33,11.84,7.32-11.84h5.3l-9.45,14.93L722.2,1080h-5.67L709,1067.73,701.18,1080h-5.61l10.1-15.71Z"/><path class="cls-2" d="M740.47,1078.54a12.84,12.84,0,0,1-4.78-5.78,20.57,20.57,0,0,1-1.56-8.2,21.92,21.92,0,0,1,1.45-8.21,13.58,13.58,0,0,1,4.32-5.86,10,10,0,0,1,6.32-2.23q6.51,0,9.54,4.46a19.06,19.06,0,0,1,3,11v1.71h-19.5a15.25,15.25,0,0,0,2.38,8,7.39,7.39,0,0,0,6.6,3.31q3-.27,8.22-3.2l1.69,3.48q-3.66,3.64-10,3.65A13.59,13.59,0,0,1,740.47,1078.54Zm13.44-16.87q-.55-9.45-6.62-9.46-6.84,0-7.83,9.46Z"/><path class="cls-2" d="M777.85,1088.77,780,1072h7.63l-4.72,16.8Zm10.33-32.29h-8.39V1048h8.39Z"/><path class="cls-2" d="M836.64,1069.69v5l-28.67-14v-3.31l28.78-14.42v5l-22,11Z"/><path class="cls-2" d="M865.94,1035.52h5.53l-19.89,50.75h-5.36Z"/><path class="cls-2" d="M897.15,1053.06q1.86-4.77,6.48-4.77,5.86,0,6.62,8.44c.1,1,.14,2.23.14,3.54V1080h-4.68v-19.13q0-5.53-.73-6.86a3.31,3.31,0,0,0-1.33-1.56,3.8,3.8,0,0,0-1.34-.23q-2.46,0-3.5,2.75a18.39,18.39,0,0,0-.68,6V1080h-4.29v-18.77c0-4.13-.48-6.82-1.46-8a2.6,2.6,0,0,0-2.17-1,3.06,3.06,0,0,0-2.43,1.24,9.71,9.71,0,0,0-1.88,6.31V1080h-4.68v-30.78h4.07l.3,4.07a10.32,10.32,0,0,1,2.25-3.55,4.82,4.82,0,0,1,3.58-1.44,5.46,5.46,0,0,1,3.64,1.26A6.6,6.6,0,0,1,897.15,1053.06Z"/><path class="cls-2" d="M927.24,1078.54a12.78,12.78,0,0,1-4.78-5.78,20.57,20.57,0,0,1-1.56-8.2,22.13,22.13,0,0,1,1.44-8.21,13.74,13.74,0,0,1,4.32-5.86,10.09,10.09,0,0,1,6.33-2.23q6.51,0,9.54,4.46a19.06,19.06,0,0,1,3,11v1.71h-19.5a15.16,15.16,0,0,0,2.37,8,7.4,7.4,0,0,0,6.61,3.31q2.94-.27,8.22-3.2l1.68,3.48q-3.65,3.64-10,3.65A13.58,13.58,0,0,1,927.24,1078.54Zm13.44-16.87q-.57-9.45-6.62-9.46-6.85,0-7.83,9.46Z"/><path class="cls-2" d="M969.47,1053.14v14.45a23.75,23.75,0,0,0,.3,4.26,5.2,5.2,0,0,0,1.18,2.56,4.35,4.35,0,0,0,2.28,1.31,16.78,16.78,0,0,0,3.82.34h5.64l-.28,3.93h-5.16q-7.95,0-10.58-2.92-1.71-1.9-2.11-6.14c-.13-1.26-.19-2.8-.19-4.63v-13.16h-8.7l.56-3.93h8.14v-10.6l5.1-1.52v12.12h13v3.93Z"/><path class="cls-2" d="M1019.76,1061.42V1080h-5.1v-17.93q0-5.77-1.55-7.8a5.47,5.47,0,0,0-4.65-2,7.7,7.7,0,0,0-5.46,2.18,6.4,6.4,0,0,0-2.32,4.67V1080h-5.1v-43.35l5.1-.56v16.86a11.56,11.56,0,0,1,9.63-4.65Q1019.76,1048.29,1019.76,1061.42Z"/><path class="cls-2" d="M1055.09,1052.78q3.35,4.48,3.34,11.72t-3.62,11.72a12,12,0,0,1-9.81,4.47,13.29,13.29,0,0,1-5.9-1.26,11,11,0,0,1-4.18-3.48q-3.23-4.46-3.22-11.62t3.56-11.6q3.56-4.44,10-4.44T1055.09,1052.78Zm-10.09,24q5.36,0,7.29-5.33a17.14,17.14,0,0,0,1-5.88,37.28,37.28,0,0,0-.23-4.69,12.33,12.33,0,0,0-2.42-6.23,6.83,6.83,0,0,0-5.68-2.42q-5.22,0-7.13,5.45a18.6,18.6,0,0,0-1,6.11,21.44,21.44,0,0,0,1.77,9.33C1039.8,1075.54,1041.93,1076.76,1045,1076.76Z"/><path class="cls-2" d="M1089.81,1053.45v-16.81l5.11-.56V1080h-5.11v-4.77q-3.11,5.47-8.81,5.47-6.51,0-9.47-4.66a21.43,21.43,0,0,1-3-11.7c0-5.64,1.44-9.95,4.32-12.9a10.77,10.77,0,0,1,8.14-3.14,10.05,10.05,0,0,1,5.65,1.43A8.08,8.08,0,0,1,1089.81,1053.45Zm0,11q0-7.18-2.13-9.69a7.5,7.5,0,0,0-6.06-2.52q-5.44,0-7,5.39a25.28,25.28,0,0,0-.87,7.1q0,12.06,7.91,12.06Q1089.81,1076.76,1089.81,1064.42Z"/><path class="cls-2" d="M1132.78,1080h-6.18l-15.09-33.84V1080h-4.77v-41.83h6l15.32,33.72v-33.72h4.69Z"/><path class="cls-2" d="M1163.7,1058.78q0-6.6-5.58-6.59a30.82,30.82,0,0,0-5.82.61,24.4,24.4,0,0,0-4.48,1.18l-1.2-3.76a34.58,34.58,0,0,1,10.91-1.93,13.18,13.18,0,0,1,8.19,2.33q3.09,2.33,3.09,7.18V1080h-4.24l-.67-3.56a14.45,14.45,0,0,1-4.61,3,13.9,13.9,0,0,1-5.52,1.22,9.28,9.28,0,0,1-6.48-2.34,8.49,8.49,0,0,1-2.58-6.62,6.75,6.75,0,0,1,3.37-6.27,14.43,14.43,0,0,1,4.84-1.92q2.57-.52,6.69-1l4.09-.48Zm0,14.34v-7.86l-4.18.59a34.46,34.46,0,0,0-6.06,1.23c-2.5,1-3.76,2.56-3.76,4.8a5,5,0,0,0,1.35,3.7,4.93,4.93,0,0,0,3.7,1.38A12.09,12.09,0,0,0,1163.7,1073.12Z"/><path class="cls-2" d="M1196,1053.06q1.85-4.77,6.48-4.77,5.86,0,6.62,8.44c.09,1,.14,2.23.14,3.54V1080h-4.68v-19.13c0-3.69-.25-6-.73-6.86s-.93-1.41-1.34-1.56a3.75,3.75,0,0,0-1.33-.23q-2.46,0-3.51,2.75a18.75,18.75,0,0,0-.67,6V1080h-4.29v-18.77c0-4.13-.49-6.82-1.46-8a2.6,2.6,0,0,0-2.17-1,3.05,3.05,0,0,0-2.43,1.24,9.71,9.71,0,0,0-1.88,6.31V1080H1180v-30.78h4.07l.31,4.07a10.17,10.17,0,0,1,2.25-3.55,4.82,4.82,0,0,1,3.57-1.44,5.49,5.49,0,0,1,3.65,1.26A6.6,6.6,0,0,1,1196,1053.06Z"/><path class="cls-2" d="M1226.07,1078.54a12.86,12.86,0,0,1-4.79-5.78,20.74,20.74,0,0,1-1.55-8.2,22.13,22.13,0,0,1,1.44-8.21,13.58,13.58,0,0,1,4.32-5.86,10.09,10.09,0,0,1,6.33-2.23q6.51,0,9.54,4.46a19.06,19.06,0,0,1,3,11v1.71h-19.5a15.16,15.16,0,0,0,2.37,8,7.4,7.4,0,0,0,6.61,3.31q2.94-.27,8.22-3.2l1.68,3.48q-3.64,3.64-10,3.65A13.58,13.58,0,0,1,1226.07,1078.54Zm13.43-16.87q-.55-9.45-6.62-9.46-6.84,0-7.82,9.46Z"/><path class="cls-2" d="M1256.38,1047.58v-4.65l28.62,14.78v2.67L1256.21,1074v-4.68l21.91-10.47Z"/><path class="cls-2" d="M83.44,1146v5l-28.68-14v-3.31l28.79-14.43v5l-22,11Z"/><path class="cls-2" d="M112.74,1111.86h5.52l-19.89,50.75H93Z"/><path class="cls-2" d="M144,1129.39q1.85-4.77,6.48-4.77,5.87,0,6.62,8.45c.09,1,.14,2.22.14,3.53v19.73H152.5v-19.14q0-5.52-.73-6.86a3.22,3.22,0,0,0-1.33-1.55,3.79,3.79,0,0,0-1.33-.23q-2.48,0-3.51,2.75a18.46,18.46,0,0,0-.67,6v19.08h-4.29v-18.77c0-4.14-.49-6.82-1.46-8.06a2.64,2.64,0,0,0-2.18-1,3,3,0,0,0-2.42,1.24,9.63,9.63,0,0,0-1.88,6.31v20.23H128v-30.78h4.07l.31,4.07a10.11,10.11,0,0,1,2.24-3.55,4.86,4.86,0,0,1,3.58-1.45,5.45,5.45,0,0,1,3.65,1.27A6.68,6.68,0,0,1,144,1129.39Z"/><path class="cls-2" d="M174,1154.88a12.89,12.89,0,0,1-4.78-5.78,20.6,20.6,0,0,1-1.56-8.2,21.92,21.92,0,0,1,1.45-8.21,13.52,13.52,0,0,1,4.32-5.86,10.07,10.07,0,0,1,6.33-2.23q6.5,0,9.53,4.46a19.06,19.06,0,0,1,3,11v1.71h-19.5a15.28,15.28,0,0,0,2.38,8,7.39,7.39,0,0,0,6.6,3.31c2-.19,4.71-1.25,8.22-3.2l1.69,3.48c-2.44,2.43-5.75,3.65-10,3.65A13.67,13.67,0,0,1,174,1154.88ZM187.47,1138q-.56-9.46-6.62-9.46-6.84,0-7.83,9.46Z"/><path class="cls-2" d="M216.27,1129.48v14.45a25,25,0,0,0,.29,4.26,5.13,5.13,0,0,0,1.18,2.55,4.29,4.29,0,0,0,2.29,1.32,16.62,16.62,0,0,0,3.81.34h5.64l-.28,3.93H224q-7.93,0-10.58-2.92-1.71-1.9-2.1-6.15a45.7,45.7,0,0,1-.2-4.63v-13.15h-8.7l.57-3.93h8.13v-10.61l5.11-1.51v12.12h13v3.93Z"/><path class="cls-2" d="M266.55,1137.75v18.58h-5.1V1138.4c0-3.85-.52-6.45-1.54-7.8a5.46,5.46,0,0,0-4.66-2,7.7,7.7,0,0,0-5.46,2.18,6.36,6.36,0,0,0-2.31,4.67v20.93h-5.11V1113l5.11-.56v16.86a11.54,11.54,0,0,1,9.62-4.66Q266.55,1124.62,266.55,1137.75Z"/><path class="cls-2" d="M301.89,1129.11c2.22,3,3.34,6.9,3.34,11.73s-1.21,8.73-3.62,11.71a12,12,0,0,1-9.82,4.48,13.11,13.11,0,0,1-5.89-1.27,11,11,0,0,1-4.18-3.47q-3.23-4.47-3.23-11.62t3.56-11.6q3.57-4.44,10-4.45T301.89,1129.11Zm-10.1,24q5.35,0,7.29-5.33a17.19,17.19,0,0,0,1-5.88,37.82,37.82,0,0,0-.22-4.7,12.47,12.47,0,0,0-2.43-6.23,6.85,6.85,0,0,0-5.68-2.41q-5.22,0-7.13,5.44a18.71,18.71,0,0,0-1,6.12,21.44,21.44,0,0,0,1.77,9.33Q287.19,1153.1,291.79,1153.1Z"/><path class="cls-2" d="M336.6,1129.79V1113l5.11-.56v43.91H336.6v-4.77q-3.11,5.46-8.81,5.47-6.5,0-9.46-4.66a21.35,21.35,0,0,1-3-11.7q0-8.48,4.32-12.9a10.76,10.76,0,0,1,8.13-3.15,10.17,10.17,0,0,1,5.66,1.43A8.14,8.14,0,0,1,336.6,1129.79Zm0,11q0-7.17-2.13-9.69a7.52,7.52,0,0,0-6.06-2.51q-5.45,0-7,5.39a25.28,25.28,0,0,0-.87,7.1q0,12.06,7.91,12.06Q336.6,1153.1,336.6,1140.75Z"/><path class="cls-2" d="M381,1117.3l-1.85,3.68a12.91,12.91,0,0,0-8.08-2.89,10.59,10.59,0,0,0-7.18,2.44q-5.57,4.74-5.56,14.81a25.33,25.33,0,0,0,1.43,8.75,14.45,14.45,0,0,0,4.25,6.25,10,10,0,0,0,6.58,2.34,13.22,13.22,0,0,0,8.62-3l1.82,3.95q-3.93,3.44-11.08,3.43a15.07,15.07,0,0,1-9.05-2.82,17.76,17.76,0,0,1-6-7.75A26.71,26.71,0,0,1,352.8,1136a31.08,31.08,0,0,1,1.32-9.59,20.22,20.22,0,0,1,3.61-6.81,16.2,16.2,0,0,1,5.43-4.28,15.2,15.2,0,0,1,6.76-1.53Q376.9,1113.79,381,1117.3Z"/><path class="cls-2" d="M410.5,1135.12q0-6.6-5.59-6.6a30.89,30.89,0,0,0-5.82.62,23.45,23.45,0,0,0-4.47,1.18l-1.21-3.76a34.61,34.61,0,0,1,10.91-1.94,13.3,13.3,0,0,1,8.2,2.33c2.05,1.55,3.08,4,3.08,7.18v22.2h-4.23l-.68-3.57a14.36,14.36,0,0,1-4.61,3,13.9,13.9,0,0,1-5.52,1.22,9.24,9.24,0,0,1-6.48-2.35,8.47,8.47,0,0,1-2.58-6.62,6.75,6.75,0,0,1,3.37-6.27,14.86,14.86,0,0,1,4.84-1.92c1.71-.34,3.94-.69,6.69-1l4.1-.48Zm0,14.33v-7.85l-4.18.59a34,34,0,0,0-6.06,1.23c-2.51,1-3.76,2.55-3.76,4.8a5.09,5.09,0,0,0,1.34,3.7,4.94,4.94,0,0,0,3.71,1.38A12.08,12.08,0,0,0,410.5,1149.45Z"/><path class="cls-2" d="M453.18,1156.33h-4.07q-5.42,0-7.74-1.13a7,7,0,0,1-2.13-1.48q-2.08-2.16-2.16-9.54v-27.83h-9.21v-3.93h14.31v31.51q0,5.58,1,6.84a3.8,3.8,0,0,0,2.56,1.45,27.2,27.2,0,0,0,3.15.18h4.51Z"/><path class="cls-2" d="M490.53,1156.33h-4.06c-3.61,0-6.2-.38-7.75-1.13a7,7,0,0,1-2.13-1.48q-2.07-2.16-2.16-9.54v-27.83h-9.2v-3.93h14.31v31.51q0,5.58,1,6.84a3.82,3.82,0,0,0,2.57,1.45,27,27,0,0,0,3.14.18h4.52Z"/><path class="cls-2" d="M503.17,1123.92v-4.66l28.62,14.79v2.67L503,1150.35v-4.68l21.91-10.47Z"/></svg>