<svg xmlns="http://www.w3.org/2000/svg" xmlns:xlink="http://www.w3.org/1999/xlink" viewBox="0 0 2050 1600"><defs><style>.cls-1{fill:none;}.cls-2{fill:#f5fcff;stroke:#000;stroke-miterlimit:10;stroke-width:4px;}.cls-3{fill:#e91c11;}.cls-4{fill:#ff8c00;}.cls-5{fill:#ffd300;}.cls-6{fill:#fff;}.cls-7{clip-path:url(#clip-path);}.cls-8{fill:#fff0e5;}.cls-9{fill:#008a27;}</style><clipPath id="clip-path"><rect class="cls-1" x="1096.38" y="556.5" width="823.03" height="920.63"/></clipPath></defs><g id="Frame"><rect class="cls-2" x="131" y="121" width="1788" height="1358" rx="32.12"/></g><g id="Layer_1" data-name="Layer 1"><path d="M246.66,248.53l-20.3-55.8H237l11.81,34.47q.69,1.78,3.16,10.47.15-.6,1.41-5c.84-2.93,1.38-4.72,1.64-5.38q.45-1.31,5.79-17.2t5.82-17.35h10.51l-20,55.8Z"/><path d="M312,245.23q-5,4.1-13.14,4.1t-13.12-4.08q-5-4.06-5-12V206.67h10v26.24q0,4.69,2,6.78c1.31,1.4,3.38,2.1,6.23,2.1s4.83-.7,6.11-2.08,1.92-3.65,1.92-6.8V206.67h10v26.62Q317,241.14,312,245.23Z"/><path d="M340.77,249.1a21.62,21.62,0,0,1-7.14-1,9.24,9.24,0,0,1-4.48-3.22,13.48,13.48,0,0,1-2.29-5.25,37.53,37.53,0,0,1-.64-7.58V191.25l10-.65v41.25c0,3.75.44,6.3,1.33,7.63s2.61,2,5.18,2a35.48,35.48,0,0,0,4.84-.42l.26,7.12-.93.2c-.6.12-1.17.23-1.72.32s-1.23.18-2.07.26A21.93,21.93,0,0,1,340.77,249.1Z"/><path d="M352.76,248.53V206.67h8l1.1,5.29q6.41-6.32,14.21-6.32c4.88,0,8.52,1.41,10.95,4.21s3.64,6.88,3.64,12.21v26.47h-10V223.28c0-3.38-.57-5.91-1.64-7.58s-3-2.52-5.75-2.52a11.09,11.09,0,0,0-5.92,1.66,10.09,10.09,0,0,0-3.9,4.17,41.48,41.48,0,0,0-.73,9.14v20.38Z"/><path d="M419.87,249.33q-10.1,0-15.71-5.81t-5.62-16.05q0-10,5.3-15.89t14.43-5.94q8.64,0,13.43,5.41t4.78,14.36c0,.43,0,1.13,0,2.09s0,1.68,0,2.14H408.6q.15,5.87,3.22,9.08t8.43,3.22a26.37,26.37,0,0,0,13.18-3.58l1.41,7.08A27.91,27.91,0,0,1,419.87,249.33Zm-11.08-26h18.28c0-3.4-.78-6-2.32-7.84a8,8,0,0,0-6.44-2.75,8.77,8.77,0,0,0-6.49,2.67Q409.17,218.1,408.79,223.35Z"/><path d="M444.63,248.53V206.67H453l1.29,6.4a13.23,13.23,0,0,1,11.92-6.59,19.28,19.28,0,0,1,2.67.15l-.15,8.34a21.71,21.71,0,0,0-3.17-.22c-3.68,0-6.43,1-8.24,2.93s-2.72,4.67-2.72,8.15v22.7Z"/><path d="M485.76,249.33a13.59,13.59,0,0,1-9.43-3.22q-3.6-3.23-3.6-9.27c0-4.35,1.43-7.56,4.27-9.66s7.13-3.42,12.87-4l2.55-.3c.92-.11,1.95-.21,3.09-.31s2-.19,2.7-.27v-2.2q0-3.81-1.75-5.55c-1.17-1.15-2.94-1.73-5.33-1.73q-5.1,0-12.61,2.86c0-.08-.44-1.23-1.25-3.47L476,208.8a40.39,40.39,0,0,1,16-3.16q8.44,0,12.3,3.68t3.84,11.9v27.31h-7.38l-.84-2.55c-.54-1.6-.8-2.45-.8-2.56A23.08,23.08,0,0,1,493,247.9,16.74,16.74,0,0,1,485.76,249.33Zm2.7-7.09a10.93,10.93,0,0,0,6-1.65,9.82,9.82,0,0,0,3.68-4v-8.08l-2,.16-2,.15c-4,.35-7,1.12-8.88,2.28a6.16,6.16,0,0,0-2.81,5.64,5.25,5.25,0,0,0,1.56,4.09A6.32,6.32,0,0,0,488.46,242.24Z"/><path d="M540.64,249.33a16,16,0,0,1-7.75-1.89,13.54,13.54,0,0,1-5-4.28l-1,5.33h-8.64V191.25l10-.65v13q0,3.76-.23,8.57a15.5,15.5,0,0,1,12.91-6.48,15,15,0,0,1,12.55,5.94q4.55,6,4.55,15.54,0,10-4.7,16.09A15.12,15.12,0,0,1,540.64,249.33Zm-2.4-7.58a8.3,8.3,0,0,0,7.12-3.77q2.67-3.78,2.67-10.7t-2.61-10.55a8.27,8.27,0,0,0-7.06-3.58q-10.14,0-10.25,13.67,0,7.69,2.55,11.31A8.68,8.68,0,0,0,538.24,241.75Z"/><path d="M580.78,249.1a21.62,21.62,0,0,1-7.14-1,9.26,9.26,0,0,1-4.47-3.22,13.34,13.34,0,0,1-2.29-5.25,37.53,37.53,0,0,1-.64-7.58V191.25l10-.65v41.25c0,3.75.45,6.3,1.34,7.63s2.61,2,5.18,2a35.23,35.23,0,0,0,4.83-.42l.27,7.12-.93.2c-.6.12-1.17.23-1.72.32s-1.24.18-2.07.26A22.11,22.11,0,0,1,580.78,249.1Z"/><path d="M611.9,249.33q-10.1,0-15.71-5.81t-5.62-16.05q0-10,5.3-15.89t14.43-5.94q8.64,0,13.43,5.41t4.78,14.36c0,.43,0,1.13,0,2.09s0,1.68,0,2.14H600.63q.15,5.87,3.21,9.08a11.1,11.1,0,0,0,8.44,3.22,26.37,26.37,0,0,0,13.18-3.58l1.41,7.08A27.91,27.91,0,0,1,611.9,249.33Zm-11.08-26H619.1c0-3.4-.78-6-2.32-7.84a8,8,0,0,0-6.44-2.75,8.8,8.8,0,0,0-6.5,2.67Q601.2,218.1,600.82,223.35Z"/><path d="M657.91,248.53V192.58h18.58a33.29,33.29,0,0,1,11.28,1.69,15.18,15.18,0,0,1,7.4,5.51,16,16,0,0,1,2.73,9.56,22.44,22.44,0,0,1-1,7.1,15.37,15.37,0,0,1-3.39,5.64,15.12,15.12,0,0,1-6.65,3.9,34.26,34.26,0,0,1-10.34,1.37q-5.18,0-8.41-.3v21.48Zm17.48-28.64a22.26,22.26,0,0,0,5.5-.61,11.22,11.22,0,0,0,3.66-1.56,7.31,7.31,0,0,0,2.09-2.37,8.88,8.88,0,0,0,1-2.72,15.54,15.54,0,0,0,.25-2.95,8.49,8.49,0,0,0-3-7q-3-2.4-8.38-2.4h-8.49v19.54Q668.53,219.89,675.39,219.89Z"/><path d="M714.85,249.33a13.59,13.59,0,0,1-9.43-3.22q-3.6-3.23-3.6-9.27c0-4.35,1.42-7.56,4.27-9.66s7.13-3.42,12.87-4l2.55-.3c.92-.11,1.94-.21,3.09-.31s2-.19,2.7-.27v-2.2q0-3.81-1.75-5.55a7.33,7.33,0,0,0-5.33-1.73q-5.12,0-12.61,2.86c0-.08-.44-1.23-1.26-3.47l-1.25-3.43a40.31,40.31,0,0,1,16-3.16q8.46,0,12.3,3.68t3.85,11.9v27.31h-7.39q0-.15-.84-2.55c-.53-1.6-.8-2.45-.8-2.56a23.21,23.21,0,0,1-6.11,4.48A16.74,16.74,0,0,1,714.85,249.33Zm2.7-7.09a11,11,0,0,0,6-1.65,9.73,9.73,0,0,0,3.67-4v-8.08l-2,.16-2,.15c-4,.35-7,1.12-8.88,2.28a6.14,6.14,0,0,0-2.82,5.64,5.25,5.25,0,0,0,1.56,4.09A6.36,6.36,0,0,0,717.55,242.24Z"/><path d="M747.33,248.53V206.67h8.38l1.3,6.4a13.22,13.22,0,0,1,11.92-6.59,19,19,0,0,1,2.66.15l-.15,8.34a21.57,21.57,0,0,0-3.16-.22c-3.68,0-6.43,1-8.25,2.93s-2.72,4.67-2.72,8.15v22.7Z"/><path d="M794.41,249.1a21.55,21.55,0,0,1-7.11-1,9.07,9.07,0,0,1-4.43-3.18,13.58,13.58,0,0,1-2.27-5.12,34.13,34.13,0,0,1-.66-7.3V212.73h-6.86l.38-5.41,7.16-.65,3.2-11.35,6.09,0v11.39h10.4v6.06h-10.4v20q0,4.77,1.37,6.78t5.07,2a31.16,31.16,0,0,0,4.65-.38l.26,7.16-.93.17c-.57.12-1.12.22-1.64.31s-1.18.17-2,.24S795.12,249.1,794.41,249.1Z"/><path d="M821.64,249.29q-9.25,0-14.82-3.16l1-7.5a31,31,0,0,0,6.4,2.45,26.69,26.69,0,0,0,7.08,1.09,9.16,9.16,0,0,0,5.16-1.24,4.17,4.17,0,0,0,1.89-3.64,4,4,0,0,0-1.73-3.43,33.3,33.3,0,0,0-6.61-3.12c-1.12-.4-1.84-.67-2.17-.8q-5.79-2.25-8.34-5a10.59,10.59,0,0,1-2.55-7.48,10.2,10.2,0,0,1,4.13-8.76q4.13-3,11.52-3.05a31.25,31.25,0,0,1,14,3l-2.47,6.9a27,27,0,0,0-11.39-2.79,9.22,9.22,0,0,0-4.7,1,3.35,3.35,0,0,0-1.7,3.07,3.46,3.46,0,0,0,1.64,3,35.66,35.66,0,0,0,6.4,2.84c.1,0,.43.13,1,.34s1,.37,1.29.49q5.76,2.1,8.46,5a10.74,10.74,0,0,1,2.7,7.6c0,4.19-1.45,7.43-4.26,9.71S826.82,249.29,821.64,249.29Z"/><path d="M867.34,248.53v-55.8h12.19L896.4,233l17-40.3h12v55.8H915.9V221l.31-15.8-1.41,4.19-14.28,35.38h-8.84l-14-35.57L876.29,205l.35,16.15v27.42Z"/><path d="M947.55,249.33a13.62,13.62,0,0,1-9.43-3.22q-3.58-3.23-3.59-9.27c0-4.35,1.42-7.56,4.26-9.66s7.14-3.42,12.87-4l2.56-.3c.91-.11,1.94-.21,3.08-.31s2.05-.19,2.71-.27v-2.2q0-3.81-1.76-5.55t-5.33-1.73q-5.1,0-12.6,2.86l-1.26-3.47c-.81-2.23-1.23-3.38-1.26-3.43a40.39,40.39,0,0,1,16-3.16q8.44,0,12.3,3.68t3.85,11.9v27.31h-7.39l-.84-2.55c-.53-1.6-.8-2.45-.8-2.56a23.21,23.21,0,0,1-6.11,4.48A16.78,16.78,0,0,1,947.55,249.33Zm2.71-7.09a10.9,10.9,0,0,0,6-1.65,9.76,9.76,0,0,0,3.68-4v-8.08l-2,.16-2,.15c-4,.35-7,1.12-8.87,2.28a6.14,6.14,0,0,0-2.82,5.64,5.25,5.25,0,0,0,1.56,4.09A6.34,6.34,0,0,0,950.26,242.24Z"/><path d="M980,248.53V191.25l10-.65v25.71l-.23,8.45.78-.76.82-.8c1.4-1.65,2.91-3.35,4.55-5.1s3.71-3.9,6.21-6.44,4.13-4.2,4.89-5h11.89l-17.22,17.83,18.32,24h-12.07l-13.79-19L990,232.8v15.73Z"/><path d="M1042.58,249.33q-10.1,0-15.71-5.81t-5.62-16.05q0-10,5.29-15.89t14.44-5.94q8.64,0,13.42,5.41t4.78,14.36c0,.43,0,1.13,0,2.09s0,1.68,0,2.14H1031.3q.15,5.87,3.22,9.08c2,2.15,4.86,3.22,8.44,3.22a26.31,26.31,0,0,0,13.17-3.58l1.41,7.08A27.9,27.9,0,0,1,1042.58,249.33Zm-11.09-26h18.28q0-5.1-2.32-7.84a8,8,0,0,0-6.44-2.75,8.78,8.78,0,0,0-6.49,2.67Q1031.88,218.1,1031.49,223.35Z"/><path d="M1082.72,248.53l20.53-55.84h11.23l20.23,55.84h-10.59l-5.52-15.77h-19.54l-5.56,15.77Zm18.93-23.46H1116q-6.85-22-7-22.7Z"/><path d="M1175.27,248.53l-20.3-55.8h10.62l11.81,34.47q.69,1.78,3.16,10.47.15-.6,1.41-5c.84-2.93,1.38-4.72,1.64-5.38q.45-1.31,5.79-17.2t5.82-17.35h10.52l-20,55.8Z"/><path d="M1240.62,245.23q-5,4.1-13.14,4.1t-13.12-4.08q-5-4.06-5-12V206.67h10v26.24q0,4.69,2,6.78c1.31,1.4,3.38,2.1,6.23,2.1s4.83-.7,6.11-2.08,1.92-3.65,1.92-6.8V206.67h10v26.62Q1245.61,241.14,1240.62,245.23Z"/><path d="M1269.38,249.1a21.62,21.62,0,0,1-7.14-1,9.24,9.24,0,0,1-4.48-3.22,13.32,13.32,0,0,1-2.28-5.25,36.73,36.73,0,0,1-.65-7.58V191.25l10-.65v41.25c0,3.75.44,6.3,1.33,7.63s2.62,2,5.18,2a35.48,35.48,0,0,0,4.84-.42l.26,7.12-.93.2c-.6.12-1.17.23-1.71.32s-1.24.18-2.08.26A21.93,21.93,0,0,1,1269.38,249.1Z"/><path d="M1281.37,248.53V206.67h8l1.11,5.29q6.39-6.32,14.2-6.32,7.32,0,11,4.21t3.64,12.21v26.47h-10V223.28q0-5.07-1.64-7.58t-5.75-2.52a11.09,11.09,0,0,0-5.92,1.66,10.09,10.09,0,0,0-3.9,4.17,41.48,41.48,0,0,0-.73,9.14v20.38Z"/><path d="M1348.48,249.33q-10.1,0-15.71-5.81t-5.62-16.05q0-10,5.3-15.89t14.43-5.94q8.65,0,13.43,5.41t4.78,14.36c0,.43,0,1.13,0,2.09s0,1.68,0,2.14h-27.84q.15,5.87,3.22,9.08t8.43,3.22a26.34,26.34,0,0,0,13.18-3.58l1.41,7.08A27.91,27.91,0,0,1,1348.48,249.33Zm-11.08-26h18.28q0-5.1-2.32-7.84a8,8,0,0,0-6.44-2.75,8.78,8.78,0,0,0-6.49,2.67Q1337.78,218.1,1337.4,223.35Z"/><path d="M1373.24,248.53V206.67h8.38l1.29,6.4a13.23,13.23,0,0,1,11.92-6.59,19.28,19.28,0,0,1,2.67.15l-.15,8.34a21.67,21.67,0,0,0-3.16-.22c-3.69,0-6.44,1-8.25,2.93s-2.72,4.67-2.72,8.15v22.7Z"/><path d="M1414.37,249.33a13.61,13.61,0,0,1-9.43-3.22q-3.59-3.23-3.59-9.27c0-4.35,1.42-7.56,4.26-9.66s7.14-3.42,12.87-4l2.56-.3c.91-.11,1.94-.21,3.08-.31s2-.19,2.7-.27v-2.2q0-3.81-1.75-5.55c-1.17-1.15-2.94-1.73-5.33-1.73q-5.1,0-12.61,2.86c0-.08-.44-1.23-1.25-3.47s-1.23-3.38-1.26-3.43a40.39,40.39,0,0,1,16-3.16q8.45,0,12.3,3.68t3.85,11.9v27.31h-7.39l-.84-2.55c-.53-1.6-.8-2.45-.8-2.56a23.21,23.21,0,0,1-6.11,4.48A16.81,16.81,0,0,1,1414.37,249.33Zm2.7-7.09a10.91,10.91,0,0,0,6-1.65,9.82,9.82,0,0,0,3.68-4v-8.08l-2,.16-2,.15c-4,.35-7,1.12-8.87,2.28a6.14,6.14,0,0,0-2.82,5.64,5.25,5.25,0,0,0,1.56,4.09A6.33,6.33,0,0,0,1417.07,242.24Z"/><path d="M1469.25,249.33a16,16,0,0,1-7.75-1.89,13.42,13.42,0,0,1-5-4.28l-1,5.33h-8.65V191.25l10-.65v13q0,3.76-.23,8.57a15.5,15.5,0,0,1,12.91-6.48,14.93,14.93,0,0,1,12.55,5.94q4.54,6,4.55,15.54,0,10-4.7,16.09A15.12,15.12,0,0,1,1469.25,249.33Zm-2.4-7.58A8.33,8.33,0,0,0,1474,238q2.65-3.78,2.66-10.7T1474,216.73a8.27,8.27,0,0,0-7.06-3.58q-10.14,0-10.25,13.67,0,7.69,2.55,11.31A8.69,8.69,0,0,0,1466.85,241.75Z"/><path d="M1509.4,249.1a21.73,21.73,0,0,1-7.15-1,9.26,9.26,0,0,1-4.47-3.22,13.48,13.48,0,0,1-2.29-5.25,37.53,37.53,0,0,1-.64-7.58V191.25l10-.65v41.25c0,3.75.45,6.3,1.34,7.63s2.61,2,5.18,2a35.23,35.23,0,0,0,4.83-.42l.27,7.12-.93.2c-.6.12-1.17.23-1.72.32s-1.23.18-2.07.26A21.93,21.93,0,0,1,1509.4,249.1Z"/><path d="M1540.51,249.33q-10.1,0-15.71-5.81t-5.62-16.05q0-10,5.3-15.89t14.43-5.94q8.65,0,13.43,5.41t4.78,14.36c0,.43,0,1.13,0,2.09s0,1.68,0,2.14h-27.84q.15,5.87,3.22,9.08t8.43,3.22a26.34,26.34,0,0,0,13.18-3.58l1.41,7.08A27.91,27.91,0,0,1,1540.51,249.33Zm-11.08-26h18.28q0-5.1-2.32-7.84a8,8,0,0,0-6.44-2.75,8.78,8.78,0,0,0-6.49,2.67Q1529.81,218.1,1529.43,223.35Z"/><path d="M1596.31,248.53l-15.16-55.8h10.28l10.82,43.42L1615,193h9.86l12.08,43.3,11-43.57h10.29l-15.62,55.8h-10.7L1620,207.66l-13.07,40.87Z"/><path d="M1664,248.53V191.25l10-.65v12.07q0,.89-.12,4.86c-.07,2.65-.11,4-.11,4.05q5-5.94,13.4-5.94,7,0,10.88,4t3.86,12.36v26.51h-10V223.12c0-3.42-.54-5.94-1.63-7.54s-3-2.4-5.56-2.4a10.57,10.57,0,0,0-5.94,1.7,10.72,10.72,0,0,0-3.89,4.36,37.3,37.3,0,0,0-.91,9.14v20.15Z"/><path d="M1729.65,249.33q-9.3,0-14.63-6t-5.33-15.84q0-10.14,5.33-16t15-5.85q9.36,0,14.68,6t5.31,15.87q0,10-5.37,15.93T1729.65,249.33Zm.26-7.58a8.64,8.64,0,0,0,7.62-3.7q2.55-3.69,2.55-10.58t-2.55-10.63c-1.7-2.44-4.27-3.66-7.69-3.66a8.71,8.71,0,0,0-7.64,3.68q-2.57,3.67-2.57,10.64t2.59,10.55A8.77,8.77,0,0,0,1729.91,241.75Z"/><path d="M1772.87,249.1a21.62,21.62,0,0,1-7.14-1,9.26,9.26,0,0,1-4.47-3.22,13.34,13.34,0,0,1-2.29-5.25,37.44,37.44,0,0,1-.65-7.58V191.25l10-.65v41.25c0,3.75.45,6.3,1.34,7.63s2.61,2,5.18,2a35.23,35.23,0,0,0,4.83-.42l.27,7.12-.93.2c-.6.12-1.17.23-1.72.32s-1.24.18-2.07.26A22.11,22.11,0,0,1,1772.87,249.1Z"/><path d="M1804,249.33q-10.1,0-15.71-5.81t-5.62-16.05q0-10,5.3-15.89t14.43-5.94q8.64,0,13.43,5.41t4.78,14.36c0,.43,0,1.13,0,2.09s0,1.68,0,2.14h-27.84q.15,5.87,3.21,9.08a11.1,11.1,0,0,0,8.44,3.22,26.37,26.37,0,0,0,13.18-3.58l1.41,7.08A27.91,27.91,0,0,1,1804,249.33Zm-11.08-26h18.28q0-5.1-2.33-7.84a8,8,0,0,0-6.43-2.75,8.8,8.8,0,0,0-6.5,2.67Q1793.29,218.1,1792.91,223.35Z"/><path class="cls-3" d="M374.3,495.31,466.91,772l114.23-38.23A159.43,159.43,0,0,1,883.52,632.56l114.23-38.24L905.14,317.63Z"/><path d="M465.65,774.53,371.77,494.05,906.4,315.1l93.88,280.48-118,39.51-.64-1.9C854,551,764.64,506.53,682.42,534.05S555.61,650.88,583,733.13l.63,1.9Zm-88.82-278,91.34,272.9,110.45-37c-26.81-83.82,18.85-174.24,102.53-202.25S855.72,547,884.77,630l110.45-37-91.34-272.9Z"/><rect class="cls-4" x="369.3" y="892.52" width="247.47" height="452.6" transform="translate(1611.86 625.79) rotate(90)"/><path d="M721.33,1244.56H264.73V993.09h456.6Zm-452.6-4h448.6V997.09H268.73Z"/><polygon class="cls-5" points="709.29 843.83 437.66 995.09 286.4 723.46 709.29 843.83"/><path d="M436.89,997.81l-1-1.75L282.31,720.22l4.64,1.32L714.48,843.23ZM290.5,726.71,438.44,992.37,704.1,844.43Z"/><circle class="cls-4" cx="852.77" cy="785.37" r="154.62"/><path d="M852.77,942c-86.36,0-156.62-70.26-156.62-156.62s70.26-156.62,156.62-156.62S1009.39,699,1009.39,785.37,939.13,942,852.77,942Zm0-309.24c-84.15,0-152.62,68.47-152.62,152.62S768.62,938,852.77,938s152.62-68.46,152.62-152.62S936.93,632.75,852.77,632.75Z"/><path class="cls-4" d="M367.25,1478.51c0-129.55,105-234.58,234.57-234.58s234.57,105,234.57,234.58Z"/><path d="M838.39,1480.51H365.25v-2a236.57,236.57,0,1,1,473.14,0Zm-469.13-4H834.39a232.57,232.57,0,0,0-465.13,0Z"/><path class="cls-5" d="M882.16,1357.86,1069.74,1043l-173-103L709.21,1254.8s-.45.75-.67,1.14c-3.84,6.44,31.77,34.73,79.53,63.19s89.59,46.3,93.43,39.86C881.73,1358.61,882.16,1357.86,882.16,1357.86Z"/><path d="M878,1362.3c-4.3,0-12.28-1.81-27.53-8.31-17.72-7.57-40.25-19.34-63.42-33.15s-44.25-28-59.34-40c-24.66-19.6-21.92-24.2-20.89-25.93l.67-1.13L896.1,937.25l1.71,1,174.68,104.08-1,1.72-187.57,314.8c-.06.09-.46.79-.67,1.15C882.73,1360.84,881.86,1362.3,878,1362.3Zm19.48-419.57L710.25,1257c-.35,1.1,2.67,7.13,20.76,21.39,14.9,11.74,35.52,25.61,58.08,39.06s44.58,25,62,32.49c21.15,9.12,27.89,8.91,28.7,8l.64-1.09v0L1067,1043.74Z"/><ellipse class="cls-5" cx="984.53" cy="989.41" rx="13.57" ry="100.67" transform="translate(-369.39 1328.74) rotate(-59.21)"/><path d="M1067.5,1044.25c-4.29,0-12.27-1.81-27.52-8.32-17.72-7.56-40.25-19.33-63.42-33.14s-44.25-28-59.34-40c-24.66-19.6-21.92-24.2-20.89-25.93s3.78-6.33,32.74,6c17.73,7.57,40.25,19.34,63.43,33.15s44.24,28,59.34,40c24.66,19.59,21.92,24.19,20.89,25.93C1072.24,1042.79,1071.36,1044.25,1067.5,1044.25ZM901.58,938.54a2.83,2.83,0,0,0-1.83.38c-.34,1.09,2.68,7.11,20.77,21.38C935.42,972,956,985.91,978.6,999.36s44.58,25,62,32.49c21,9.07,27.81,8.91,28.69,8.07.32-1.17-2.77-7.21-20.76-21.39-14.89-11.75-35.52-25.62-58.08-39.06s-44.58-25-62-32.49C912.55,940.12,904.79,938.54,901.58,938.54Z"/><path class="cls-6" d="M474.93,558.74q-9.15,2.93-16.23-.92t-10.2-13.63q-3.13-9.83.42-17T461.63,517q9.17-2.92,16.21.9T488,531.59q3.11,9.72-.43,17T474.93,558.74Zm-12.06-7.12q4.25,2.88,10.14,1t7.67-6.68q1.77-4.79-.46-11.79t-6.52-10q-4.24-2.94-10.11-1.07t-7.68,6.77q-1.77,4.89.48,11.94C457.88,546.41,460,549.7,462.87,551.62Z"/><path class="cls-6" d="M509.45,547.07l-21.84-26.54,7.69-2.46q.84,1.11,5.28,6.84t6,7.84c2,2.72,3.53,4.8,4.49,6.22,0,0,0-.67-.11-2s-.12-2.49-.16-3.62-.07-1.83-.07-2.07q0-.06.09-8.45c.06-5.59.11-8.85.15-9.8l7.63-2.45-1.79,34.1Z"/><path class="cls-6" d="M546.11,536q-7.33,2.35-12.77-.57t-7.81-10.36q-2.31-7.24.16-12.77t9.11-7.66q6.29-2,11,.81t6.81,9.32c.1.31.26.82.47,1.53s.38,1.22.48,1.55l-20.23,6.47a10.13,10.13,0,0,0,4.45,5.85,8.5,8.5,0,0,0,6.88.38,20.14,20.14,0,0,0,8.74-5.66l2.67,4.82A21.23,21.23,0,0,1,546.11,536ZM532,519.7l13.29-4.25a9,9,0,0,0-3.51-5.16,6.08,6.08,0,0,0-5.32-.5,6.75,6.75,0,0,0-4.1,3.45A9.23,9.23,0,0,0,532,519.7Z"/><path class="cls-6" d="M563.91,529.66l-9.72-30.41,6.09-1.94,2.43,4.34a10.08,10.08,0,0,1,7.13-7.55,12.81,12.81,0,0,1,2-.51l1.83,6.1a15.69,15.69,0,0,0-2.35.56q-4,1.29-5.31,4.05a8.74,8.74,0,0,0-.09,6.55l5.27,16.5Z"/><path class="cls-6" d="M594,520.69a10.34,10.34,0,0,1-7.59-.14c-2.24-1-3.83-3-4.77-5.91q-1.51-4.72.86-8t8.42-5.89l1.79-.81c.64-.29,1.36-.6,2.17-.94s1.44-.61,1.9-.82l-.51-1.6a5.7,5.7,0,0,0-2.56-3.62,5.54,5.54,0,0,0-4.28,0,28.11,28.11,0,0,0-8.5,5c0-.05-.6-.79-1.71-2.23l-1.71-2.2a30.73,30.73,0,0,1,10.89-6q6.14-2,9.79-.18t5.56,7.75l6.34,19.84-5.37,1.72c0-.07-.44-.62-1.2-1.66s-1.15-1.6-1.17-1.67a17.92,17.92,0,0,1-3.41,4.67A12.61,12.61,0,0,1,594,520.69Zm.32-5.77a8.3,8.3,0,0,0,4-2.61,7.37,7.37,0,0,0,1.74-3.77l-1.87-5.87-1.42.58c-.89.36-1.37.56-1.45.58a16,16,0,0,0-5.91,3.72,4.67,4.67,0,0,0-.74,4.75,4.07,4.07,0,0,0,2.08,2.62A4.85,4.85,0,0,0,594.3,514.92Z"/><path class="cls-6" d="M628.16,509.59a16.55,16.55,0,0,1-5.42.92,7,7,0,0,1-4-1.3,10,10,0,0,1-2.88-3.29,27.93,27.93,0,0,1-2.23-5.35l-9.47-29.64,7.1-2.79,9.58,30q1.3,4.09,2.74,5.24c.95.76,2.36.85,4.22.25a25.28,25.28,0,0,0,3.42-1.43l1.85,5.12s-.23.12-.63.35l-1.17.64c-.38.19-.86.41-1.45.67S628.68,509.42,628.16,509.59Z"/><path class="cls-6" d="M647.53,503.4a16.55,16.55,0,0,1-5.42.92,7.07,7.07,0,0,1-4-1.3,10.2,10.2,0,0,1-2.88-3.29,27.93,27.93,0,0,1-2.23-5.35l-9.47-29.64,7.1-2.79,9.58,30q1.31,4.09,2.74,5.24c.95.76,2.36.85,4.23.25a27.21,27.21,0,0,0,3.41-1.43l1.85,5.12s-.23.12-.63.35l-1.17.63c-.38.19-.86.42-1.45.68S648.05,503.23,647.53,503.4Z"/><path class="cls-6" d="M683.33,492.11a27,27,0,0,1-14.22.82L669,486.4a28.54,28.54,0,0,0,6.4.51,22.4,22.4,0,0,0,6.25-1,8.59,8.59,0,0,0,4.91-3.26,5.68,5.68,0,0,0,.41-5q-1.21-3.83-6.78-3.66L678,474c-1.21,0-2.35.05-3.41.05s-1.84,0-2.32,0q-9.07-.27-11.59-8.13a10.53,10.53,0,0,1,1.2-9.75q3-4.25,9.43-6.31a26.48,26.48,0,0,1,13.61-1l-.51,6.21a25.94,25.94,0,0,0-10.85.78,9.4,9.4,0,0,0-4.68,2.79,4.92,4.92,0,0,0-.56,4.5,4.46,4.46,0,0,0,4.75,3.33c.5,0,1.7,0,3.61,0h3.73c4.09,0,7.23.7,9.4,2s3.78,3.56,4.81,6.79q1.85,5.79-1.25,10.2T683.33,492.11Z"/><path class="cls-6" d="M718.24,481q-7.34,2.34-12.77-.57t-7.81-10.36q-2.31-7.24.16-12.77t9.11-7.67q6.29-2,11,.81t6.81,9.33c.1.31.26.82.47,1.52l.48,1.56-20.23,6.46a10.08,10.08,0,0,0,4.45,5.86,8.45,8.45,0,0,0,6.88.37,20,20,0,0,0,8.74-5.66l2.67,4.82A21.22,21.22,0,0,1,718.24,481Zm-14.09-16.3,13.29-4.24a9,9,0,0,0-3.52-5.16,6.07,6.07,0,0,0-5.31-.5,6.7,6.7,0,0,0-4.1,3.44A9.23,9.23,0,0,0,704.15,464.68Z"/><path class="cls-6" d="M749.51,471q-7,2.22-12.19-.68t-7.68-10.63q-2.4-7.47.37-12.9t9.44-7.56a17.59,17.59,0,0,1,9.75-.59l-.06,5.73a16,16,0,0,0-7.63.27,7.4,7.4,0,0,0-5,4.48q-1.27,3.31.34,8.34t4.56,7.08a7.41,7.41,0,0,0,6.76.77,14.76,14.76,0,0,0,6.91-4.8l2.45,5.29a14.21,14.21,0,0,1-3.37,3.09A20,20,0,0,1,749.51,471Z"/><path class="cls-6" d="M785.08,456.34q-2.67,4.13-8.59,6t-10.48.09c-3-1.2-5.17-3.72-6.39-7.53l-6.18-19.35,7.28-2.32,6.09,19.06c.72,2.27,1.73,3.76,3,4.47s2.94.74,5,.08,3.35-1.63,4-2.93.55-3.1-.18-5.38l-6.1-19.07,7.26-2.32,6.18,19.34Q787.75,452.2,785.08,456.34Z"/><path class="cls-6" d="M796.12,455.45,786.4,425l6.09-2,2.42,4.35a10.09,10.09,0,0,1,7.13-7.56,13.93,13.93,0,0,1,2-.5l1.82,6.09a17.81,17.81,0,0,0-2.35.57c-2.67.86-4.44,2.2-5.31,4a8.79,8.79,0,0,0-.08,6.55l5.27,16.49Z"/><path class="cls-6" d="M807.2,413.51l-2-6.2L812.5,405l2,6.2Zm11.14,34.84-9.72-30.41,7.25-2.32L825.59,446Z"/><path class="cls-6" d="M845.43,440.15a16.67,16.67,0,0,1-5.4.92,7,7,0,0,1-4-1.28,10.41,10.41,0,0,1-2.84-3.2,26.17,26.17,0,0,1-2.18-5.15l-4.59-14.36-5,1.59-1-4,5.06-2.14-.32-9,4.42-1.44,2.65,8.27,7.55-2.41,1.41,4.4-7.56,2.41,4.64,14.51c.73,2.3,1.59,3.84,2.57,4.6s2.36.87,4.15.29a22.9,22.9,0,0,0,3.29-1.35l1.85,5.14a6.78,6.78,0,0,0-.64.34c-.39.22-.76.42-1.12.6s-.82.4-1.39.65S845.94,440,845.43,440.15Z"/><path class="cls-6" d="M861.07,448.81a36.33,36.33,0,0,1-3.84,1l-2.15-5.51a32.72,32.72,0,0,0,3.28-.89,6.43,6.43,0,0,0,5.11-6.64c0-.21,0-1.37.1-3.48L841.8,407.33l7.75-2.48,15,19.51q-.17-3.58.07-13.51c.15-6.61.23-10.25.25-10.9l7.74-2.48q-1.95,37.47-2,37.78c-.22,3.84-1.09,6.8-2.61,8.91A13.32,13.32,0,0,1,861.07,448.81Z"/><path d="M726.07,779.8V746.39h9.67a28.18,28.18,0,0,1,7.84,1,16.68,16.68,0,0,1,6,3,13,13,0,0,1,3.83,5.2A18.86,18.86,0,0,1,754.7,763q0,8.1-4.87,12.46t-13.52,4.37Zm6.18-4.95h4.42q5.73,0,8.71-3t3-8.74q0-6.17-3.08-9t-9.28-2.8h-3.76Z"/><path d="M771.58,780.27q-6,0-9.41-3.47t-3.36-9.61q0-6,3.17-9.51a11.08,11.08,0,0,1,8.64-3.56,10.17,10.17,0,0,1,8,3.24,12.54,12.54,0,0,1,2.86,8.6c0,.25,0,.67,0,1.25s0,1,0,1.28H764.83a7.87,7.87,0,0,0,1.92,5.43,6.65,6.65,0,0,0,5.06,1.93,15.75,15.75,0,0,0,7.88-2.14l.85,4.24A16.72,16.72,0,0,1,771.58,780.27Zm-6.64-15.55h10.95A7.09,7.09,0,0,0,774.5,760a4.78,4.78,0,0,0-3.86-1.64,5.3,5.3,0,0,0-3.89,1.59A7.29,7.29,0,0,0,764.94,764.72Z"/><path d="M786.37,790.21V754.74h5.13l.64,3.51a8.53,8.53,0,0,1,3.27-3.07A9.58,9.58,0,0,1,800,754.1a9,9,0,0,1,5.42,1.71,10.51,10.51,0,0,1,3.54,4.66,17.39,17.39,0,0,1,1.21,6.67,15.12,15.12,0,0,1-2.81,9.47,9.12,9.12,0,0,1-7.63,3.66,9.65,9.65,0,0,1-4.3-.94,9.46,9.46,0,0,1-3.23-2.57c.13,2.19.19,3.42.19,3.7v9.46Zm12-14.5a4.85,4.85,0,0,0,4.21-2.23,11.24,11.24,0,0,0,1.54-6.38q0-4.23-1.55-6.34a5,5,0,0,0-4.31-2.12q-5.92,0-6,8.07c0,3.1.52,5.38,1.54,6.83A5.24,5.24,0,0,0,798.41,775.71Z"/><path d="M815,779.8V754.74h5l.77,3.83a7.92,7.92,0,0,1,7.14-4,11.32,11.32,0,0,1,1.6.1l-.1,5a12.72,12.72,0,0,0-1.89-.14,6.4,6.4,0,0,0-4.93,1.76,6.87,6.87,0,0,0-1.63,4.88V779.8Z"/><path d="M844.56,780.27q-6,0-9.41-3.47t-3.36-9.61q0-6,3.17-9.51a11.08,11.08,0,0,1,8.64-3.56,10.17,10.17,0,0,1,8,3.24,12.54,12.54,0,0,1,2.86,8.6c0,.25,0,.67,0,1.25s0,1,0,1.28H837.81a7.82,7.82,0,0,0,1.93,5.43,6.61,6.61,0,0,0,5,1.93,15.75,15.75,0,0,0,7.88-2.14l.85,4.24A16.72,16.72,0,0,1,844.56,780.27Zm-6.64-15.55h11a7.09,7.09,0,0,0-1.39-4.69,4.78,4.78,0,0,0-3.86-1.64,5.26,5.26,0,0,0-3.88,1.59A7.24,7.24,0,0,0,837.92,764.72Z"/><path d="M870.32,780.27q-5.75,0-9-3.42t-3.2-9.78q0-6.15,3.36-9.55a11.94,11.94,0,0,1,8.86-3.4,13.78,13.78,0,0,1,7.43,1.89l-1.41,4.27a12.57,12.57,0,0,0-5.77-1.62,5.81,5.81,0,0,0-4.78,2.17c-1.16,1.44-1.74,3.55-1.74,6.31s.57,4.93,1.72,6.39a5.86,5.86,0,0,0,4.87,2.18,11.54,11.54,0,0,0,6.31-1.93l.57,4.53a11.17,11.17,0,0,1-3.26,1.51A15.66,15.66,0,0,1,870.32,780.27Z"/><path d="M889,780.27a8.14,8.14,0,0,1-5.64-1.92,7.06,7.06,0,0,1-2.16-5.55A6.7,6.7,0,0,1,883.7,767c1.71-1.26,4.28-2,7.71-2.39l1.53-.18,1.84-.18,1.62-.16v-1.32a4.55,4.55,0,0,0-1-3.32,4.4,4.4,0,0,0-3.2-1,22,22,0,0,0-7.54,1.71s-.27-.74-.76-2.07-.73-2-.75-2.06a24.12,24.12,0,0,1,9.58-1.89c3.37,0,5.83.74,7.36,2.2s2.3,3.85,2.3,7.13V779.8h-4.42c0-.07-.18-.58-.5-1.53s-.48-1.47-.48-1.53a13.89,13.89,0,0,1-3.66,2.68A10,10,0,0,1,889,780.27Zm1.62-4.24a6.54,6.54,0,0,0,3.61-1,5.77,5.77,0,0,0,2.2-2.4V767.8l-1.2.09L894,768a12.63,12.63,0,0,0-5.31,1.37,3.7,3.7,0,0,0-1.69,3.38,3.17,3.17,0,0,0,.94,2.45A3.81,3.81,0,0,0,890.57,776Z"/><path d="M918.38,780.14a12.62,12.62,0,0,1-4.25-.61,5.46,5.46,0,0,1-2.66-1.9,8.17,8.17,0,0,1-1.35-3.07,19.92,19.92,0,0,1-.4-4.36V758.36h-4.11l.23-3.23,4.29-.39,1.91-6.8,3.65,0v6.82h6.23v3.62h-6.23v11.95a7.59,7.59,0,0,0,.82,4.06,3.43,3.43,0,0,0,3,1.21,18.71,18.71,0,0,0,2.79-.23l.16,4.29-.56.1-1,.18q-.47.08-1.2.15C919.26,780.11,918.81,780.14,918.38,780.14Z"/><path d="M938.06,780.27q-6,0-9.41-3.47t-3.36-9.61q0-6,3.17-9.51a11.08,11.08,0,0,1,8.64-3.56,10.17,10.17,0,0,1,8,3.24A12.54,12.54,0,0,1,948,766c0,.25,0,.67,0,1.25s0,1,0,1.28H931.31a7.82,7.82,0,0,0,1.93,5.43,6.61,6.61,0,0,0,5,1.93,15.82,15.82,0,0,0,7.89-2.14L947,778A16.72,16.72,0,0,1,938.06,780.27Zm-6.64-15.55h11A7.09,7.09,0,0,0,941,760a4.77,4.77,0,0,0-3.86-1.64,5.26,5.26,0,0,0-3.88,1.59A7.29,7.29,0,0,0,931.42,764.72Z"/><path d="M962.18,780.27a9.24,9.24,0,0,1-7.71-3.6q-2.81-3.6-2.8-9.62,0-5.84,2.79-9.38a9.25,9.25,0,0,1,7.7-3.55c3.55,0,6.07,1.26,7.54,3.79a43.06,43.06,0,0,1-.22-4.31v-8.09l6-.39V779.8h-5.18l-.66-3.42c-.26.41-.5.76-.72,1.06a8.39,8.39,0,0,1-1,1,5.92,5.92,0,0,1-1.38.94,9.54,9.54,0,0,1-1.87.61A10.84,10.84,0,0,1,962.18,780.27Zm1.41-4.53q6,0,6.11-8.19c0-3.08-.51-5.33-1.55-6.75a5.35,5.35,0,0,0-4.62-2.12,5.08,5.08,0,0,0-4.3,2.16q-1.61,2.14-1.61,6.35a10.66,10.66,0,0,0,1.61,6.36A5.12,5.12,0,0,0,963.59,775.74Z"/><path d="M761.45,835.83V802.34h11.13a19.83,19.83,0,0,1,6.75,1,9.07,9.07,0,0,1,4.43,3.29,9.58,9.58,0,0,1,1.63,5.73,13.54,13.54,0,0,1-.61,4.25,8.69,8.69,0,0,1-6,5.71,20.36,20.36,0,0,1-6.19.82q-3.11,0-5-.18v12.86Zm10.47-17.15a13.29,13.29,0,0,0,3.29-.36,6.62,6.62,0,0,0,2.19-.94,4.22,4.22,0,0,0,1.25-1.41,5.32,5.32,0,0,0,.62-1.63,9.5,9.5,0,0,0,.15-1.77,5,5,0,0,0-1.78-4.19,7.8,7.8,0,0,0-5-1.44h-5.08v11.7C767.72,818.67,769.18,818.68,771.92,818.68Z"/><path d="M795.54,836.31a8.14,8.14,0,0,1-5.64-1.93,7.06,7.06,0,0,1-2.16-5.55,6.7,6.7,0,0,1,2.55-5.78q2.57-1.89,7.71-2.38c.47-.07,1-.13,1.53-.19l1.84-.18c.69-.06,1.23-.11,1.62-.16v-1.32a4.51,4.51,0,0,0-1-3.32,4.36,4.36,0,0,0-3.19-1,22,22,0,0,0-7.54,1.71s-.27-.73-.76-2.07-.73-2-.75-2.05a24.12,24.12,0,0,1,9.58-1.89c3.37,0,5.83.73,7.36,2.2s2.3,3.84,2.3,7.12v16.35h-4.42c0-.06-.18-.57-.5-1.53s-.48-1.47-.48-1.53a14,14,0,0,1-3.66,2.68A10,10,0,0,1,795.54,836.31Zm1.62-4.24a6.54,6.54,0,0,0,3.61-1,5.77,5.77,0,0,0,2.2-2.4v-4.83l-1.2.09-1.22.09a12.65,12.65,0,0,0-5.31,1.36,3.7,3.7,0,0,0-1.69,3.38,3.17,3.17,0,0,0,.94,2.45A3.81,3.81,0,0,0,797.16,832.07Z"/><path d="M825.93,836.31q-5.74,0-8.95-3.42t-3.2-9.78q0-6.17,3.36-9.56a11.93,11.93,0,0,1,8.86-3.39,13.78,13.78,0,0,1,7.43,1.89L832,816.31a12.57,12.57,0,0,0-5.77-1.62,5.81,5.81,0,0,0-4.78,2.17c-1.16,1.44-1.74,3.55-1.74,6.31s.57,4.93,1.72,6.39a5.84,5.84,0,0,0,4.87,2.19,11.56,11.56,0,0,0,6.31-1.94l.57,4.53a10.68,10.68,0,0,1-3.26,1.51A15.63,15.63,0,0,1,825.93,836.31Z"/><path d="M837.94,835.83V801.54l6-.39v15.39l-.14,5.06.47-.46.49-.47c.83-1,1.74-2,2.72-3.06s2.22-2.33,3.72-3.85,2.47-2.52,2.93-3h7.11l-10.3,10.67,11,14.39h-7.22l-8.26-11.38-2.48,2v9.42Z"/><path d="M871.3,836.31a8.16,8.16,0,0,1-5.64-1.93,7.06,7.06,0,0,1-2.16-5.55,6.71,6.71,0,0,1,2.56-5.78q2.55-1.89,7.7-2.38c.47-.07,1-.13,1.53-.19l1.85-.18c.68-.06,1.22-.11,1.62-.16v-1.32a4.51,4.51,0,0,0-1-3.32,4.39,4.39,0,0,0-3.19-1,22,22,0,0,0-7.55,1.71s-.27-.73-.75-2.07-.74-2-.76-2.05a24.16,24.16,0,0,1,9.58-1.89c3.37,0,5.83.73,7.36,2.2s2.31,3.84,2.31,7.12v16.35h-4.43c0-.06-.18-.57-.5-1.53s-.48-1.47-.48-1.53a13.73,13.73,0,0,1-3.66,2.68A10,10,0,0,1,871.3,836.31Zm1.62-4.24a6.52,6.52,0,0,0,3.61-1,5.77,5.77,0,0,0,2.2-2.4v-4.83l-1.19.09-1.22.09a12.66,12.66,0,0,0-5.32,1.36,3.69,3.69,0,0,0-1.68,3.38,3.17,3.17,0,0,0,.93,2.45A3.83,3.83,0,0,0,872.92,832.07Z"/><path d="M895.74,847.05l-.34-4.84h3q5.27,0,7.37-1.4t2.09-5.14c0-1,0-2.12-.13-3.31a11.45,11.45,0,0,1-1.13,1.36,8.24,8.24,0,0,1-1.35,1.06,6.11,6.11,0,0,1-1.94.79,11.59,11.59,0,0,1-2.56.26,10.49,10.49,0,0,1-8.17-3.58A13.33,13.33,0,0,1,889.4,823a16.19,16.19,0,0,1,.89-5.48,11.47,11.47,0,0,1,2.42-4.07,10.57,10.57,0,0,1,7.77-3.3q5,0,7.5,3.67l.42-3.06h5.33v23.28a28.15,28.15,0,0,1-.18,3.36,15,15,0,0,1-.64,2.87,8.49,8.49,0,0,1-1.2,2.41,8.67,8.67,0,0,1-1.86,1.87,9.76,9.76,0,0,1-2.63,1.38,18.09,18.09,0,0,1-3.52.82,32.3,32.3,0,0,1-4.52.29Zm6-15.39q6.18,0,6.24-8.28v-.87a9.65,9.65,0,0,0-1.55-5.74,5.19,5.19,0,0,0-4.4-2.06,5.84,5.84,0,0,0-5,2.25,9.89,9.89,0,0,0-1.68,6,10.69,10.69,0,0,0,1.69,6.16A5.37,5.37,0,0,0,901.74,831.66Z"/><path d="M931.19,836.31q-6,0-9.4-3.48t-3.36-9.61q0-6,3.17-9.51a11.08,11.08,0,0,1,8.64-3.55c3.45,0,6.13,1.07,8,3.23a12.52,12.52,0,0,1,2.87,8.6c0,.26,0,.67,0,1.25s0,1,0,1.28H924.45a7.91,7.91,0,0,0,1.92,5.44,6.67,6.67,0,0,0,5,1.92,15.76,15.76,0,0,0,7.89-2.14l.84,4.24A16.68,16.68,0,0,1,931.19,836.31Zm-6.63-15.55H935.5a7,7,0,0,0-1.39-4.7,4.78,4.78,0,0,0-3.85-1.64,5.3,5.3,0,0,0-3.89,1.59A7.3,7.3,0,0,0,924.56,820.76Z"/><path d="M522.67,1362.57l-.13-4.89L533,1345.84a17.5,17.5,0,0,0,2.84-3.83,8,8,0,0,0,.89-3.7,4.38,4.38,0,0,0-1.4-3.42,5.25,5.25,0,0,0-3.68-1.28,11.56,11.56,0,0,0-4.15.78,10.68,10.68,0,0,0-3.36,2l-1.69-4.48q3.39-3,9.54-3a12,12,0,0,1,7.85,2.45,8.48,8.48,0,0,1,3,6.93,11.74,11.74,0,0,1-1.68,6,31.88,31.88,0,0,1-4.6,5.9l-7.46,7.91h13.36l-.41,4.46Z"/><path d="M567.93,1362.57v-13.14l-11.46-20h6.64l7.89,14.33,7.93-14.33h6.56l-11.42,19.87v13.25Z"/><path d="M597.62,1363q-6,0-9.32-3.45t-3.33-9.52q0-5.92,3.14-9.43a11,11,0,0,1,8.57-3.52,10.06,10.06,0,0,1,8,3.21,12.39,12.39,0,0,1,2.84,8.52c0,.25,0,.67,0,1.24s0,1,0,1.27H590.93a7.84,7.84,0,0,0,1.91,5.39,6.62,6.62,0,0,0,5,1.91,15.63,15.63,0,0,0,7.82-2.13l.84,4.21A16.64,16.64,0,0,1,597.62,1363Zm-6.57-15.41H601.9a7,7,0,0,0-1.38-4.66,4.72,4.72,0,0,0-3.82-1.63,5.26,5.26,0,0,0-3.86,1.58A7.25,7.25,0,0,0,591.05,1347.63Z"/><path d="M618.76,1363a8.11,8.11,0,0,1-5.6-1.91,7,7,0,0,1-2.13-5.5,6.63,6.63,0,0,1,2.53-5.73c1.69-1.25,4.23-2,7.64-2.36l1.51-.19,1.84-.18,1.6-.15v-1.32a4.47,4.47,0,0,0-1-3.28,4.31,4.31,0,0,0-3.16-1,21.88,21.88,0,0,0-7.49,1.69s-.26-.73-.74-2-.73-2-.75-2a23.93,23.93,0,0,1,9.5-1.87c3.34,0,5.77.72,7.3,2.18s2.28,3.81,2.28,7.06v16.21h-4.39c0-.06-.18-.57-.49-1.52s-.48-1.45-.48-1.51a13.8,13.8,0,0,1-3.62,2.65A9.89,9.89,0,0,1,618.76,1363Zm1.6-4.2a6.45,6.45,0,0,0,3.59-1,5.8,5.8,0,0,0,2.18-2.38v-4.79l-1.19.09-1.21.09a12.41,12.41,0,0,0-5.26,1.35,3.65,3.65,0,0,0-1.68,3.35,3.14,3.14,0,0,0,.93,2.43A3.81,3.81,0,0,0,620.36,1358.84Z"/><path d="M638,1362.57v-24.84h5l.77,3.79a7.87,7.87,0,0,1,7.08-3.91,11.32,11.32,0,0,1,1.58.09l-.09,5a12.81,12.81,0,0,0-1.88-.13,6.35,6.35,0,0,0-4.89,1.74,6.81,6.81,0,0,0-1.62,4.83v13.48Z"/><path d="M664,1363a17.82,17.82,0,0,1-8.8-1.88l.62-4.45a18.45,18.45,0,0,0,3.79,1.46,15.74,15.74,0,0,0,4.21.64,5.45,5.45,0,0,0,3.06-.73,2.5,2.5,0,0,0,1.12-2.16,2.38,2.38,0,0,0-1-2A19.79,19.79,0,0,0,663,1352l-1.29-.47a13.19,13.19,0,0,1-5-3,6.28,6.28,0,0,1-1.52-4.44,6.07,6.07,0,0,1,2.46-5.2,11.34,11.34,0,0,1,6.83-1.8,18.56,18.56,0,0,1,8.35,1.78l-1.47,4.09a16.06,16.06,0,0,0-6.76-1.65,5.45,5.45,0,0,0-2.79.6,2,2,0,0,0-1,1.82,2,2,0,0,0,1,1.8,21.13,21.13,0,0,0,3.8,1.68c.06,0,.26.08.59.21s.59.21.77.29a12.76,12.76,0,0,1,5,3,6.37,6.37,0,0,1,1.61,4.51,7.06,7.06,0,0,1-2.53,5.76Q668.59,1363,664,1363Z"/><path d="M495.23,1418.59q-7.47,0-11.81-4.53t-4.33-12.51q0-8,4.34-12.52t11.83-4.5c5,0,8.92,1.5,11.79,4.51s4.32,7.18,4.32,12.53-1.44,9.45-4.34,12.48S500.21,1418.59,495.23,1418.59Zm-7.25-8.14c1.64,2.1,4.07,3.14,7.28,3.14s5.63-1,7.26-3.13,2.46-5,2.46-8.84-.82-6.85-2.46-9-4-3.18-7.24-3.18-5.64,1.06-7.29,3.19-2.48,5.12-2.48,9S486.34,1408.36,488,1410.45Z"/><path d="M534.54,1416.16a13.72,13.72,0,0,1-15.58,0q-3-2.42-3-7.1v-15.8H522v15.58a5.8,5.8,0,0,0,1.16,4,4.86,4.86,0,0,0,3.7,1.24,4.74,4.74,0,0,0,3.63-1.23,5.83,5.83,0,0,0,1.14-4v-15.58h5.92v15.8Q537.5,1413.74,534.54,1416.16Z"/><path d="M552.83,1418.45a13,13,0,0,1-4.22-.59A5.42,5.42,0,0,1,546,1416a8,8,0,0,1-1.35-3,20.33,20.33,0,0,1-.39-4.33v-11.73h-4.07l.22-3.21,4.25-.39,1.9-6.73,3.62,0v6.75h6.17v3.6h-6.17v11.84a7.48,7.48,0,0,0,.81,4,3.42,3.42,0,0,0,3,1.19,18.26,18.26,0,0,0,2.76-.22l.15,4.25-.55.1-1,.18c-.31,0-.71.1-1.19.15S553.25,1418.45,552.83,1418.45Z"/><path d="M584,1418.59a11,11,0,0,1-8.68-3.57,13.65,13.65,0,0,1-3.16-9.4q0-6,3.16-9.49t8.93-3.47a11.07,11.07,0,0,1,8.71,3.54,13.65,13.65,0,0,1,3.16,9.42q0,5.94-3.19,9.46T584,1418.59Zm.16-4.5a5.14,5.14,0,0,0,4.52-2.19,13.88,13.88,0,0,0,0-12.59,5.85,5.85,0,0,0-9.1,0,13.73,13.73,0,0,0,0,12.58A5.23,5.23,0,0,0,584.11,1414.09Z"/><path d="M602.49,1418.12v-20.91h-3.94l.39-3.48,3.55-.46v-1.37a15.51,15.51,0,0,1,.41-3.87,7.12,7.12,0,0,1,1.37-2.75,5.61,5.61,0,0,1,2.54-1.69,12.09,12.09,0,0,1,3.93-.55,26.26,26.26,0,0,1,4.61.42l-.52,4.41a24.61,24.61,0,0,0-2.92-.25,3.42,3.42,0,0,0-2.7.92,4.56,4.56,0,0,0-.8,3v1.69h5.83v3.94h-5.83v20.91Z"/><path d="M630.9,1418.12V1385h9.58a27.8,27.8,0,0,1,7.78,1,16.64,16.64,0,0,1,5.91,3,12.93,12.93,0,0,1,3.79,5.15,18.81,18.81,0,0,1,1.33,7.29q0,8-4.84,12.36c-3.23,2.88-7.69,4.33-13.41,4.33Zm6.12-4.91h4.39q5.67,0,8.63-3c2-2,3-4.87,3-8.67,0-4.07-1-7-3-8.87s-5.1-2.77-9.2-2.77H637Z"/><path d="M671.08,1418.59a8.08,8.08,0,0,1-5.59-1.91,7,7,0,0,1-2.14-5.5,6.64,6.64,0,0,1,2.54-5.73c1.68-1.25,4.23-2,7.64-2.37l1.51-.18,1.83-.18c.68-.06,1.21-.11,1.61-.16v-1.31a4.51,4.51,0,0,0-1-3.29,4.38,4.38,0,0,0-3.17-1,21.84,21.84,0,0,0-7.48,1.69s-.26-.73-.75-2.06l-.74-2a23.89,23.89,0,0,1,9.49-1.88q5,0,7.3,2.19t2.28,7.06v16.21H680c0-.06-.18-.57-.5-1.52s-.47-1.45-.47-1.51a14,14,0,0,1-3.63,2.65A9.86,9.86,0,0,1,671.08,1418.59Zm1.61-4.2a6.44,6.44,0,0,0,3.58-1,5.67,5.67,0,0,0,2.18-2.38v-4.79l-1.18.09-1.21.09a12.41,12.41,0,0,0-5.27,1.35,3.66,3.66,0,0,0-1.67,3.35,3.17,3.17,0,0,0,.92,2.43A3.82,3.82,0,0,0,672.69,1414.39Z"/><path d="M700.26,1418.45a13,13,0,0,1-4.21-.59,5.42,5.42,0,0,1-2.63-1.89,7.88,7.88,0,0,1-1.35-3,20.33,20.33,0,0,1-.39-4.33v-11.73h-4.07l.22-3.21,4.25-.39,1.9-6.73,3.62,0v6.75h6.17v3.6H697.6v11.84a7.48,7.48,0,0,0,.81,4,3.41,3.41,0,0,0,3,1.19,18.13,18.13,0,0,0,2.75-.22l.16,4.25-.55.1-1,.18c-.31,0-.71.1-1.19.15S700.69,1418.45,700.26,1418.45Z"/><path d="M719.77,1418.59q-6,0-9.32-3.45t-3.34-9.52q0-5.92,3.15-9.43a11,11,0,0,1,8.56-3.53,10.08,10.08,0,0,1,8,3.21,12.41,12.41,0,0,1,2.84,8.53c0,.25,0,.67,0,1.24s0,1,0,1.26H713.08a7.87,7.87,0,0,0,1.91,5.4,6.59,6.59,0,0,0,5,1.91,15.63,15.63,0,0,0,7.82-2.13l.83,4.2A16.5,16.5,0,0,1,719.77,1418.59Zm-6.58-15.42H724a7,7,0,0,0-1.38-4.65,4.72,4.72,0,0,0-3.82-1.63,5.24,5.24,0,0,0-3.85,1.58A7.17,7.17,0,0,0,713.19,1403.17Z"/><path d="M307.68,1106.17v-35.24h7.69L326,1096.38l10.72-25.45h7.6v35.24h-6v-17.41l.19-10-.89,2.65-9,22.34H323l-8.82-22.46-.89-2.65.21,10.2v17.32Z"/><path d="M351.5,1075.89v-5.39h6.32v5.39Zm0,30.28v-26.43h6.3v26.43Z"/><path d="M372.81,1106.65a18.9,18.9,0,0,1-9.36-2l.65-4.73a20,20,0,0,0,4,1.55,17.06,17.06,0,0,0,4.47.68,5.82,5.82,0,0,0,3.26-.78,2.63,2.63,0,0,0,1.19-2.3,2.53,2.53,0,0,0-1.09-2.16,20,20,0,0,0-4.18-2l-1.37-.51a14.06,14.06,0,0,1-5.26-3.16,6.67,6.67,0,0,1-1.61-4.73,6.47,6.47,0,0,1,2.6-5.53,12.09,12.09,0,0,1,7.28-1.92,19.68,19.68,0,0,1,8.88,1.9l-1.57,4.35a17.06,17.06,0,0,0-7.19-1.75,5.86,5.86,0,0,0-3,.63,2.12,2.12,0,0,0-1.07,1.94,2.18,2.18,0,0,0,1,1.91,21.86,21.86,0,0,0,4,1.79l.63.22.82.31a13.6,13.6,0,0,1,5.34,3.16,6.77,6.77,0,0,1,1.7,4.8,7.47,7.47,0,0,1-2.69,6.13Q377.71,1106.66,372.81,1106.65Z"/><path d="M396.49,1106.65a18.89,18.89,0,0,1-9.35-2l.65-4.73a20,20,0,0,0,4,1.55,17,17,0,0,0,4.47.68,5.82,5.82,0,0,0,3.26-.78,2.63,2.63,0,0,0,1.19-2.3,2.53,2.53,0,0,0-1.09-2.16,20,20,0,0,0-4.18-2l-1.37-.51a14.06,14.06,0,0,1-5.26-3.16,6.67,6.67,0,0,1-1.61-4.73,6.47,6.47,0,0,1,2.6-5.53,12.09,12.09,0,0,1,7.28-1.92A19.63,19.63,0,0,1,406,1081l-1.56,4.35a17.06,17.06,0,0,0-7.19-1.75,5.86,5.86,0,0,0-3,.63,2.12,2.12,0,0,0-1.07,1.94,2.16,2.16,0,0,0,1,1.91,21.86,21.86,0,0,0,4,1.79l.63.22.82.31a13.6,13.6,0,0,1,5.34,3.16,6.82,6.82,0,0,1,1.7,4.8,7.47,7.47,0,0,1-2.69,6.13C402.29,1105.93,399.77,1106.65,396.49,1106.65Z"/><path d="M411.89,1075.89v-5.39h6.32v5.39Zm0,30.28v-26.43h6.3v26.43Z"/><path d="M424.75,1106.17v-26.43h5.08l.7,3.34a12.5,12.5,0,0,1,9-4c3.07,0,5.38.88,6.91,2.66s2.3,4.34,2.3,7.7v16.72h-6.33v-16a9.15,9.15,0,0,0-1-4.78,4,4,0,0,0-3.63-1.59,7,7,0,0,0-3.74,1.05,6.28,6.28,0,0,0-2.47,2.63,26.76,26.76,0,0,0-.46,5.77v12.87Z"/><path d="M460.2,1118l-.36-5.1H463q5.55,0,7.77-1.48T473,1106c0-1.07,0-2.24-.14-3.49a12,12,0,0,1-1.19,1.43,8.68,8.68,0,0,1-1.42,1.12,6.25,6.25,0,0,1-2,.83,11.61,11.61,0,0,1-2.7.28,11,11,0,0,1-8.62-3.78,14,14,0,0,1-3.38-9.74,16.89,16.89,0,0,1,.94-5.78,12,12,0,0,1,2.54-4.3,11.22,11.22,0,0,1,8.21-3.48q5.31,0,7.91,3.87l.43-3.22h5.63v24.55a31.31,31.31,0,0,1-.19,3.55,15.88,15.88,0,0,1-.68,3,9.27,9.27,0,0,1-1.26,2.54,9.14,9.14,0,0,1-2,2,10.15,10.15,0,0,1-2.78,1.45,19,19,0,0,1-3.71.87,34.21,34.21,0,0,1-4.77.3Zm6.33-16.23q6.51,0,6.59-8.73v-.92a10.23,10.23,0,0,0-1.64-6.06,5.44,5.44,0,0,0-4.64-2.16,6.13,6.13,0,0,0-5.24,2.37,10.35,10.35,0,0,0-1.78,6.38,11.3,11.3,0,0,0,1.79,6.5A5.65,5.65,0,0,0,466.53,1101.77Z"/><path d="M508.88,1106.65a22.25,22.25,0,0,1-11.42-2.94l1.58-5.17a23.41,23.41,0,0,0,4.92,2,18.34,18.34,0,0,0,5.19.77,7.1,7.1,0,0,0,4.68-1.33,4.73,4.73,0,0,0,1.59-3.84q0-3.32-4.42-4.59l-1.76-.52c-1-.28-1.86-.55-2.7-.82s-1.45-.46-1.82-.61q-7.1-2.5-7.1-9.33a8.73,8.73,0,0,1,3.41-7.38c2.27-1.74,5.28-2.6,9-2.6a21.88,21.88,0,0,1,11,2.62l-2,4.76a21.5,21.5,0,0,0-8.76-2.11,7.76,7.76,0,0,0-4.39,1,4,4,0,0,0-1.57,3.4,3.7,3.7,0,0,0,2.91,3.83c.38.14,1.33.45,2.84.93l2.93.94c3.22,1.06,5.53,2.37,6.92,4a9.61,9.61,0,0,1,2.08,6.56,9.13,9.13,0,0,1-3.56,7.73Q514.91,1106.66,508.88,1106.65Z"/><path d="M539.21,1106.67q-6.37,0-9.92-3.66t-3.55-10.14q0-6.3,3.34-10a11.67,11.67,0,0,1,9.12-3.75c3.64,0,6.46,1.14,8.48,3.41a13.21,13.21,0,0,1,3,9.07c0,.27,0,.71,0,1.32s0,1.06,0,1.35H532.09a8.27,8.27,0,0,0,2,5.73,7,7,0,0,0,5.33,2,16.74,16.74,0,0,0,8.32-2.26l.89,4.47A17.59,17.59,0,0,1,539.21,1106.67Zm-7-16.4h11.54a7.48,7.48,0,0,0-1.46-5,5,5,0,0,0-4.07-1.73,5.57,5.57,0,0,0-4.1,1.68A7.66,7.66,0,0,0,532.21,1090.27Z"/><path d="M566.38,1106.67q-6.06,0-9.44-3.6t-3.37-10.32q0-6.49,3.54-10.08a12.57,12.57,0,0,1,9.35-3.58,14.56,14.56,0,0,1,7.84,2l-1.49,4.5a13.25,13.25,0,0,0-6.09-1.71,6.11,6.11,0,0,0-5,2.29c-1.22,1.52-1.84,3.74-1.84,6.66s.61,5.19,1.82,6.73a6.15,6.15,0,0,0,5.13,2.31,12.26,12.26,0,0,0,6.67-2l.6,4.78a11.73,11.73,0,0,1-3.44,1.59A16.45,16.45,0,0,1,566.38,1106.67Z"/><path d="M598.13,1104.09a14.63,14.63,0,0,1-16.58,0c-2.09-1.72-3.14-4.23-3.14-7.55v-16.81h6.33v16.57a6.17,6.17,0,0,0,1.23,4.28,5.18,5.18,0,0,0,3.93,1.32,5.07,5.07,0,0,0,3.87-1.31,6.25,6.25,0,0,0,1.21-4.29v-16.57h6.3v16.81Q601.28,1101.5,598.13,1104.09Z"/><path d="M607.05,1106.17v-26.43h5.29l.82,4a8.34,8.34,0,0,1,7.53-4.16,12.63,12.63,0,0,1,1.68.09l-.09,5.27a13,13,0,0,0-2-.14,6.77,6.77,0,0,0-5.21,1.85,7.29,7.29,0,0,0-1.72,5.14v14.34Z"/><path d="M626.37,1075.89v-5.39h6.32v5.39Zm0,30.28v-26.43h6.3v26.43Z"/><path d="M649.79,1106.53a13.32,13.32,0,0,1-4.48-.64,5.74,5.74,0,0,1-2.81-2,8.57,8.57,0,0,1-1.43-3.23,21.38,21.38,0,0,1-.42-4.61v-12.48h-4.33l.24-3.41,4.52-.41,2-7.17,3.85,0v7.19h6.57v3.82H647v12.6a7.87,7.87,0,0,0,.87,4.28,3.6,3.6,0,0,0,3.2,1.28,19.36,19.36,0,0,0,2.93-.24l.17,4.52-.59.11-1,.19c-.33.06-.75.11-1.27.16S650.24,1106.53,649.79,1106.53Z"/><path d="M659.94,1117.3a29.12,29.12,0,0,1-3.27-.19l-.31-4.88a26.77,26.77,0,0,0,2.81.12,5.32,5.32,0,0,0,5.7-3.95c.06-.16.38-1.06,1-2.71l-10.63-26h6.74l6.95,19.17q.76-2.87,3.45-10.64c1.79-5.17,2.77-8,2.94-8.53H682q-11,29.05-11.09,29.29a13.76,13.76,0,0,1-4.3,6.36A11,11,0,0,1,659.94,1117.3Z"/><path d="M387.27,1165.27v-35.33H399a21.14,21.14,0,0,1,7.12,1.07,9.63,9.63,0,0,1,4.67,3.48,10.08,10.08,0,0,1,1.72,6,14,14,0,0,1-.65,4.48,9.43,9.43,0,0,1-2.14,3.56,9.57,9.57,0,0,1-4.19,2.47,21.85,21.85,0,0,1-6.53.86c-2.18,0-3.95-.06-5.32-.19v13.56Zm11-18.08a13.66,13.66,0,0,0,3.47-.39,6.76,6.76,0,0,0,2.31-1,4.52,4.52,0,0,0,1.33-1.49,6.32,6.32,0,0,0,.65-1.72,10.65,10.65,0,0,0,.15-1.87,5.34,5.34,0,0,0-1.87-4.42,8.23,8.23,0,0,0-5.29-1.52h-5.37v12.34C393.88,1147.17,395.42,1147.19,398.31,1147.19Z"/><path d="M423.23,1165.78a8.63,8.63,0,0,1-6-2,7.48,7.48,0,0,1-2.27-5.86,7.1,7.1,0,0,1,2.69-6.1q2.7-2,8.13-2.51l1.61-.19c.58-.07,1.23-.13,1.95-.19l1.71-.17v-1.4a4.76,4.76,0,0,0-1.11-3.5,4.59,4.59,0,0,0-3.36-1.09,23.25,23.25,0,0,0-8,1.8s-.28-.78-.8-2.19-.78-2.13-.79-2.16a25.43,25.43,0,0,1,10.1-2c3.56,0,6.15.78,7.77,2.32s2.43,4.06,2.43,7.52v17.24H432.7c0-.06-.19-.6-.53-1.61s-.5-1.54-.5-1.61a14.91,14.91,0,0,1-3.86,2.83A10.6,10.6,0,0,1,423.23,1165.78Zm1.7-4.48a6.84,6.84,0,0,0,3.81-1,6.12,6.12,0,0,0,2.33-2.54v-5.1l-1.27.1-1.28.1a13.13,13.13,0,0,0-5.61,1.44,3.89,3.89,0,0,0-1.78,3.56,3.31,3.31,0,0,0,1,2.58A4,4,0,0,0,424.93,1161.3Z"/><path d="M455.28,1165.78q-6.06,0-9.43-3.61t-3.38-10.32q0-6.49,3.54-10.07a12.58,12.58,0,0,1,9.35-3.59,14.54,14.54,0,0,1,7.84,2l-1.49,4.5a13.25,13.25,0,0,0-6.09-1.71,6.13,6.13,0,0,0-5,2.28c-1.22,1.53-1.84,3.75-1.84,6.67s.61,5.19,1.82,6.73a6.15,6.15,0,0,0,5.13,2.31,12.19,12.19,0,0,0,6.67-2l.6,4.79a11.73,11.73,0,0,1-3.44,1.59A16.45,16.45,0,0,1,455.28,1165.78Z"/><path d="M468,1165.27V1129.1l6.3-.41v16.24l-.14,5.34s.18-.18.49-.48l.52-.51c.88-1,1.84-2.12,2.87-3.22s2.34-2.46,3.92-4.07,2.61-2.65,3.09-3.15h7.5l-10.87,11.26,11.57,15.17h-7.62l-8.71-12-2.62,2.07v9.93Z"/><path d="M503.14,1165.78a8.62,8.62,0,0,1-5.95-2,7.48,7.48,0,0,1-2.27-5.86,7.1,7.1,0,0,1,2.69-6.1q2.7-2,8.13-2.51l1.61-.19c.58-.07,1.23-.13,1.95-.19l1.71-.17v-1.4a4.76,4.76,0,0,0-1.11-3.5,4.61,4.61,0,0,0-3.36-1.09,23.35,23.35,0,0,0-8,1.8s-.28-.78-.79-2.19-.78-2.13-.79-2.16a25.43,25.43,0,0,1,10.1-2c3.56,0,6.15.78,7.77,2.32s2.43,4.06,2.43,7.52v17.24h-4.67c0-.06-.19-.6-.53-1.61a16.58,16.58,0,0,1-.5-1.61,14.91,14.91,0,0,1-3.86,2.83A10.61,10.61,0,0,1,503.14,1165.78Zm1.71-4.48a6.84,6.84,0,0,0,3.81-1,6.12,6.12,0,0,0,2.33-2.54v-5.1l-1.27.1-1.28.1a13.13,13.13,0,0,0-5.61,1.44,3.89,3.89,0,0,0-1.78,3.56,3.31,3.31,0,0,0,1,2.58A4,4,0,0,0,504.85,1161.3Z"/><path d="M528.93,1177.11l-.36-5.1h3.2c3.7,0,6.29-.5,7.76-1.48s2.22-2.8,2.22-5.42c0-1.08,0-2.24-.15-3.49a11.83,11.83,0,0,1-1.19,1.43,8.68,8.68,0,0,1-1.42,1.12,6.51,6.51,0,0,1-2,.83,12.37,12.37,0,0,1-2.71.27,11.07,11.07,0,0,1-8.62-3.77,14.08,14.08,0,0,1-3.38-9.74,16.91,16.91,0,0,1,.94-5.79,11.77,11.77,0,0,1,2.55-4.29,11.14,11.14,0,0,1,8.2-3.49q5.31,0,7.91,3.88l.44-3.23h5.62v24.56a29.37,29.37,0,0,1-.19,3.55,15.87,15.87,0,0,1-.67,3,8.87,8.87,0,0,1-3.23,4.5,10.1,10.1,0,0,1-2.77,1.46,20,20,0,0,1-3.72.87,34.16,34.16,0,0,1-4.76.3Zm6.32-16.24q6.53,0,6.59-8.73v-.91a10.28,10.28,0,0,0-1.63-6.06,5.49,5.49,0,0,0-4.64-2.17,6.16,6.16,0,0,0-5.25,2.37,10.44,10.44,0,0,0-1.78,6.39,11.27,11.27,0,0,0,1.79,6.49A5.66,5.66,0,0,0,535.25,1160.87Z"/><path d="M566.32,1165.78q-6.36,0-9.92-3.67T552.86,1152q0-6.3,3.34-10a11.73,11.73,0,0,1,9.12-3.75c3.63,0,6.46,1.14,8.47,3.42a13.19,13.19,0,0,1,3,9.06c0,.28,0,.72,0,1.33s0,1.06,0,1.34H559.21a8.3,8.3,0,0,0,2,5.74,7,7,0,0,0,5.33,2,16.64,16.64,0,0,0,8.32-2.26l.89,4.48A17.69,17.69,0,0,1,566.32,1165.78Zm-7-16.4h11.54a7.47,7.47,0,0,0-1.47-5,5,5,0,0,0-4.06-1.73,5.55,5.55,0,0,0-4.1,1.68A7.63,7.63,0,0,0,559.33,1149.38Z"/><path d="M590.38,1165.76a18.9,18.9,0,0,1-9.36-2l.65-4.74a19.43,19.43,0,0,0,4,1.55,16.69,16.69,0,0,0,4.47.69,5.82,5.82,0,0,0,3.26-.78,2.64,2.64,0,0,0,1.19-2.3,2.53,2.53,0,0,0-1.09-2.17,21.11,21.11,0,0,0-4.18-2l-1.37-.5a14.06,14.06,0,0,1-5.26-3.17,6.64,6.64,0,0,1-1.61-4.72,6.44,6.44,0,0,1,2.61-5.53c1.73-1.29,4.16-1.93,7.27-1.93a19.81,19.81,0,0,1,8.88,1.9l-1.57,4.36a17.08,17.08,0,0,0-7.19-1.76,5.75,5.75,0,0,0-3,.64,2.1,2.1,0,0,0-1.07,1.93,2.2,2.2,0,0,0,1,1.92,23.35,23.35,0,0,0,4,1.79c.07,0,.28.09.63.21l.82.32a13.48,13.48,0,0,1,5.34,3.16,6.78,6.78,0,0,1,1.71,4.8,7.52,7.52,0,0,1-2.7,6.13C596.17,1165,593.65,1165.76,590.38,1165.76Z"/><path d="M814,1300.35l-22.87-28,3.48-5.88,35.48,6.69-3.27,5.54-10-2-6,10.22,6.53,7.79Zm-6.42-17.17,4.43-7.49q-13.62-3.21-14.06-3.34Z"/><path d="M838.94,1259.05a9.76,9.76,0,0,1-3.39,3.48,8.19,8.19,0,0,1-3.81,1.31l2.49,2.17-2.68,4.53-30-17.72,2.75-5.42,6.78,4c1.31.77,2.78,1.7,4.41,2.77a9.43,9.43,0,0,1,.61-8.76,9.07,9.07,0,0,1,7-4.73,15,15,0,0,1,9.54,2.42q5.24,3.09,7,7.44A9.2,9.2,0,0,1,838.94,1259.05Zm-4.71-1.08a5.1,5.1,0,0,0,.23-4.9,11.19,11.19,0,0,0-4.78-4.71q-3.64-2.16-6.33-1.9a5.07,5.07,0,0,0-4.06,2.59q-3.13,5.31,4,9.6,4,2.38,6.72,2.16A5.27,5.27,0,0,0,834.23,1258Z"/><path d="M850.19,1240a8.27,8.27,0,0,1-4.6,3.93,7.14,7.14,0,0,1-6-1c-2.27-1.35-3.52-3.09-3.73-5.22s.41-4.8,1.9-8c.19-.45.4-.92.63-1.43s.49-1.08.79-1.71.53-1.13.7-1.5l-1.16-.68a4.57,4.57,0,0,0-3.44-.8,4.45,4.45,0,0,0-2.56,2.25,22.55,22.55,0,0,0-2.4,7.49l-2.21-.42-2.18-.4a24.36,24.36,0,0,1,3.3-9.35q2.61-4.43,5.73-5.3c2.07-.59,4.55,0,7.42,1.66l14.29,8.46-2.28,3.86-1.6-.35c-1-.21-1.53-.34-1.58-.37a14.2,14.2,0,0,1,.45,4.59A10.25,10.25,0,0,1,850.19,1240Zm-2.87-3.61a6.66,6.66,0,0,0,1-3.67,5.88,5.88,0,0,0-1-3.17l-4.22-2.5s-.2.4-.54,1.09l-.55,1.12a12.71,12.71,0,0,0-1.55,5.35,3.73,3.73,0,0,0,2.08,3.22,3.19,3.19,0,0,0,2.62.45A3.89,3.89,0,0,0,847.32,1236.41Z"/><path d="M859.81,1222.78l-21.91-13,2.49-4.21,3.11,1.06a12.07,12.07,0,0,1,1.09-9.39q2.26-3.82,5.59-4.43t7.52,1.88l13.85,8.19-3.1,5.24-13.21-7.81a8.79,8.79,0,0,0-4.48-1.49,3.79,3.79,0,0,0-3.09,2.23,6.74,6.74,0,0,0-1,3.61,6.16,6.16,0,0,0,1,3.34,25.19,25.19,0,0,0,4.56,3.2l10.66,6.31Z"/><path d="M879.83,1189.88a9.37,9.37,0,0,1-7.13,4.87q-4.61.6-9.86-2.52t-6.76-7.29a9.38,9.38,0,0,1,.87-8.56c1.84-3.11,4.25-4.66,7.21-4.64-1.38-.64-2.67-1.32-3.88-2l-7.08-4.19,2.75-5.42L886.27,1178l-2.67,4.52-3.33-1.19c.22.44.41.83.55,1.18a7.12,7.12,0,0,1,.4,1.38,5.63,5.63,0,0,1,.1,1.68,9.23,9.23,0,0,1-.43,2A11,11,0,0,1,879.83,1189.88Zm-3.23-3.58q3.1-5.27-4-9.58-4.05-2.38-6.7-2.13a5.42,5.42,0,0,0-4.25,3,5.17,5.17,0,0,0-.34,4.87c.7,1.68,2.28,3.24,4.72,4.69a10.82,10.82,0,0,0,6.39,1.88A5.22,5.22,0,0,0,876.6,1186.3Z"/><path d="M895.4,1163.54a11.25,11.25,0,0,1-7.67,5.79,14,14,0,0,1-10-2.11q-5.29-3.13-6.71-7.73t1.59-9.69a11.38,11.38,0,0,1,7.67-5.84q4.75-.93,9.95,2.13t6.68,7.74Q898.4,1158.48,895.4,1163.54Zm-3.88-2.48a5.3,5.3,0,0,0,.42-5.14,11.33,11.33,0,0,0-4.75-4.61c-2.43-1.43-4.55-2.09-6.35-2a6,6,0,0,0-4.74,8,11.3,11.3,0,0,0,4.78,4.64,11.13,11.13,0,0,0,6.32,1.91A5.34,5.34,0,0,0,891.52,1161.06Z"/><path d="M903.82,1148.34l-21.91-12.95,2.49-4.21,3.11,1.06a12.06,12.06,0,0,1,1.09-9.39q2.26-3.82,5.59-4.43t7.52,1.87l13.85,8.2-3.1,5.24-13.22-7.82a8.92,8.92,0,0,0-4.47-1.49,3.83,3.83,0,0,0-3.1,2.24,6.82,6.82,0,0,0-1,3.61,6.09,6.09,0,0,0,1,3.33,25.36,25.36,0,0,0,4.56,3.21l10.67,6.31Z"/><path d="M921.11,1119.09l-25.83-6.31,3.15-5.32,18.55,5.29-6.49-6.9q-6.12-6.49-6.81-7.28l3.17-5.37q1,.24,9.51,2.53t9.15,2.45l-13.45-13.79,3.1-5.24L933,1099l-3.08,5.2q-1-.24-10.1-2.7l-9.82-2.65q1.22,1.28,7.27,7.73t6.86,7.41Z"/><path d="M942.57,1083.76a8.27,8.27,0,0,1-4.6,3.93,7.14,7.14,0,0,1-6-1,6.79,6.79,0,0,1-3.73-5.22q-.33-3.21,1.9-8c.19-.44.4-.92.63-1.43s.49-1.08.79-1.71.53-1.13.7-1.5l-1.16-.68a4.57,4.57,0,0,0-3.44-.8,4.45,4.45,0,0,0-2.56,2.25,22.55,22.55,0,0,0-2.4,7.49l-2.21-.42-2.18-.4a24.36,24.36,0,0,1,3.3-9.35q2.61-4.42,5.73-5.3c2.07-.59,4.55,0,7.42,1.67l14.29,8.45-2.28,3.86-1.6-.35c-1-.21-1.53-.34-1.58-.37a14.2,14.2,0,0,1,.45,4.59A10.25,10.25,0,0,1,942.57,1083.76Zm-2.87-3.61a6.66,6.66,0,0,0,1-3.67,5.88,5.88,0,0,0-1-3.17l-4.22-2.5s-.2.4-.54,1.09l-.55,1.12a12.56,12.56,0,0,0-1.55,5.35,3.74,3.74,0,0,0,2.07,3.22,3.22,3.22,0,0,0,2.63.45A3.89,3.89,0,0,0,939.7,1080.15Z"/><path d="M952.2,1066.5l-21.91-13,2.6-4.39,3.75,1.31a8,8,0,0,1,.24-8.28,13,13,0,0,1,.9-1.35l4.32,2.66a14.26,14.26,0,0,0-1.1,1.58,6.57,6.57,0,0,0-1,5.23,7,7,0,0,0,3.42,4l11.88,7Z"/><path d="M967.89,1040.93q-3.14,5.29-7.91,6.43t-10.14-2q-5.22-3.09-6.67-7.68a11.24,11.24,0,0,1,1.36-9.4q2.67-4.51,7-5.35a12.68,12.68,0,0,1,9,1.94l1.1.66,1.11.67-8.62,14.57a8,8,0,0,0,5.75,1.13,6.78,6.78,0,0,0,4.3-3.42,16.13,16.13,0,0,0,2.2-8l4.15,1.46A17,17,0,0,1,967.89,1040.93Zm-17-2.23,5.66-9.57a7.17,7.17,0,0,0-4.83-1.21,4.85,4.85,0,0,0-3.43,2.52,5.37,5.37,0,0,0-.61,4.22A7.35,7.35,0,0,0,950.86,1038.7Z"/><path d="M376.37,842.52l.42-35.16,6,1.71-.89,27.2,14.61-23.13,5.77,1.64-.14,27.34,13.71-23.65,6,1.71-18.41,30-6.26-1.78L397,822.56l-14.44,21.73Z"/><path d="M431,858.54q-7.38-2.09-10.37-7.77t-.76-13.54q2.25-7.92,7.79-11.13T440.52,825q7.37,2.1,10.36,7.75t.75,13.56q-2.24,7.83-7.78,11.08T431,858.54Zm-4.87-10q1.55,3.79,6.29,5.14t8-1q3.3-2.4,4.9-8c1.08-3.81,1.11-7,.1-9.54s-3.1-4.27-6.25-5.17-5.86-.53-8.08,1.11-3.87,4.35-4.95,8.14S425.05,846,426.08,848.49Z"/><path d="M452.71,864.23,462,831.59l6.42,1.83q1,3.21,3.94,13T476,858.25c.12.41.34,1.09.65,2.06l.66,2.05c1.34-5.13,2-7.78,2.1-8l4.69-16.5,5.5,1.56-9.28,32.64-6.5-1.85-8.2-27.14L465,841q-1.5,5.94-2.17,8.32l-4.68,16.44Z"/><path d="M493.64,875.86l7.9-27.8-9.51-2.7,1.37-4.84,25,7.12-1.37,4.84-9.47-2.69-7.91,27.8Z"/><path d="M512.68,881.28,522,848.65l19.32,5.49-1.59,4.72-13.1-3.72L524,864.41,536.41,868l-1.35,4.74-12.45-3.54L518.67,883Z"/><path d="M537.41,888.31l9.28-32.63,6,1.71L543.45,890Z"/><path d="M546.9,891l16.18-13.46L557,858.62l6.79,1.93,4.23,14.35L579.41,865l6.44,1.83-15.36,13,6.66,19.85-7-2-4.63-15-12,10.3Z"/><g class="cls-7"><path class="cls-8" d="M1534.2,1074.37c0,5.83.06,12,2.18,17,1.95,4.63,5.37,7.66,8.76,10.25,29.18,22.23,66.28,23.17,96,2.44,3.13-2.18,6.3-4.73,8.19-8.81,1.81-3.9,2.22-8.71,2.52-13.33a578.8,578.8,0,0,0,.9-59.5c-.17-4.72-.47-9.73-2.52-13.5-3-5.51-8.59-6.51-13.56-7-27.74-2.63-99.82-34.62-99.82-6.12C1536.87,1017.05,1534.19,1051.45,1534.2,1074.37Z"/><path d="M1594.88,1121.09c-17.67,0-35.34-6-51-17.86-3.62-2.76-7.27-6-9.39-11.07-2.34-5.55-2.34-12.34-2.34-17.79h0c0-11.75.7-26.56,1.38-40.89.66-14,1.29-27.31,1.29-37.64,0-4.43,1.56-7.85,4.63-10.19,10.8-8.21,38-.66,64.38,6.64,12.83,3.55,24.95,6.91,33,7.67,5.9.56,11.81,1.92,15.13,8,2.22,4.09,2.57,9.14,2.76,14.39a585.6,585.6,0,0,1-.9,59.7c-.34,5-.79,9.91-2.71,14-2.07,4.46-5.48,7.26-8.85,9.61C1627.59,1116,1611.23,1121.09,1594.88,1121.09Zm-41.37-135c-5,0-9,.8-11.59,2.74-2.05,1.56-3.05,3.85-3.05,7,0,10.43-.63,23.74-1.3,37.83-.67,14.28-1.37,29-1.37,40.7h0c0,5.36,0,11.43,2,16.24,1.77,4.19,5,7,8.13,9.44,28.62,21.79,64.51,22.71,93.67,2.39,3.37-2.35,5.94-4.61,7.51-8s2-8,2.35-12.63a580.4,580.4,0,0,0,.89-59.29c-.17-4.75-.47-9.29-2.28-12.62-2.29-4.22-6.29-5.4-12-5.94-8.4-.8-20.68-4.2-33.69-7.81C1586.16,991.53,1566.57,986.1,1553.51,986.1Z"/><path class="cls-8" d="M1451,849a11.85,11.85,0,0,0-3.66,5.14c-2.56,5.72-4.36,12.65-1.17,18,3,5,9.58,7.41,11.53,12.9a17.9,17.9,0,0,1,.58,6.89l-.64,14.49c-.11,2.6-.21,5.29.77,7.7,2.11,5.15,8.91,7.24,14.13,5.32s8.82-6.91,10.52-12.21c4-12.32,1-34.13-4.46-45.92C1474.92,853.52,1459.19,843.53,1451,849Z"/><path d="M1468.33,922.24c-5.42,0-10.13-3.23-11.8-7.32-1.16-2.85-1-5.87-.91-8.53l.64-14.49a16.81,16.81,0,0,0-.47-6.14c-.9-2.52-3.14-4.38-5.5-6.36a24.74,24.74,0,0,1-5.87-6.19c-3-5-2.6-11.69,1.07-19.88.94-2.09,2.13-4.45,4.35-6h0c3.11-2.08,7.28-2.47,12.06-1.13,7.62,2.14,15.73,8.42,18.46,14.29,5.54,11.91,8.78,34.3,4.56,47.39-2.13,6.59-6.41,11.5-11.74,13.46A14,14,0,0,1,1468.33,922.24Zm-16.24-71.57a10.19,10.19,0,0,0-2.95,4.3c-3.11,6.93-3.54,12.38-1.28,16.2a21.64,21.64,0,0,0,5,5.16c2.68,2.23,5.44,4.54,6.7,8.09a19.52,19.52,0,0,1,.7,7.65l-.64,14.49c-.1,2.36-.21,4.81.63,6.85,1.72,4.21,7.53,5.69,11.58,4.2s7.59-5.6,9.31-10.94c3.82-11.86.84-33.25-4.37-44.47-2-4.25-8.85-10.14-15.93-12.13C1458.32,849.37,1454.76,848.9,1452.09,850.67Z"/><path class="cls-8" d="M1737.48,841.56a11.72,11.72,0,0,1,3.65,5.14c2.57,5.72,4.37,12.64,1.18,18-3,5-9.58,7.41-11.53,12.89a18.17,18.17,0,0,0-.59,6.9l.64,14.49c.12,2.6.22,5.29-.77,7.69-2.1,5.15-8.9,7.24-14.12,5.32s-8.82-6.91-10.53-12.2c-4-12.32-1-34.14,4.47-45.93C1713.52,846.07,1729.26,836.08,1737.48,841.56Z"/><path d="M1720.11,914.79a14.13,14.13,0,0,1-4.86-.88c-5.34-2-9.61-6.88-11.74-13.47-4.22-13.09-1-35.47,4.55-47.38,2.74-5.88,10.85-12.15,18.47-14.29,4.77-1.35,8.94-.95,12.06,1.12l0,0a13.42,13.42,0,0,1,4.34,6c3.68,8.18,4,14.87,1.08,19.88a25.06,25.06,0,0,1-5.87,6.18c-2.37,2-4.6,3.85-5.5,6.36a16.6,16.6,0,0,0-.47,6.14l.64,14.49c.12,2.66.25,5.68-.92,8.54C1730.24,911.56,1725.54,914.79,1720.11,914.79Zm11.7-72.8a15.62,15.62,0,0,0-4.2.63c-7.07,2-13.94,7.87-15.92,12.13-5.22,11.21-8.2,32.61-4.37,44.46,1.72,5.34,5.2,9.43,9.31,10.94s9.86,0,11.58-4.19c.84-2.05.73-4.49.62-6.85l-.64-14.49a20,20,0,0,1,.7-7.66c1.26-3.54,4-5.85,6.7-8.09a21.42,21.42,0,0,0,5-5.15c2.27-3.82,1.84-9.28-1.27-16.2-.72-1.59-1.59-3.37-3-4.31A8.2,8.2,0,0,0,1731.81,842Z"/><path class="cls-8" d="M1528.79,1001.82c28,25.17,60.66,37.07,97,26.16s55.46-35.49,69.17-70.17c11-27.73,22.72-62.35,22.72-92.08,0-25.69-.9-51.91-9.94-76-13.89-37-47.59-66.32-86.79-75.4-79.9-18.53-139.06,39.36-148.74,112.88C1464.88,882.65,1485.1,962.49,1528.79,1001.82Z"/><path d="M1598.79,1034.07c-24.69,0-48.59-10.28-71.34-30.76-45-40.54-64.48-121.52-57.25-176.39,5.42-41.21,26-76.94,56.4-98,27.24-18.89,60-24.61,94.77-16.55A125.72,125.72,0,0,1,1675.12,740a122.2,122.2,0,0,1,34.46,49c9.3,24.81,10.08,51.51,10.07,76.73,0,31.37-13.05,68-22.86,92.81-15.78,39.91-36.85,61.25-70.46,71.35A95.23,95.23,0,0,1,1598.79,1034.07Zm-7.47-321.27a108.05,108.05,0,0,0-62.44,19.38c-29.5,20.45-49.44,55.17-54.72,95.27-7.09,53.84,11.91,133.23,56,172.89h0c30,27,62,35.66,95,25.72,32.31-9.71,52.61-30.35,67.89-69,9.69-24.51,22.58-60.65,22.58-91.34,0-24.85-.75-51.14-9.82-75.33-13.56-36.17-47.07-65.28-85.37-74.16A129.36,129.36,0,0,0,1591.32,712.8Z"/><path d="M1594.6,948.25a22.64,22.64,0,0,1-4.92-.56,2,2,0,0,1,.87-3.91c12.44,2.76,17.72-7.79,19.41-12.46a2,2,0,0,0-.12-1.66l-20.52-38.23a2,2,0,1,1,3.53-1.89l20.51,38.23a6,6,0,0,1,.36,4.92C1612.29,936.62,1607,948.25,1594.6,948.25Z"/><path class="cls-9" d="M1324.1,1481a171.62,171.62,0,0,1-7.36-15.91c-21.29-52-20.7-92.9-9.62-148.33,4.41-22.08,13.14-59.15,20.07-80.24,5.21-15.88,18.82-85.56,26.5-101.55,24.36-50.68,88.85-90.78,139.45-92.24,23.4-.67,34.89,18.15,57,26,28.79,10.2,47.7,12.61,77,6.39,20.07-4.26,30.31-16,58.87-22.19,100.4-21.59,137.57,57.31,143.4,69.15,63.12,128.22,89.54,358.82,44,358.82Z"/><path d="M1322.9,1483l-.57-1.06a173.1,173.1,0,0,1-7.44-16.09c-22.26-54.33-20.43-96-9.73-149.49,4.73-23.7,13.4-60,20.13-80.47,2-6,5.15-19.79,8.84-35.76,6.06-26.23,12.92-56,17.76-66,11.74-24.42,33.26-47.65,60.6-65.38,26.29-17.07,55.67-27.27,80.59-28,14.77-.41,24.79,6.43,35.43,13.68,6.76,4.61,13.75,9.38,22.3,12.41,30,10.62,48.45,12.15,76,6.31,8.93-1.89,16-5.41,23.57-9.14,9.16-4.53,19.54-9.66,35.29-13,42.35-9.1,78.66-1.81,107.91,21.69,15.21,12.22,27.81,28.37,37.45,48l.25.51c25.75,52.31,48,128,59.44,202.58,11.06,71.87,10,129.29-2.82,149.85-3.83,6.16-8.69,9.28-14.43,9.28Zm171.44-438.29-1.14,0c-24.21.7-52.84,10.67-78.54,27.34-26.73,17.35-47.74,40-59.17,63.77-4.64,9.66-11.75,40.45-17.46,65.19-3.71,16.07-6.92,29.94-8.94,36.11-6.69,20.36-15.3,56.41-20,80-10.55,52.78-12.37,93.79,9.51,147.18,2.3,5.62,4.5,10.43,6.71,14.67l548.12-.13c4.33,0,7.94-2.42,11-7.39,12.32-19.79,13.19-76.17,2.27-147.13-11.42-74.16-33.5-149.46-59.08-201.42l-.25-.52c-9.38-19.11-21.61-34.81-36.36-46.66-28.27-22.71-63.45-29.73-104.57-20.9-15.26,3.28-25.4,8.3-34.35,12.73-7.77,3.84-15.1,7.47-24.52,9.47-28.33,6-47.31,4.44-78.11-6.46-9-3.2-16.25-8.12-23.23-12.87C1516.46,1051.07,1507.19,1044.74,1494.34,1044.74Z"/><path d="M1785.07,1479.59l-4-.23a499.82,499.82,0,0,0,.22-50.17c-1.07-24.6-3.5-49.6-5.85-73.77-4-41.19-8.13-83.79-5.69-125.83l4,.23c-2.42,41.73,1.7,84.17,5.69,125.21,2.35,24.23,4.78,49.28,5.86,74A504.86,504.86,0,0,1,1785.07,1479.59Z"/><path d="M1598.15,986.1c-15.11,0-26.34-14.32-26.83-15a2,2,0,0,1,3.17-2.44c.1.13,10.54,13.38,23.68,13.38.31,0,.61,0,.92,0,8.41-.4,16.26-6.26,23.33-17.43a2,2,0,1,1,3.38,2.14c-7.82,12.34-16.75,18.83-26.54,19.29Z"/><path class="cls-6" d="M1177.41,973.05c-27.93,20.6-50.94,50.23-55.81,84.38s12.16,72.2,44.27,84.85c8.82,3.47,18.61,5,27.94,3.1,23.7-4.79,37.67-28.69,48.93-50,25-47.32,55.59-97.3,105.89-116,36.84-13.68,77.89-7.81,115.69,2.32,15.83,4.25,31.69,9.24,48.11,9.66s33.91-4.47,44.66-16.92c-21.12,14.16-50.12-.36-66.27-19.69s-26.92-43.87-47.84-58c-15.7-10.59-35.24-13.9-54.23-15-43.8-2.6-74.1,9.9-108.06,35.61C1249.42,941,1209.45,949.42,1177.41,973.05Z"/><path d="M1185.43,1148.2a55.58,55.58,0,0,1-20.29-4.06c-31.28-12.32-50.85-49.72-45.52-87,4.52-31.69,24.63-62.13,56.6-85.71h0c16-11.82,34.19-20,51.75-27.81s35.9-16.06,51.52-27.88c37.46-28.37,68.13-38.46,109.37-36,31.9,1.89,46.8,9.67,55.24,15.36,14.1,9.51,23.76,23.76,33.1,37.53,4.77,7,9.7,14.31,15.15,20.83,16.09,19.25,43.85,32.56,63.62,19.31a2,2,0,0,1,2.63,3c-10.08,11.68-26.95,18.1-46.22,17.61-14.44-.37-28.52-4.23-42.14-8l-6.44-1.76c-62.93-16.87-95.47-9.43-114.47-2.37-50.58,18.78-80.62,69.23-104.82,115-12.23,23.16-26.19,46.17-50.3,51A44.61,44.61,0,0,1,1185.43,1148.2Zm-6.83-173.54c-31.11,22.94-50.65,52.44-55,83.05-5.07,35.49,13.43,71,43,82.71,9.23,3.64,18.5,4.67,26.81,3,22.4-4.53,35.77-26.69,47.56-49,24.53-46.46,55.06-97.65,107-116.92,40.76-15.14,86.24-6,116.9,2.26l6.47,1.76c13.39,3.67,27.23,7.47,41.18,7.83,12.8.31,24.42-2.54,33.41-8.07-19.71,4.15-42.48-8.35-56.61-25.26a261.12,261.12,0,0,1-15.39-21.14c-9.55-14.08-18.57-27.38-32-36.46-8-5.43-22.31-12.85-53.23-14.69-40.2-2.39-70.11,7.48-106.73,35.21-16,12.09-34.44,20.35-52.29,28.34-17.37,7.77-35.33,15.81-51,27.38Z"/><path d="M1158.51,1088.81l-4.29-2.48,2.91-5,4.29,2.48Zm24.08,13.93-21-12.16,2.9-5,21,12.15Z"/><path d="M1193.65,1084.27a12.56,12.56,0,0,1-2.57,3.28,5.38,5.38,0,0,1-2.88,1.3,8,8,0,0,1-3.24-.35,19.75,19.75,0,0,1-3.85-1.78l-9.93-5.74-2,3.44-2.61-1.76,1.76-3.79-4.77-4.9,1.75-3.07,5.72,3.31,3-5.23,3,1.76-3,5.22,10,5.8a7.28,7.28,0,0,0,3.8,1.28,3.31,3.31,0,0,0,2.49-2,17.32,17.32,0,0,0,1.16-2.44l3.67,1.94-.18.52c-.11.32-.22.63-.33.91s-.26.65-.45,1.08S1193.86,1083.91,1193.65,1084.27Z"/><path d="M1178,1067.78l-8.23-7.52,2.41-4.17,7.67,8.49Z"/><path d="M1206.82,1061.49a12.31,12.31,0,0,1-2.58,3.29,5.3,5.3,0,0,1-2.91,1.32,7.78,7.78,0,0,1-3.3-.38,21.93,21.93,0,0,1-4-1.88L1173.54,1052l2.58-5.2,20.71,12c1.89,1.1,3.3,1.61,4.23,1.55s1.76-.73,2.5-2a21,21,0,0,0,1.2-2.55l3.65,1.93s-.06.19-.17.53-.22.65-.34,1-.27.68-.47,1.12A10.48,10.48,0,0,1,1206.82,1061.49Z"/><path d="M1214.57,1048.1a12.51,12.51,0,0,1-2.58,3.29,5.36,5.36,0,0,1-2.92,1.32,7.8,7.8,0,0,1-3.3-.38,21.93,21.93,0,0,1-4-1.88l-20.48-11.85,2.57-5.2,20.72,12c1.88,1.1,3.29,1.61,4.22,1.55s1.76-.73,2.51-2a21.19,21.19,0,0,0,1.19-2.55l3.66,1.94s-.07.18-.18.52-.22.65-.33,1-.27.68-.47,1.12A12.37,12.37,0,0,1,1214.57,1048.1Z"/><path d="M1243.65,1015a9.29,9.29,0,0,1-4,2.34,7.85,7.85,0,0,1-3.84.24l1.74,2.63-3.61,3.48-23.07-23.89,3.91-4.29,5.22,5.4c1,1.05,2.13,2.28,3.35,3.67a9,9,0,0,1,2.78-7.9,8.68,8.68,0,0,1,7.64-2.58,14.43,14.43,0,0,1,8.16,4.65,15,15,0,0,1,4.52,8.61A8.76,8.76,0,0,1,1243.65,1015Zm-4.05-2.19a4.83,4.83,0,0,0,1.45-4.45,10.68,10.68,0,0,0-3.2-5.54q-2.8-2.91-5.34-3.35a4.78,4.78,0,0,0-4.39,1.35q-4.23,4.08,1.23,9.84,3.11,3.21,5.62,3.69A5,5,0,0,0,1239.6,1012.83Z"/><path d="M1262.36,997q-4.21,4.06-8.9,3.91t-8.81-4.44q-4-4.17-4.19-8.76a10.77,10.77,0,0,1,3.63-8.3,9.86,9.86,0,0,1,7.78-3.15,12.1,12.1,0,0,1,7.78,4.06c.18.18.46.48.84.89l.85.89-11.62,11.22a7.71,7.71,0,0,0,5,2.5,6.45,6.45,0,0,0,4.81-2.06,15.31,15.31,0,0,0,4.06-6.8l3.44,2.38A16.12,16.12,0,0,1,1262.36,997Zm-15.09-6.38,7.63-7.36a6.86,6.86,0,0,0-4.13-2.34,4.6,4.6,0,0,0-3.79,1.45,5.05,5.05,0,0,0-1.64,3.73A7,7,0,0,0,1247.27,990.58Z"/><path d="M1291.13,974.11l-9.35-18.6-3.41,1.72-1.55-3.08,3.42-1.72-.33-.65c-.48-1-.86-1.85-1.13-2.57a12.16,12.16,0,0,1-.61-2.22,4.87,4.87,0,0,1,0-2,5.87,5.87,0,0,1,.84-1.81,7.24,7.24,0,0,1,1.75-1.75,17.93,17.93,0,0,1,2.81-1.69l1.34-.67,2.32,3.53-1.38.69a6.64,6.64,0,0,0-1.57,1,1.82,1.82,0,0,0-.61,1.15,3,3,0,0,0,.13,1.32,13.34,13.34,0,0,0,.78,1.79l.67,1.35,12.34-6.2,10.89,21.68-5,2.51-9.35-18.59-7.32,3.68,9.34,18.6Zm-.13-31.06-2.22-4.43,5-2.53,2.22,4.43Z"/><path d="M1312.65,963.71,1305,940.66l4.43-1.47,1.57,2.71a11.52,11.52,0,0,1,6.67-6.08q4-1.34,6.8.32c1.84,1.1,3.26,3.12,4.23,6.06l4.84,14.57L1328,958.6l-4.61-13.9a8.47,8.47,0,0,0-2.29-3.88,3.66,3.66,0,0,0-3.63-.33,6.43,6.43,0,0,0-3,2,5.73,5.73,0,0,0-1.39,3,24.09,24.09,0,0,0,1.27,5.16l3.73,11.22Z"/><path d="M1349.25,954q-5.74,1.13-9.59-1.56t-5-8.52q-1.11-5.67,1.25-9.63a10.77,10.77,0,0,1,7.56-5,9.83,9.83,0,0,1,8.24,1.59,12.1,12.1,0,0,1,4.32,7.65c0,.24.12.64.22,1.19s.18,1,.23,1.22L1340.65,944a7.61,7.61,0,0,0,2.84,4.82,6.44,6.44,0,0,0,5.16.89,15.26,15.26,0,0,0,7.1-3.5l1.59,3.88A16.11,16.11,0,0,1,1349.25,954Zm-9.19-13.56,10.41-2a6.89,6.89,0,0,0-2.2-4.21,4.61,4.61,0,0,0-4-.84,5.08,5.08,0,0,0-3.4,2.24A7,7,0,0,0,1340.06,940.4Z"/><path d="M1373.63,950.87q-5.85.42-9.34-2.69t-3.94-9q-.42-5.77,2.38-9.42a10.77,10.77,0,0,1,8.1-4.05,9.84,9.84,0,0,1,8,2.55,12.13,12.13,0,0,1,3.38,8.11c0,.25,0,.65.08,1.21s.06,1,.08,1.23L1366.26,940a7.67,7.67,0,0,0,2.25,5.12,6.4,6.4,0,0,0,5,1.5,15.28,15.28,0,0,0,7.47-2.63l1.12,4A16.19,16.19,0,0,1,1373.63,950.87Zm-7.53-14.56,10.58-.78a6.89,6.89,0,0,0-1.68-4.44,4.64,4.64,0,0,0-3.84-1.31,5.05,5.05,0,0,0-3.64,1.82A7,7,0,0,0,1366.1,936.31Z"/><path d="M1398.22,950.64q-5.85-.24-9-3.75t-2.86-9.44q.24-5.79,3.45-9.08a10.79,10.79,0,0,1,8.52-3.09,9.85,9.85,0,0,1,7.65,3.47,12.14,12.14,0,0,1,2.41,8.44c0,.25,0,.65-.06,1.21s0,1-.06,1.24l-16.14-.69a7.66,7.66,0,0,0,1.64,5.35,6.46,6.46,0,0,0,4.81,2.07,15.33,15.33,0,0,0,7.73-1.75l.64,4.14A16.1,16.1,0,0,1,1398.22,950.64Zm-5.79-15.32,10.6.44a6.88,6.88,0,0,0-1.15-4.6,4.64,4.64,0,0,0-3.67-1.75,5.12,5.12,0,0,0-3.83,1.39A7.07,7.07,0,0,0,1392.43,935.32Z"/><path d="M1414.33,952a3.29,3.29,0,0,1-2.29-1.28,3.23,3.23,0,0,1-.7-2.47,3.31,3.31,0,0,1,1.27-2.27,3.25,3.25,0,0,1,2.54-.71,3.16,3.16,0,0,1,2.25,1.3,3.37,3.37,0,0,1,.67,2.51,3.25,3.25,0,0,1-1.25,2.22A3.2,3.2,0,0,1,1414.33,952Z"/><path d="M1424.31,953.43a3.32,3.32,0,0,1-2.23-1.38,3.27,3.27,0,0,1-.59-2.5,3.35,3.35,0,0,1,1.37-2.21,3.27,3.27,0,0,1,2.58-.6,3.15,3.15,0,0,1,2.18,1.4,3.34,3.34,0,0,1,.56,2.54,3.27,3.27,0,0,1-1.35,2.17A3.22,3.22,0,0,1,1424.31,953.43Z"/><path d="M1434.21,955.33a3.29,3.29,0,0,1-2.17-1.48,3.24,3.24,0,0,1-.48-2.52,3.42,3.42,0,0,1,4.07-2.63,3.19,3.19,0,0,1,2.12,1.49,3.35,3.35,0,0,1,.44,2.56,3.27,3.27,0,0,1-1.44,2.11A3.2,3.2,0,0,1,1434.21,955.33Z"/><ellipse class="cls-6" cx="1647.13" cy="875.76" rx="19.49" ry="12.64"/><path d="M1647.13,890.4c-12.05,0-21.49-6.43-21.49-14.64s9.44-14.64,21.49-14.64,21.49,6.43,21.49,14.64S1659.18,890.4,1647.13,890.4Zm0-25.28c-9.48,0-17.49,4.87-17.49,10.64s8,10.64,17.49,10.64,17.49-4.87,17.49-10.64S1656.61,865.12,1647.13,865.12Z"/><ellipse cx="1643.42" cy="871.48" rx="8.43" ry="7.24"/><path d="M1643.42,880.72c-5.75,0-10.43-4.15-10.43-9.24s4.68-9.24,10.43-9.24,10.43,4.14,10.43,9.24S1649.17,880.72,1643.42,880.72Zm0-14.48c-3.54,0-6.43,2.35-6.43,5.24s2.89,5.24,6.43,5.24,6.43-2.35,6.43-5.24S1647,866.24,1643.42,866.24Z"/><ellipse class="cls-6" cx="1540.22" cy="875.76" rx="19.49" ry="12.64"/><path d="M1540.22,890.4c-12,0-21.49-6.43-21.49-14.64s9.44-14.64,21.49-14.64,21.49,6.43,21.49,14.64S1552.27,890.4,1540.22,890.4Zm0-25.28c-9.48,0-17.49,4.87-17.49,10.64s8,10.64,17.49,10.64,17.49-4.87,17.49-10.64S1549.7,865.12,1540.22,865.12Z"/><ellipse cx="1536.13" cy="872.21" rx="8.43" ry="7.24"/><path d="M1536.13,881.45c-5.75,0-10.43-4.15-10.43-9.24s4.68-9.24,10.43-9.24,10.43,4.15,10.43,9.24S1541.88,881.45,1536.13,881.45Zm0-14.48c-3.55,0-6.43,2.35-6.43,5.24s2.88,5.24,6.43,5.24,6.43-2.35,6.43-5.24S1539.67,867,1536.13,867Z"/><path class="cls-5" d="M1713.08,814c-11.25,13.1-23.6,37.14-39.2,37.68,3.48-19.38,1.74-20.13-2.21-28.76-7.77,15.8-14.44,23.45-29.6,22.55,2-10.44.67-15.34,4.16-24.87-7.59,14.93-18.42,15.93-31.1,24.4.3-13.67.6-15.84.89-29.52-4,20.25-18.46,25.36-35.36,29.19,8.72-9.76,13.59-12.84,12.92-27.19-9.71,18.22-23.32,21.86-39.12,32,3.68-12.07,7.36-12.64,11-24.71,1.09-3.58,1.93-8.32-.59-10.6-5.38,17.57-17.42,20.46-32,26.73,6.82-13.23,12-16.18,15.38-31.23-3.46.82-5.82,4.61-7.83,8.11-6.5,11.29-13,11.07-19.5,22.36,2.21-14.76,4.41-18,6.62-32.79-5.94,15.25-12.53,19.86-24.47,28.52,1.25-14.21,2.51-16.91,3.77-31.11-6.81,15.83-7.47,20.47-14.28,36.31-2.73-9.07-2.49-12.92-4.51-23.81-7.79,9.9-4.93,15-10.52,28.41-3-6-4.73-9-6.88-19.3-.85,8.66.91,48.12.91,48.12s-17.39-42.24-17.64-74.79c-.52-68.52,26.84-91.45,52.9-113.31,2.56-2.15,23.89-19.47,40.48-24.39,91.25-27.06,133,15.68,155.48,40.92,10.69,12,21.12,25,29.65,39.66,5.31,9.07,10.31,18.65,12.78,29.37,4.78,20.77.47,47.4-4.77,68-.43,1.67-10,2-11.19,2.49-15.9,6.21-6.82,39.29-12.42,36.78C1715.87,868.61,1713.08,814,1713.08,814Z"/><path d="M1717.42,881.43a3.3,3.3,0,0,1-1.37-.31,2,2,0,0,1-1.17-1.64c-.82-8.77-2.8-46.17-3.53-60.13-1.76,2.28-3.55,4.75-5.41,7.31-9.07,12.47-19.35,26.61-32,27.05a2,2,0,0,1-2-2.35c2.8-15.58,2.15-18.55-.31-23.85-3.75,7.08-6.95,11.41-10.68,14.51-5.05,4.21-11.08,6-19,5.48a2.06,2.06,0,0,1-1.46-.77,2,2,0,0,1-.38-1.6,91.93,91.93,0,0,0,1.27-10.12c.13-1.52.25-3,.44-4.54-4.53,4.79-9.7,7.47-15.08,10.25a103.57,103.57,0,0,0-10.5,6,2,2,0,0,1-3.11-1.71c.15-6.85.3-10.89.45-14.79,0-.76.06-1.53.08-2.32-6.84,11.9-19.27,15.76-32.55,18.77a2,2,0,0,1-1.94-3.29c1.12-1.24,2.17-2.38,3.15-3.44,5.06-5.48,8-8.72,9-14.95-7,9.72-15.39,14.47-24.89,19.83-3.51,2-7.14,4-10.89,6.44a2,2,0,0,1-3-2.27,53.1,53.1,0,0,1,5.71-12.78,48.42,48.42,0,0,0,5.34-11.93,24.29,24.29,0,0,0,.76-3.13c-5.61,11.36-15,15.21-25.6,19.58-1.64.67-3.33,1.37-5,2.11a2,2,0,0,1-2.57-2.75,123.56,123.56,0,0,1,6.52-11c2.91-4.51,5.33-8.27,7.28-14.41a35.14,35.14,0,0,0-2.74,4.24,40.47,40.47,0,0,1-10.19,11.7,37.06,37.06,0,0,0-9.31,10.66,2,2,0,0,1-3.71-1.29,163.28,163.28,0,0,1,3.35-16.58c.21-.88.43-1.76.65-2.68-4.75,6.79-10.45,10.93-18.22,16.55l-.48.35a2,2,0,0,1-2.16.12,2,2,0,0,1-1-1.92c.64-7.16,1.28-11.49,1.91-15.68,0-.12,0-.25,0-.37-.5,1.36-1,2.66-1.45,4-1.85,5.06-3.75,10.29-7.18,18.26a2,2,0,0,1-3.76-.21,87.8,87.8,0,0,1-3-14.48c-.21-1.44-.43-3-.71-4.72-2,3.55-2.68,6.6-3.5,10.43a69.22,69.22,0,0,1-4,13.56,2,2,0,0,1-3.63.12l-.63-1.25c-1-2-1.85-3.67-2.65-5.57.21,14.47,1.09,34.39,1.1,34.67a2,2,0,0,1-3.85.85c0-.11-4.43-10.83-8.79-25.38-4-13.48-8.87-33.12-9-50.17-.53-69.44,27-92.52,53.59-114.83,1-.81,23.39-19.51,41.22-24.8,40.11-11.89,75.39-11.58,104.88.93,26.54,11.26,43.54,30.33,52.67,40.58,12.94,14.53,22.44,27.24,29.88,40,5.23,9,10.43,18.77,13,29.93,5,21.78.17,49.51-4.78,68.95-.57,2.25-3.45,2.8-9.88,3.53-1,.12-2.27.26-2.58.35-8.64,3.37-8.79,17-8.88,26.08-.07,5.94-.1,9.21-2.12,10.5A2.84,2.84,0,0,1,1717.42,881.43Zm-115.49-226c-15.71,0-33.61,2.51-54,8.57-17,5-39.53,23.82-39.76,24-25.92,21.74-52.7,44.2-52.18,111.76.16,21.48,8,47.56,13.14,62.34-.44-12.39-.95-30.23-.4-35.85a2,2,0,0,1,4-.21c1.56,7.51,2.87,11,4.66,14.7a76.81,76.81,0,0,0,2.23-8.61c1.12-5.27,2.09-9.82,7-16a2,2,0,0,1,3.54.87c.74,4,1.18,7,1.57,9.71.42,2.89.78,5.4,1.41,8.27,2-5,3.46-8.88,4.83-12.64,1.84-5.06,3.75-10.29,7.18-18.26a2,2,0,0,1,3.83,1c-.63,7.16-1.28,11.49-1.9,15.67-.47,3.19-1,6.47-1.44,11,9.45-6.94,15.07-11.9,20.19-25a2,2,0,0,1,3.84,1,163,163,0,0,1-3.35,16.57c-.59,2.43-1.19,4.89-1.8,7.85a56.55,56.55,0,0,1,5-4.63,36.5,36.5,0,0,0,9.31-10.66c2.33-4,5-8.07,9.11-9.06a2,2,0,0,1,2.42,2.38c-2.3,10.26-5.51,15.24-9.24,21-1.11,1.72-2.31,3.58-3.58,5.72,12.27-5,21.13-8.75,25.57-23.25a2,2,0,0,1,3.25-.9c2.61,2.36,3,6.62,1.17,12.66a53.1,53.1,0,0,1-5.71,12.78,53.79,53.79,0,0,0-3.45,6.66c2.11-1.25,4.18-2.42,6.21-3.56,10.86-6.12,20.24-11.41,27.34-24.74a2,2,0,0,1,3.77.85c.58,12.47-3,17.19-9,23.77,13.38-3.62,24.15-9.32,27.47-26.06a2,2,0,0,1,4,.43c-.15,6.85-.3,10.89-.44,14.79-.12,3.12-.24,6.33-.36,11,2.65-1.58,5.2-2.9,7.68-4.19,8.09-4.18,14.48-7.48,19.55-17.44a2,2,0,0,1,3.66,1.59,48.13,48.13,0,0,0-2.75,14c-.2,2.4-.42,5.07-.92,8.22,12.58,0,18.37-7.13,25.43-21.5a2,2,0,0,1,1.82-1.12,2,2,0,0,1,1.8,1.17c.38.84.74,1.61,1.08,2.32,3.33,7,4.29,10,1.74,24.95,9.7-2.13,18.53-14.27,26.39-25.08,3.07-4.23,6-8.22,8.86-11.58a2,2,0,0,1,2.16-.59,2,2,0,0,1,1.35,1.79c0,.38,1.35,26.18,2.49,45.64.88-8,3.41-16,11-18.91a16.81,16.81,0,0,1,3.51-.57,40.51,40.51,0,0,0,6.6-1.11c4.79-19,9.4-45.71,4.62-66.51-2.45-10.63-7.48-20.13-12.55-28.8-7.31-12.51-16.66-25-29.42-39.34C1686,687.14,1657.76,655.43,1601.93,655.43Z"/><path class="cls-8" d="M1612,1376.94c14.32-12.1,28.83-18.59,43.24-33,4.2-4.2,16.43-11.59,19.87-16.43a33,33,0,0,0,4.42-9.92,73.73,73.73,0,0,0,2.88-17.26c.39-8.31,6.1-23.72,6.78-28.9,1.24-9.47,5.22-15,3.73-25.13-.52-3.48-1.33-7,0-10.47a6.52,6.52,0,0,1,3.82-3.9c4.83-1.69,15.57,13.16,18.17,18.29,1,1.94,3,12.48,2.79,15.73l-1.92,13.09a8.93,8.93,0,0,0,2.53,7.15c4.38,4.22,9.42.43,14.38-1.76,14-6.2,17.63-7.34,29.85-8.21,5.14-.36,13.87-.18,17,3.9,2.56,3.3,2.14,11.16-.57,14a.64.64,0,0,0,.51,1.1c5.34-.35,14.15,3.2,14.66,9,.84,9.49-6.7,12.68-6.35,14.66.25,1.45,10,4.25,10,10.9,0,8.48-8.75,10-8.75,14,0,1.4,7.78-.3,10.26,10.8,1.53,6.86-13.06,11.59-15.49,14.22-11.8,12.74-19.32,17.23-36.5,19.76-8.84,1.3-17.91,1.06-26.56,3.28-7.26,1.86-14,5.39-20.59,8.89l-71.85,37.94"/><path d="M1629.25,1440.45l-1.86-3.54,71.84-37.94c6.64-3.5,13.5-7.13,21-9.06a97.18,97.18,0,0,1,16.64-2.29c3.34-.27,6.79-.54,10.12-1,16.19-2.38,23.45-6.31,35.33-19.14.94-1,2.67-2,5.06-3.25,4.26-2.31,10.7-5.79,9.95-9.17-1.56-7-5.22-8-7.41-8.55-1.09-.29-2.9-.79-2.9-2.69,0-2.57,2-4.23,3.88-5.85,2.39-2,4.87-4.11,4.87-8.2,0-3.47-4-5.83-6.62-7.39-1.92-1.13-3.07-1.82-3.31-3.17-.27-1.62.82-2.8,2.09-4.16,2-2.16,4.74-5.11,4.25-10.67-.38-4.3-8-7.48-12.54-7.16a2.67,2.67,0,0,1-2.59-1.53,2.64,2.64,0,0,1,.51-3c2.06-2.13,2.32-8.92.43-11.36-2.28-2.94-9.4-3.54-15.31-3.12-12.15.86-15.55,2-29.18,8-.81.36-1.62.76-2.43,1.16-4.23,2.09-9.49,4.7-14.15.2a10.84,10.84,0,0,1-3.13-8.74v-.13l1.91-13c.2-3-1.8-13.06-2.59-14.6-3.55-7-13.24-18.18-15.72-17.31a4.48,4.48,0,0,0-2.61,2.73c-1,2.54-.54,5.28-.08,8.19.07.42.13.85.2,1.27,1,6.88-.33,11.7-1.75,16.81a63.38,63.38,0,0,0-2,8.87,85.48,85.48,0,0,1-2.53,10c-1.78,6.21-4,13.93-4.23,18.77a76,76,0,0,1-3,17.73,35.15,35.15,0,0,1-4.71,10.51c-2.22,3.13-7.33,6.89-12.28,10.53a81.38,81.38,0,0,0-7.81,6.16c-8.52,8.53-17.15,14.37-25.49,20a205.27,205.27,0,0,0-17.87,13.09l-2.58-3.06a212.91,212.91,0,0,1,18.2-13.35c8.2-5.55,16.67-11.28,24.92-19.53a80.3,80.3,0,0,1,8.26-6.56c4.47-3.29,9.54-7,11.39-9.62a31.59,31.59,0,0,0,4.13-9.32,71.9,71.9,0,0,0,2.8-16.79c.25-5.31,2.45-13,4.39-19.7a90.7,90.7,0,0,0,2.41-9.37,65.44,65.44,0,0,1,2.09-9.42c1.36-4.89,2.53-9.11,1.64-15.16-.06-.41-.13-.82-.19-1.23-.5-3.14-1.06-6.7.3-10.24a8.46,8.46,0,0,1,5-5.08c7.27-2.54,19.26,16.61,20.61,19.28,1.2,2.36,3.28,13.3,3,16.79l0,.13-1.9,13a6.87,6.87,0,0,0,1.93,5.49c2.5,2.41,5.28,1.22,9.6-.92.86-.42,1.72-.85,2.58-1.23,14-6.18,17.81-7.47,30.51-8.37,5.36-.38,14.93-.28,18.76,4.66,2.6,3.36,2.77,10.13.77,14.37,6.09.62,13.7,4.53,14.25,10.74.64,7.32-3.23,11.5-5.31,13.74l-.58.63.91.54c3.21,1.9,8.58,5.08,8.58,10.83,0,6-3.63,9-6.29,11.26a19.32,19.32,0,0,0-1.93,1.78c2.68.78,7.75,2.74,9.68,11.37,1.41,6.33-6.31,10.52-12,13.57a25.44,25.44,0,0,0-4,2.44c-12.49,13.5-20.59,17.88-37.67,20.39-3.47.51-7,.79-10.39,1.06a94,94,0,0,0-16,2.18c-7.07,1.81-13.72,5.32-20.15,8.72Z"/><path class="cls-9" d="M1438,1238c-3.26,19.36-.33,38.5-7,100.42-5.59,52.19-12.13,59.45,0,63.71,25,8.78,85.79-3.36,118.58-14.51,51.82-17.63,93.51-48.66,93.51-48.66,11.82,23.87,31.86,53.45,51.95,72.93-55.75,49.44-132.48,80.84-206.42,87.68-54,5-104.76-6.55-133-4.67-6.36.42-13,.78-18.8-2-5.93-2.81-10-8.48-13.31-14.16-11-18.59-20-39.89-21.06-61.48"/><path d="M1459.93,1502.78c-22.07,0-43-2-60.79-3.65-17.26-1.62-32.17-3-43.37-2.29-6,.4-13.41.89-19.79-2.14-6.56-3.12-10.85-9.31-14.17-15-13.18-22.38-20.36-43.38-21.33-62.4l4-.2c.94,18.37,7.94,38.75,20.79,60.57,3,5.12,6.85,10.71,12.43,13.37s12,2.15,17.81,1.76c11.52-.76,26.58.66,44,2.3,25.32,2.39,56.83,5.36,89,2.38a375.42,375.42,0,0,0,109.44-27.72c35.1-14.76,67.63-34.81,94.22-58-17.74-17.67-36.94-44.64-49.74-69.86-8.83,6.26-46.85,32.16-92.13,47.56-17.77,6-41.75,11.72-62.57,14.81-18.1,2.69-42.73,4.82-57.32-.3-10.07-3.54-9.14-9.68-6.06-30,1.3-8.54,3.07-20.23,4.73-35.78,3.78-35.25,4.44-56.51,4.93-72,.36-11.65.63-20.06,2-28.51l4,.66c-1.38,8.19-1.64,16.48-2,28-.49,15.59-1.16,36.94-5,72.33-1.67,15.64-3.45,27.38-4.75,36-3.17,20.92-3.3,23.29,3.43,25.65,23.93,8.41,83.49-3,117.27-14.52,50.9-17.31,92.54-48.06,93-48.37l1.92-1.43,1.06,2.15c13,26.17,33.2,54.58,51.55,72.38l1.55,1.5-1.62,1.43c-27.21,24.13-60.73,44.94-96.93,60.17a379.42,379.42,0,0,1-110.62,28C1479.1,1502.42,1469.4,1502.78,1459.93,1502.78Z"/><path d="M1599.77,1093.72c-20.24,0-38.82-5.28-58.76-13.11-6.66-2.61-19.93-14-23.57-19.38-2.1-3.14-2-5-1.7-6.88.18-1.07.29-1.71-.89-3.44l3.31-2.25c1.92,2.82,1.83,4.55,1.53,6.35-.19,1.11-.32,1.91,1.08,4,3.49,5.23,16.27,15.76,21.7,17.89,40,15.71,63.86,14.92,87.38,8.89,20.35-5.2,32.4-14.84,33.07-26.43l4,.23c-.77,13.45-13.92,24.41-36.06,30.08A124.45,124.45,0,0,1,1599.77,1093.72Z"/><path d="M1616.2,1090.39a27,27,0,0,1-.13-3.31,49.78,49.78,0,0,0-.66-9.22l3.92-.81a53.59,53.59,0,0,1,.74,10c0,1.13,0,2.3.08,2.72Z"/><rect x="1602.56" y="1081.88" width="11.99" height="4" transform="translate(520.75 2689.78) rotate(-89.86)"/><path d="M1588.46,1089.76l-4-.22c.07-1.25.14-3.52.21-5.72s.14-4.53.21-5.82l4,.22c-.07,1.25-.14,3.52-.2,5.72S1588.54,1088.47,1588.46,1089.76Z"/><path d="M1577.05,1088.52l-3.87-1c.25-.91.45-2.07.66-3.29a25.39,25.39,0,0,1,1.94-7.2l3.54,1.85a23.5,23.5,0,0,0-1.54,6C1577.55,1086.19,1577.34,1087.44,1577.05,1088.52Z"/><path d="M1598.74,1090.93l-3.87-1a27.82,27.82,0,0,0,.55-3.82c.26-2.58.53-5.25,1.55-7.18l3.54,1.86c-.65,1.24-.9,3.62-1.11,5.72A30.54,30.54,0,0,1,1598.74,1090.93Z"/><path d="M1557.24,1084.36l-2.84-2.82c1.07-1.08,1.56-3.56,1.95-5.55a18.83,18.83,0,0,1,1-3.68l3.67,1.58a17.55,17.55,0,0,0-.71,2.87C1559.76,1079.42,1559.16,1082.42,1557.24,1084.36Z"/><path d="M1568.55,1086.25l-3.87-1a34.58,34.58,0,0,0,.74-4.58,23.37,23.37,0,0,1,1.19-6l3.68,1.58a21.76,21.76,0,0,0-.9,4.92A38.89,38.89,0,0,1,1568.55,1086.25Z"/><path d="M1538.9,1077.87l-2.83-2.82c1.75-1.77,3.41-5.69,4.4-8l.41-1,3.67,1.59-.4.94C1543,1071.35,1541.21,1075.55,1538.9,1077.87Z"/><path d="M1550.3,1082.2l-3.82-1.2c.27-.84.61-2,1-3.34a78.73,78.73,0,0,1,2.43-7.7l3.67,1.59c-.62,1.44-1.53,4.63-2.25,7.2C1550.92,1080.1,1550.57,1081.34,1550.3,1082.2Z"/><path d="M1526.41,1067l-4-.43a25.8,25.8,0,0,1,2.69-8.54c.22-.48.43-.93.61-1.36l3.68,1.59c-.2.47-.43,1-.67,1.46A22.18,22.18,0,0,0,1526.41,1067Z"/><path d="M1532,1073.29l-2.84-2.82c1.11-1.11,1.82-4.36,2.34-6.74a23.27,23.27,0,0,1,1.08-4l3.67,1.58a23.67,23.67,0,0,0-.84,3.23C1534.75,1067.76,1534,1071.36,1532,1073.29Z"/><path d="M1630,1090.07l-4-.63c.41-2.55.22-9.78-1.13-13.39l3.75-1.4C1630.43,1079.27,1630.49,1087.26,1630,1090.07Z"/><path d="M1640.52,1085.63l-4-.64a24.61,24.61,0,0,0-1.13-10.89l3.75-1.4A28.79,28.79,0,0,1,1640.52,1085.63Z"/><path d="M1649.7,1080.7l-4-.1a33,33,0,0,0-1.47-11l3.81-1.24A37,37,0,0,1,1649.7,1080.7Z"/><path d="M1654.26,1075.06c0-3.15-.88-8.41-1.64-9.87l3.54-1.86c1.28,2.44,2.1,8.57,2.1,11.73Z"/></g></g></svg>